<mxfile host="app.diagrams.net" modified="2024-05-05T21:08:21.518Z" agent="Mozilla/5.0 (Windows NT 10.0; Win64; x64) AppleWebKit/537.36 (KHTML, like Gecko) Chrome/123.0.0.0 Safari/537.36 Edg/123.0.0.0" etag="c6b1syIRvDIP-jycTD7l" version="24.3.1" type="github">
  <diagram name="PÃ¡gina-1" id="ZuMSFuFVb-qZFO6ioQ-B">
    <mxGraphModel dx="2251" dy="1234" grid="0" gridSize="10" guides="1" tooltips="1" connect="1" arrows="1" fold="1" page="1" pageScale="1" pageWidth="1920" pageHeight="1200" math="0" shadow="0">
      <root>
        <mxCell id="0" />
        <mxCell id="1" parent="0" />
        <mxCell id="r-8rqZamunhnQGw3UiM5-14" value="&lt;p style=&quot;line-height: 100%;&quot;&gt;&lt;br&gt;&lt;/p&gt;" style="fillColor=#EFF0F3;strokeColor=none;dashed=0;verticalAlign=top;fontStyle=0;fontColor=#232F3D;whiteSpace=wrap;html=1;" vertex="1" parent="1">
          <mxGeometry x="1021" y="689" width="440" height="299" as="geometry" />
        </mxCell>
        <mxCell id="H-b20srUGd8yj_HJ04RQ-13" value="desktop" style="sketch=0;outlineConnect=0;gradientColor=none;fontColor=#545B64;strokeColor=none;fillColor=#879196;dashed=0;verticalLabelPosition=bottom;verticalAlign=top;align=center;html=1;fontSize=12;fontStyle=0;aspect=fixed;shape=mxgraph.aws4.illustration_desktop;pointerEvents=1" parent="1" vertex="1">
          <mxGeometry x="40" y="529" width="100" height="91" as="geometry" />
        </mxCell>
        <mxCell id="H-b20srUGd8yj_HJ04RQ-49" value="" style="image;aspect=fixed;html=1;points=[];align=center;fontSize=12;image=img/lib/azure2/integration/Logic_Apps.svg;" parent="1" vertex="1">
          <mxGeometry x="298.88" y="602" width="80" height="62.1" as="geometry" />
        </mxCell>
        <mxCell id="H-b20srUGd8yj_HJ04RQ-50" value="" style="image;sketch=0;aspect=fixed;html=1;points=[];align=center;fontSize=12;image=img/lib/mscae/CustomDomain.svg;" parent="1" vertex="1">
          <mxGeometry x="301.28" y="480" width="77.6" height="65.19" as="geometry" />
        </mxCell>
        <mxCell id="H-b20srUGd8yj_HJ04RQ-57" value="" style="edgeStyle=orthogonalEdgeStyle;html=1;endArrow=block;elbow=vertical;startArrow=block;startFill=1;endFill=1;strokeColor=#545B64;rounded=0;entryX=-0.007;entryY=0.445;entryDx=0;entryDy=0;entryPerimeter=0;" parent="1" source="H-b20srUGd8yj_HJ04RQ-13" target="H-b20srUGd8yj_HJ04RQ-50" edge="1">
          <mxGeometry width="100" relative="1" as="geometry">
            <mxPoint x="153" y="586" as="sourcePoint" />
            <mxPoint x="730.58" y="712" as="targetPoint" />
            <Array as="points">
              <mxPoint x="260" y="570" />
              <mxPoint x="260" y="509" />
            </Array>
          </mxGeometry>
        </mxCell>
        <mxCell id="H-b20srUGd8yj_HJ04RQ-59" value="" style="edgeStyle=orthogonalEdgeStyle;html=1;endArrow=block;elbow=vertical;startArrow=block;startFill=1;endFill=1;strokeColor=#545B64;rounded=0;entryX=0;entryY=0.75;entryDx=0;entryDy=0;entryPerimeter=0;" parent="1" source="H-b20srUGd8yj_HJ04RQ-49" target="H-b20srUGd8yj_HJ04RQ-20" edge="1">
          <mxGeometry width="100" relative="1" as="geometry">
            <mxPoint x="630.58" y="712" as="sourcePoint" />
            <mxPoint x="559" y="634" as="targetPoint" />
            <Array as="points">
              <mxPoint x="421" y="633" />
              <mxPoint x="421" y="592" />
            </Array>
          </mxGeometry>
        </mxCell>
        <mxCell id="H-b20srUGd8yj_HJ04RQ-68" value="Site" style="text;strokeColor=none;fillColor=none;html=1;fontSize=10;fontStyle=0;verticalAlign=middle;align=center;" parent="1" vertex="1">
          <mxGeometry x="317.92999999999995" y="458" width="44.3" height="20" as="geometry" />
        </mxCell>
        <mxCell id="H-b20srUGd8yj_HJ04RQ-69" value="API" style="text;strokeColor=none;fillColor=none;html=1;fontSize=10;fontStyle=0;verticalAlign=middle;align=center;" parent="1" vertex="1">
          <mxGeometry x="316.73" y="582" width="44.3" height="20" as="geometry" />
        </mxCell>
        <mxCell id="H-b20srUGd8yj_HJ04RQ-71" value="" style="edgeStyle=orthogonalEdgeStyle;html=1;endArrow=block;elbow=vertical;startArrow=block;startFill=1;endFill=1;strokeColor=#545B64;rounded=0;exitX=0.992;exitY=0.454;exitDx=0;exitDy=0;exitPerimeter=0;entryX=0;entryY=0.25;entryDx=0;entryDy=0;entryPerimeter=0;" parent="1" source="H-b20srUGd8yj_HJ04RQ-50" target="H-b20srUGd8yj_HJ04RQ-20" edge="1">
          <mxGeometry width="100" relative="1" as="geometry">
            <mxPoint x="470.58" y="662" as="sourcePoint" />
            <mxPoint x="500.58" y="552" as="targetPoint" />
            <Array as="points">
              <mxPoint x="388" y="510" />
              <mxPoint x="421" y="510" />
              <mxPoint x="421" y="552" />
            </Array>
          </mxGeometry>
        </mxCell>
        <mxCell id="H-b20srUGd8yj_HJ04RQ-91" value="" style="shape=image;imageAspect=0;aspect=fixed;verticalLabelPosition=bottom;verticalAlign=top;image=data:image/png,iVBORw0KGgoAAAANSUhEUgAAAgAAAAIACAYAAAD0eNT6AAA+lElEQVR42u3deZhcZZ328ft3qpeQFZIAQsIiiiIBBUUhATSRTdYMSVeRoOIyjrw67+CM8zooy9gi6zjOKI6j0VFGBklyqptFJCBLEhAScARR2VxZkrCGJUtn6e46v/ePJBhCll6q6jnn1PdzXbkuIOnu+/QV+nfX8zx1jglA7hzyf361b2VdZYivqwxvGj50eLJu3chCVGixnZqHSJL3qPX5Rx99atOfL0S+wqIo2fTvlUSVQlRYKUlJpfJqT9e69c//5qyu0NcFoHosdIAtnXilt3av6up06eTQWYC86l2zRn9esGAgH7pS0nrJV8mi1Ur0sqSXZf6ypJc2/LO9pEQvJ6o8r0Jh6S6v6LlHHil1h75mAK+XugIgUQKAWhtEARioFyQ9L2mJS8+b9JS7PxFF/kTS2/LEsvt/+4zUngz2iwDou1QWAIkSANRSgAKwI92SPyVFT7iSP5n0WGTR472FyuPP3D1zSehwQB6ltgBIlACgVlJYALZnlaTHzfSYux4110OFXvv1k/9bei50MCDLUl0AJEoAUAsZKwBbZ3pO0kNy/drMflWRHnrm3uLvJfPQ0YAsSH0BkCgBQLXlogBs3Styu0/m98vt/qjQc//T93z4ldChgDTKRAGQKAFANeW4AGzJJf+dS/dFiu6KmnTXU3eXnggdCkiDzBQAiRIAVEsDFYCtedbM7vFE90YF3fP0PcUH2TZAI8pUAZAoAUA1NHgB2NIyl26LzH6W9DTdsewX014KHQioh8wVAIkSAAwWBWCbEkm/knRHkuiOXVbZ3dzECHmVyQIgUQKAwaAA9NnLkua5+0/WRzvduvzeqatCBwKqJbMFQKIEAANFARiQXjPd74mVPSl0Lrt/+tLQgYDByHQBkCgBwEBQAAbNJd3v7nNNUXnp4tKy0IGA/sp8AZAoAUB/UQCqKpHsXpnipm51cIdCZEUuCoBECQD6gwJQMxVJd5n8mrW2UwdnBpBmuSkAEiUA6CsKQF2skXS9ya9eMi66U+VSJXQgYHO5KgASJQDoCwpA3S2TdE0l8R89e9+Mx0KHAaQcFgCJEgDsCAUgqAck+16yfqdrnnng1DWhw6Bx5bIASJQAYHt61q7RE/MpAIG95PIfuUXfe+be0u9Ch0HjyW0BkCgBwLZQAFLF5XaXm769rGXXG7RwSm/oQGgMuS4AEiUA2BoKQGo9K+l73tv8LZ5JgFrLfQGQKAHAligAqbdO8rJJ/7Jk0YyHQ4dBPjVEAZAoAcDmKACZ4XK7VdIVSxeX7godBvnSMAVAogQAm1AAssekBxP3by4bH/2YewqgGhqqAEiUAECiAGSa61GP9C9vWvfqtQ88cHZP6DjIroYrABIlAKAA5MLTJrt85Ar94JFHSt2hwyB7GrIASJQANDYKQK4skdvXm1q7Zj258BPrQodBdjRsAZAoAWhcFIBcetrdL915ZXQVKwLoiyh0gJBuOcfWt4wYNt2km0NnAYBB2tvMvrtiVPL7vSbO/aSKcSF0IKRbQxcAiRIAIG9sHzf9YPyy5OFxE+cUJW/olV5sW8MXAIkSACCP7AAzi8dPKt+z91HxUaHTIH0oABtRAgDkk09KEv/5XhPn/mTvo+MDQ6dBelAANkMJAJBXbjo1qfhvx0+ac/Xuk67bLXQehEcB2AIlAECORZJ9tFk9j4+fNPfct544rzV0IIRDAdgKSgCAnNtF0uXrVqx8aPyRc08KHQZhUAC2gRIAIP/sALluHj9p7s17H9W5X+g0qC8KwHZQAgA0iJOSpPfhvSbOvZBtgcaw7xGz96UA7AAlALnkoQMghXZy00XrVqz6zd5HxseFDoPaGTcpPrk3ir5NAegDSgCABvK2xP22cZPmzt7n6M49QodBdY2bFJ9s8k4ztVAA+ogSAKCRmDSjUul9bPyk+NPcTTAfxk+MP2TyDkmtEmcA+oUSAKDBjJJ81vhJ5bvGHTXnbaHDYODGT4w/JPPrJQ3Z9N8oAP1ECQDQePxoS+xXe02KP89DhrJn3KT4ZJnfoM2Gv0QBGBBKAIAGNNTlXx+/zBdxS+Hs2LTnr43L/pujAAwQJQBAg3pfUvEHxk+aey6rAem25Z7/ligAg0AJANCghki6fPwy3T1+YvzW0GHwRlvb898SBWCQKAEAGpdPkvkDe02c+8nQSfAX29rz3xIFoAooAQAa2Eg3/WDcpLk3vunoeNfQYRrd9vb8t0QBqBJKAIBGZtJpTRV/ePzE+EOhszSqHe35b4kCUEWUAAANbjeZzxs/ae43J0yIW0KHaSR92fPfEgWgyigBABqcSTpnxSi/hwOC9TGQ4S9RAGqCEgAAeq/MfznuyLml0EHyrK8H/raGAlAjlAAA0ChzzR0/ac4stgSqr797/luiANQQJQAAJMk+vWKU7t33iNn7hk6SFwNd9t8cBaDGKAEAIEl+WG8U/e9eE+eeEDpJ1lVj+EsUgLqgBACAJGmsm27ea9LcC3jE8MAMZs9/SxSAOqEEAIAkqeDSV8dPim/a7z3xqNBhsmSwe/5bogDUESUAAF5zcner37/nkfHbQwfJgmot+2+OAlBnt5xj6xO374fOAQAp8PbIfdGeR8w9NnSQNKvF8JcoAHU35aJVnzUl14XOAQApMTqKdOv4SXPPDR0kjWo1/CWpKfTFNYpi7IXlj634jhXsb0JnAYCUKUi6fPykuW/dff2rn33ggbN7QgdKg3GT4pPVxwf7DAQrAHVw5BUvjnjx0VfvsKYmhj8AbNunnm/d5ZZ9J1+/c+ggoVX7wN/WUABqbPJlK97asq7l4ai5eXLoLACQfn5M7/ruhr5pUC2X/TdHAaihYy7req/12gPWVNg7dBYAyAzTgb1R9L97HjH3yNBR6q1ew1+iANTMlEtWn+C9lXssikaGzgIAGTQ2inTb+Inx6aGD1Es1b/LTFxSAGph86cq/NmmeooiHXwDAwA2VeXmvSfFnQgeptXrs+W+JAlBN7vaBi169JPLov8T3FgCqoeDy/xw/ae7loYPUSj2X/TfHvZirpBh7YfnvVv7IosKHQ2cBdqRnzRo9sWBB6BhAv7h01bKW3T6thVN6Q2eplmDD33QHr1KroNjuLS8+vuoGhj8A1I5Jnxjf/WLH+InxTqGzVEOo4b8JBWCQjv+aD3vRXr0zKkSnhM4CAPnnUyXNG3vkjSNCJxmMeh/42xoKwCBMbn9l5+41r94TNTUfFToLADQM88lDfP38ce+7bkzoKAMR4sDf1lAABuiYS1bvbhbdHzU1HxI6CwA0Hj/MmnrueNPR8a6hk/RH6GX/zVEABuCDF68ZV0kq/2tNhbeFzgIADeyQpkpy9/iJ8bjQQfoiTcNfogD02/EXr9nLk977o6iwV+gsAAA7QPKf731U536hk2xP2oa/RAHol+MvXrNXd9JzvxWiTLRNYJs8dACgikxvTpKe+Wl9fkAaDvxtDQWgj469fO3ePUnvfVGhsEfoLACALdk+vVF01z7vj98cOsnm0nLgb2soAH1w7OVr9650dy+2QrRn6CwAgG3au9KbLEjLSkAal/03RwHYgclXrBnf29N9nxUKDH8ASD3bpzeyhXtM6twnZIq0D3+JArBdx7ev2k3re34eRSz7A0B22D4F9dwe6t0BWRj+EgVgmya3rxzbEyWLokJh39BZAAD9ZfvLkjt2n3TdbvX8qmk98Lc1FICtOPbyl0dZ5AutUHhL6CwAgIGyA5qt9/a9j/rxLvX4amk+8Lc1FIAtnNruQ3u7C7dboTAhdBYAwCC5vzNJmm7e/Z1XD6vll8nKsv/mKACbKbZ7y+po1c1RofDe0FkAAFUzsWVE6w1vPXFeTV6ZZ3H4SxSA17S3e/RStGqOFaLJobMAAKrLXceuW7lqtiYvaKrm583q8JcoAK9ZWFh5pQrR6aFzAABqxHX6Xj0v/Ee1Pl2WDvxtDQVA0uRLur4cRYW/DZ0DAFBb7jp7r0nx+YP9POMmxSebvFMZOfC3NQ1fAKZcsvqsyJP20DkAAPXh8q/uNWnOJwb68Vk77b8tDV0AplzSdbK5rpJZ6CgAgPoxl83aa+LcE/r7gVne899SwxaAyZesOsiSJJY17vcAABpYs5vKex4x5919/YA8DX+pQQvAcVd07akkma/IhobOAgAIZkQU2U/3PCree0d/MOsH/ram4QrA5PYXhveu770zigq7hs4CAAhuj8h1066T4+Hb+gN5OPC3NQ1VAIqxFyxqLVuhcEDoLACAlHB/Z+t6xSrGhS1/Ky8H/ramoQrA8t+t/qYVCh8KnQMAkDLmJ45/xi/f/D/lbc9/Sw1TAI65dPXHLDLe6w9I8tABgDRy/b/xk+JPS/kf/pJUGPynSL9jLl0zMUmS682sYQoPsD2Vnh69+uSToWMAaXTCyL1LkeTfVo6Hv5n+XNV7IqfR0Zd07ZFUem+yKMr9tQIABq1F7l8JHaIecv2KeHK7D2lKKrdYFI0JnQUAgDTJ96vi5tVXmaJ3hY4BpA33vgSQ2wIw5eJV55hsRugcQBpxCBBALrcAply65nCZ/i10DgAA0ip3BeCE9hWjVem5wWQN8Q4HAAAGIlcFoL3do56ClS0qvCl0FgAA0ixXZwDubl59kRR9MHQOAADSLjcrAMdctvpDkn0pdA4AALIgFwXg+PZVu3lFV+XlegAAqLXsD0x3qzTbD2Vi3x8AgD7KfAE45rKuL7h0cugcAABkSaYLwOSLuw5z11dD5wAAIGsyWwBObH9pZGSaI6kldBYAALImswVgfXPrNyV/S+gcAABkUSYLwJRLu06T9PHQOYDs4mkAQKPLXAGY3L5yrLl/L3QOAACyLHMFIGoufEfS7qFzAACQZZkqAB+8ZPXHJW8LnQMAgKzLTAE49vK1e0v6RugcQD5Y6AAAAstMAUgqlf+QNCp0DiAfOAQINLpMFIAPXrr6o5JODZ0DAIC8SH0BmNy+cqxcXw+dAwCAPEl9AYiao29J2jV0DgAA8iTVBWDKpV0nSZoROgcAAHmT2gJw5BUvjjD3WaFzAACQR6ktAK29O31F0vjQOQAAyKNUFoBjL1p9sKT/GzoHAAB5lb4C4G5Jwb8rqTl0FAAA8ip1BeCDl675a8kmhc4BAECepaoAnNC+YrTkl4XOAQBA3qWqAPQ0R1dIGhs6BwAAedcUOsAmky9ZfYikT4bOAQBAI0jNCkC04Ul/qckDAECepWLgHnPpqjZJHwidAwCARhF8C6DY7i0v+ZrLeDwpUD9m1iPpaZl1yZPhcjOZdpU0PHQ2APURvAAsb+76R5PeGjoH0Eiahw7989JFZxyw5X/f/Z1XD4uGtuwdmQ4ys8Nk9iG5vzN0XgDVZyG/+DGXrN7dpT9IGhH6GwE0mN/PP3/42/vyB8dPjMdFBb05qWhvk+/ppr3kNl7me0raS9KeCvyzBED/mOmOwCsA9s+SM/yB+uvzntvSxaVlkpZt6/d3nRwPH9KdvENuByemA006SNKB2lAOAKRUsAJw/FfXvrlXlU+F/gYAGJwXF5ZWS/rfjb9es+/k63fu7V13iCXRUe42SeaTJI0KnRfABsEKQE+hcpm5WkJ/AwDUxpMLT39V0sKNvyS1R+MnHjjBTEe5/EhJkyWNC50TaFRB9u2mXL76XVbRg0rJ2xCBBvS7+ecPP2Dwn2Zwxk2KD4mkk11+iqT3iZ8JQF2EOwOQ6F/F/+hAw1u2qPSQpIckXfKmo+NdC73JiVEUneLuJ0gaGTofkGd1XwE49qurj00i3R76woEGl4oVgG3Zd/JVQ7p7hx5XcPuou0+V2C4EqinICkAlsi8bN/0BsB1PLvzEOkk3Sbppz8nXjo16mmbI/cOSjgidDciLuq4ATLlk9Qkm3Rr6ogGkewVgW8Yf3rG/CpVPSfqUpNGh8wBZZaY76rwPbxeEvmgA2bX0/rY/LF10xrnJ+qF7Sfq0zH4TOhOQVXVbATjmstUf8kS3hL5gAJIyugKwNXsfFb8nSZLPSTZTKbi9OZAFdV0BSBI7P/QFA8ifp+8pPbB00YyzmpJkf0nfl9QdOhOQBXUpAMdctvpDJj8q9MUCyK8n75v55NJFZ3w6iWx/SVdKWhc6E5BmdSkAvPoHUC/P3FN6eumiMz5XUdMBkn9PrAgAW1XzAjD54jVH8OofQL09u2j6U0sXzTi7oqa3SbpG/XgAEtAIal4ACpZw8h9In4YZhhuKwBkfVZRMlHRf6DxAWtS0ABx70eqDXTop9EUCwNJ7Zt6/dFFpkruXJH8qdB4gtJoWgEqTzlWgBw4BwBuZL1s8o9yzunuC3C+StDZ0IiCUmhWA47+69s3mOiP0BQLAlp7/zVldSxfP+HIUNR0kaX7oPEAINSsAvVHyD+KmHEBasTIn6el7pv956aLSsSb7rKSVofMA9VSTAnDs5S+PkvzjoS8O2IJL/ufQIZA25ksWlb5TKDQdIOmG0GmAeqlJAfBKy6ckjQh9ccBmnnLpuGE9ww+WseSrBnoXQF899fPpzy5ddMbpLjtL0iuh8wC1VvUCUIy94PLPhr4w4DVm5e6o99AF5w+/86Z2WzOse9iplABsy7JFpf+pqOlQSYtDZwFqqeoF4KXfrz1Nsv1CXxigxF9ws6nzzxtWuudLO7/2io4SgB15dtH0p5a27PZ+SV+RlITOA9RC1QuAR8k5oS8KkGl2d1PlgAXnDfvJ1n57Uwlw08LQUZFSC6f0Ll10RrvLjpP0bOg4QLVVtQBMuXz1u8w1OfRFoYG5uuX2mfnnDT9z81f9W3NTu60Z3j3sZEoAtmfZotL85krlUJduD50FqKaqFoCowt4/wvHEl3oUvX/+BcO+29eP2VQC2A7A9jxx/5nPLxtnJ8r9a6GzANVStQIwuf2F4S6bEfqC0Jjck5tbKsm7Fpw39P7+fixnAtAn5VJl6eIZ/2SuM8UdBJEDVSsA1jzsTEkjQ18QGk5F0hcXnD/i1J+1j3p5oJ+EMwHoqyWLz5jtsmNkei50FmAwqlcA5GeHvhg0FpfWmtlfzT9/+BUyG/T72tkOQF8tW1RarMQOk+yXobMAA1WVAnDMZV3vlfTu0BeDxuHuzxUiO/LO84b9tJqfl+0A9NXSxaVlPavXTTbXTaGzAANRlQKQVHj1j/px94e9ufDeO7407Fe1+PyUAPTV8785q2vJeDtd0g9DZwH6a9AFYHL7C8PNjKf+oS7cKzc3tw4/YuG5Q5fW8utwJgB9Vi5Vli4qfcrl/xY6CtAfgy4AhZah0yUfHvpCkH8u/87Yt42cetsXrKseX4/7BKDvzJctmvGPkr4YOgnQV4MuAO76WOiLQP4lleRfF5w/4rPlklXq+XVzfDCQhwHVwNJFZ1xh8r8Vtw9GBgyqAHzw4rX7SPpA6ItA7l2x8J9HfiHUF+dMAPpjyaIZ/2muvxElCyk3uBWAKPnooD8HsD1mF84/f3jwZVVKAPpjyeIzfigzSgBSbXDD2/3DoS8AOeUuuf5h/nnDLg4dZRNKAPpj6b2lH7j750PnALZlwAVg8sVrjpB0QOgLQA65K4mi/zP/guHfCB1lSzl6d4CFDtAIli2e8Q2ZfTl0DmBrBlwAoohX/6gNdz9v4XnDZoXOsS05ORjI0nSdLL23dJG5LgudA9jSgApAe7tHcp8WOjzyp9Lb+7UFF45M/Q9LtgPQH0sWn3Geufr8lEqgHgZUAH7evPoDkvYMHR754pXeH9715Z3/KXSOvqIEoD+WtO72d3K7JXQOYJMBFYBE4s5/qKpKT+9tYw8Y9enQOfqLEoA+Wzild13UeoakX4eOAkgDKACT273JZCz/o2oq69f/cjeNOrXeN/mplhwdDESNLb936iqz5CRJNb2VNdAX/S4AUWvXByXtGjo48iHp7X3Ooui4crt1h84yGDk5GIg6WHLvzGcST06TtDp0FjS2fhcAr6gUOjTywSvJuubI3r+wfZdXQ2epBlYC0FfPLJ75KzP7sLhlMALqVwFob/fITKeEDo3sc3eXFabffuGoP4TOUk2sBKCvltxb+olLl4bOgcbVrwJwT9OqSZJ2Dx0a2Zd095y74MJh80LnqAUOBqKvli167MuS3RY6BxpTvwpAomhq6MDIvt51635y10WjvxY6Ry1RAtA37UmPmj4qaVnoJGg8/TsDYDotdGBkW+/69U/vXhhTDJ2jHigB6IvnF017wc3bJGX6ICyyp88F4NivrnqHpLeFDozs8sR7C83Nx2f9xH9/UALQF8vunXGfuc4PnQONpc8FICkYy/8YlN5K92cWXDjyd6Fz1FtKSwDPAkiZJYtLX5eUy3MxSKe+bwG4cfofA9azpuvGn7eP+a/QOUJJ4VsEeRpg6pibJX8j6eXQSdAY+lQAJre/srPkh4cOi2zqXd+9fOfm3c4MnSO0lL1FkBWAFFpy78xn5PZ3oXOgMfSpAFhT0zGSmkKHRfZ4UnHvXXfCTe22JnSWNEjRSgArACm1dHHpWjMrh86B/OtbATB9KHRQZNP6Vau/8/NL93wwdI40SclKACsAKVZp7v2sS8+HzoF86+MZADs+dFBkT++6dS+sf8uefx86Rxql9GAgUuKZhWcuj8wy93RMZMsOC8DGt//tHToossXlbrK/euBs6wmdJa0oAdieJEkSSZl8QiayYYcFIDE7IXRIZM+6FauuvuurYxaHzpF2lABszbiJc04xs05JhdBZkF992QI4LnRIZEvP2rUrdx6/x9mhc2RFoIOBHAJMqfFHzjlx4yHAltBZkG/bLQDF2AsyHRU6JLLD3bV+ZdfHbznH1ofOkiWbDgbWsQRwCDCFxh8550S5XSdpSOgsyL/tFoAXf7/mUEkjQ4dEdqx79dWHfnHlvteHzpFFKXl3AAJh+KPetlsACuYfCB0Q2ZFUKq7K+oZ40E+tcCagMTH8EcJ2C4DL3x86ILJj7Ssvz13872/9Y+gcWUcJaCwMf4SyzQLQ3u6RZEeGDohsSHp7Xoq07ydD58gLSkBjGDdxzilyu0EMfwSwzQJw15CugyWNCR0Q2WCFprMX/7utDZ0jTygB+cZpf4S2zQJgvX506HDIjLsXXDCiM3SIPErRswNQRSz7Iw22fQbAbGLocMgGs+SC0BnyjHcH5AvDH2mxnUOAfkTocEg/N91x53kjfx46R96xHZAPDH+kyVYLwNGXrtpVsv1Ch0P6WeJfDZ2hUVS1BBg3Aqo3hj/SZqsFoDmJePWPHXLTHfMvGHF36ByNhJWAbGL4I422vgVgyeGhgyH9ePUfBiUgWxj+SKttnAEwVgCwI3fy6j8cSkA2MPyRZm8sAO4m6bDQwZBuLl0WOkOjG9RbBJ2nAdYawx9p94YC8MGLV+wnaVToYEgx0yMLzhvGK88UGPBbBDkEWFMMf2TBGwqAW+GQ0KGQbu52pcwYICnBdkC6MPyRFW8oAJHpXaFDIdVebW4Z+uPQIfB6lIB0YPgjS964AiA7JHQopJdJ37/tC9YVOgfeiBIQFsMfWbOVAqBDQodCaiWFpPCd0CGwbZSAMBj+yKLXFYAT2leMNmmv0KGQTia/6bYLd3oidA5sHw8Qqi+GP7LqdQWgtzli/x/blHh0VegM6JtN7w6gBNQWwx9ZtuUWwIGhAyG1Xh4ycuitoUOg73iKYG0x/JF1rysAbtEBoQMhrWzuLefY+tAp0D+cCagNhj/y4PUrAO7vCB0I6eRW4a1/GUUJqC6GP/Jiyy0ACgC25skFXxqxKHQIDBwloDoY/siT1wrAie0vjZS0R+hASB93v5o7/2UfJWBwGP7Im9cKwPqmnQ6QeEAI3sgjnx06A6rjtbcIui0MnSVLGP7Io9cKgFvCAUBsze8Xnjfy8dAhUD03tduaD/QMPSd0jqxg+COvXisAJt8vdBik0k2hA6D62tstCZ0hCxj+yLPNCoC9OXQYpI/Jbw6dAQiB4Y+8+8sWgEQBwJZWvDp2+D2hQwD1xvBHI2ja7J8pAHgdN936wNnWEzoHUE8bh//1klpDZwFqKZKkYru3SNozdBiki0ks/6OhMPzRSCJJerWwch9t5dHAaGje1O0/Cx0CqBeGPxpNJElJVNg3dBCkzuO3tY94IXQIoB4Y/mhEG171m+0dOghSxp3Df2gIDH80qg0rAM7+P17PIrs3dAag1hj+aGSRJBnPAMAWKlahACDXGP5odBsLQMIKADb3/MIvjfpj6BBArTD8gY0FwGUUAGyG5X/kF8Mf2GDTW//YAsBfuC8OHQGoBYY/8BdRe7tHkt4UOgjSw0y/Dp0BqDaGP/B60Z0tq8fo9bcERoOLmuyR0BmAamL4A28UFeRjQodAqrxy+7nDngkdAqgWhj+wdVGUaHToEEiVh0MHAKqF4Q9sW2RRgQKAzTjL/8gFhj+wfVHiTgHAX7goAMg8hj+wY1Ek7RI6BNLDjAKAbGP4A30TiUOA2IwVmv4UOgMwUAx/oO8it4gVAGySvLLLkGdDhwAGguEP9E8k9+GhQyA1nnvgbOsJHQLoL4Y/0H+RzIaFDoHUWBY6ANBfDH9gYCIlTgHARr40dAKgP/Y8au6pcrtBDH+gX9zNmmSiAGCjiAKAzBh/5JwTlagsqSV0FiB7vCkyUQCwibMFgExg2R8YtJbIpaGhUyAd3Oyx0BmAHWH4A1XREokVAGywZnj30DtChwC2h+EPVE1LZOyfYYPFN7XbmtAhgG1h+ANV1Rq51BQ6BcIz6cHQGYBtYfgD1eUbtwAKoYMgPDex/49UYvgD1WcbC0Bz6CAIz1y8BRCpw/AHaoYVAGxgFT0XOgOwOYY/UFMtkTgDAElqbuoKHQHYhOEP1FxrkygAkGRRZV3oDIAkjZ8Yj1aSnCTzH4XOAuSVmbm1f/8+N7M3/KZL6q5svxu4InUn299BqLipd4d/JlKv17uHmNYn2ek+zdaryLxmn//wXX73N6OGrFkhSWbWmiRJvW4QVTCzkXX6WjKznd3dBv+Z+mS4mTW7e4+7f6VUKr1Yr+sEgB1pOmDUMypYJXQOhPf9Tf/g7tpaKcwD99qVqG18vYqZfbRYLDL8AaRKVKnbiyGg4VTM7KNtbW2zQwcBgC1FiUf1fUkENAaGP4BUixJWAIBqY/gDSL2o4jU8WQY0HoY/gEyIErEFAFQJwx9AZkSJF5LQIYAcYPgDyJQokSgAwOAw/AFkTuQJNwEABoHhDyCTokTWGzoEkFEMfwCZ1eRGAQAGoMfMZra1tXWGDgIAAxFZkrAFAPRPxcw+xvAHkGWRmSgAQN+x7A8gF6LInC0AoG8Y/gByIzI5KwDAjjH8AeRKZKwAADvC8AeQO1HBvDt0CCDFGP4AcimKLOkJHQJIKYY/gNyKInMKAPBGDH8AuRYVxAoAsAWGP4DciyIKALA5hj+AhhAVogoFANiA4Q+gYUSRibcBAgx/AA0mCh0ASAGGP4CGQwFAo2P4A2hIFAA0MoY/gIZFAUCjYvgDaGgUADQihj+AhkcBQKNh+AOAKABoLAx/ANiIAoBGwfAHgM1QANAIGP4AsAUKAPKO4Q8AW0EBQJ4x/AFgGygAyCuGPwBsBwUAecTwB4AdoAAgbxj+ANAHFADkCcMfAPqIAoC8YPgDQD9QAJAHDH8A6CcKALKO4Q8AA0ABQJYx/AFggCgAyCqGPwAMAgUAWcTwB4BBogAgaxj+AFAFFABkCcMfAKqEAoCsYPgDQBVRAJAFDH8AqDIKANKO4Q8ANUABQJox/AGgRigASCuGPwDUEAUAacTwB4AaowAgbRj+AFAHFACkCcMfAOqEAoC0YPgDQB1RAJAGDH8AqDMKAEJj+ANAABQAhMTwB4BAKAAIpcfMzmD4A/0Tx/H/jeO4EDoHso8CgBAqZvaxtra2ztBBgCyJ4/h0M/uWmf2gvb2dn98YFP4Cod5Y9gcGYN68ea1mdsXGf/3YQQcdRAnAoPCXB/XE8AcGaPXq1f9P0v6b/t3dPz5hwoTvUwIwUPzFQb0w/IEBiuN4nJl9cSu/9UlKAAaKvzSoB4Y/MAgbl/6Hb+O3PzlhwoRZ7m6hcyJbKACoNU77A4MQx/FRks7cwR/7VEdHx7coAegPCgBqKTGzmZz2BwYmjuOdzOy/JPVlsP9tR0fHNygB6CsKAGopSpKkNXQIIKvM7CJJb+/Hh5zT2dn576FzIxsoAKgpM/t2Z2fn+NA5gKyJ4/h9kv6hvx/n7p8rl8uUAOwQBQC1tnOSJD9gWRLou3nz5rVK+oGkgd7x7+/L5fK/hb4OpBsFAPVwfGdn5ydChwCyoqur65/N7KBBfpp/KJfL/xr6WpBeFADUhbv/exzHe4fOAaRdR0fHYZL+qUqf7h/L5fIloa8J6UQBQL2MNLMfcsMSYNviOB4laY6kpip+2vPK5fJFoa8N6cMPY9TTMRMmTDgvdAggraIo+k93f0sNPvWF5XL5y6GvD+lCAUC9faVcLh8fOgSQNh0dHX/r7ju64c9gtMdx/M+hrxPpQQFAvUWS/ieO43GhgwBp0dHR8U53/1qtv46ZfaVcLl8Q+nqRDhQAhLCbmZVnzZrVHDoIEFocx8PdPZa0U52+5FfjOD4/9HUjPAoAQpk4ZswYTiejoW28P8Z/q393+xs0M7s4juMvhL5+hEUBQDDu/v/K5XIxdA4glM7Ozq+a2fQQX9vM/iWO48+H/h4gHAoAQjJJV8dxPDF0EKDeOjo6Su4e9F0xZvb1crl8bujvBcKgACC0IWb2kziO3xo6CFAvHR0dh7n7f6tvT/mrtcs6OjrOCR0C9UcBQBqMjaLoJz/+8Y93CR0EqLXOzs593P2nqt+hvx0xd/9GHMf/N3QQ1BcFAKng7u9oaWnhnQHItWuuuWZkkiQ3Sdo9dJYtmJldGcfxZ0IHQf1QAJAmx4wePXoWTw5EHsVxvFNra+tPJB0cOss2mJl9O47jT4cOgvqgACBtPtHR0fGN0CGAapo1a1azmZUlfSB0lh0wM/suKwGNgQKANDqno6Pj66FDANUQx3FhzJgx/yPp5NBZ+sjM7Nvlcvns0EFQWxQApJK7f567lSHr3N3M7LvufkboLP1kkr7DdkC+UQCQWmZ2cblcrtZz0YG66+jo+JqkT4XOMUBmZt8pl8tnhQ6C2qAAIO0uL5fLnw0dAugPd7dyufxNSf8YOssgRZJ+WC6XPxw6CKqPAoC0M0n/wUoAsiKO40JnZ+f3JeXl5joFST/q6Oj4SOggqC4KALLAJF1RLpcv5y2CSLM4jlvMbLa7/3XoLFVWcPf/juP4zNBBUD0UAGTJuR0dHVctWLCgKXQQYEvz5s1rNbNYUl4fcFUws6s7Ojpmhg6C6qAAIGs+9uKLL5avuuqqIaGDAJvEcTy8q6vrZklTQ2epsYK7/0+5XJ4ROggGjwKAzDGzvxo2bNgNN95444jQWYDOzs59zOxeSceEzlInBUlXd3R0/FXoIBgcCgAyycxO6Onp+eWcOXPeFjoLGldnZ+cRSZLcJ+mdobPUWbO7x+VyOe8rHrlGAUBmufvbCoXCos7Ozimhs6DxdHR0lJIkmS/pTaGzBNIsKY7j+LTQQTAwFABk3ZgkSW7jUaaol43v8T/X3ecoPY/0DaXFzModHR2nhg6C/rNyufwzSceHDgJUwZVjx479xylTpvSGDoJ8iuN4uJldJaktdJaUWWdmf9XW1vaz0EHQd6wAIE/OWb58+e1xHI8LHQT5c911173LzH4phv/WDHH3G8rlMi8mM4QCgLyZbGYPlcvlU0IHQX6Uy+WzKpXKIklvD50lxYZIuqGzs/PY0EHQN2wBIK9c0rfc/QulUqk7dBhk04033jiiu7t7liRuftN3a939lFKpND90EGwfKwDIK5N0jpndO2fOnLeEDoPs6ejoOLS7u/sBMfz7ayczu6lcLk8OHQTbRwFA3h1WKBQeLJfLn+I5Auircrn8WXdfJGn/0Fkyaqikn3Z2dr4/dBBsG1sAaCQ/r1Qqn5oxY8bvQwdBOl1zzTUjW1tbZ0niVrfVsUbSycVicWHoIHgjVgDQSI4uFAoPxnH8ufb2dv7u43XK5fKk1tbWX4nhX01DJf2kXC5PCh0Eb8QPQTSaYWb2jQkTJtwTx/GBocMgvAULFjSVy+VzJS2UtF/oPDk0QtJtbAekDwUAjWqimT3Y0dFxGQ8ValzXXXfdQS+++OL9ki7XhlvbojaGJUnyk46OjsNDB8FfcAYAkJa7+8WS/qNUKlVCh0HtzZo1q3n06NGfl/QVSa2h8zSQFe5+fKlU+kXoIGAFAJCksWb2DUm/KJfLR4cOg9rq7Ox8/+jRo3+rDa/6Gf71NcrMbo3j+D2hg4AVAGBryu5+XqlU+mPoIKieOI7HRVH0L+4+UxvuE4FwXjazY9va2n4VOkgjowAAW9cr6cfufjFFINvmzZvX2tXV9XlJ50saFjoPXvOSux9bKpUeCh2kUVEAgO1LJHW6+4WlUul3ocOg79rb26MJEyZMN7PL3J27QabTK+5+XKlUeiB0kEbEGQBg+yJJRTN7uFwu/2jOnDlvCx0I2+fuFsfx6RMmTPitpJjhn2q7mNktcRwfHDpII2IFAOifxN3nR1F05fTp039qZh46EDZob2+PDjrooJOTJLnQzN4bOg/65cVCofDBadOmPRw6SCOhAAAD9zsz+1Zzc/PVU6dOXRU6TKPa+Ja+mZK+JOmA0HkwYM9XKpUpM2bMeCx0kEZBAQAGb6WZXZUkyfdKpdKjocM0iuuuu2633t7evzGzz0gaFzoPquI5M5vS1tb2eOggjYACAFSRuz8YRdE1ZjZn+vTpz4bOk0cdHR2Hu/tntOGe/byPP3+edfcpHLqtPQoAUBuJuy+WdHVra+tstggGJ47j0ZLaNr7aPyR0HtQc2wF1QAEAaq9L0m3ufnOhUJjHykDfbHw076mSSpJOFPfqbzRLN64EcB+OGqEAAPXlkh6QdHMURTdPmzbtl7yT4C/iOB5tZqe4e5uZHS+W+BuamS0xs8nTp0//c+gseUQBAMJ6TtLdZnavmd0zevTo30yZMqU3dKh62fjWvXe7+4e04VX+4ZIKoXMhVZ5298mlUumJ0EHyhgIApMtqd7/PzO5193ubmpoenDZt2kuhQ1VLHMcFSQeb2dGSjpI0WdJuoXMh9Z6KougD06dPfyp0kDyhAADp95y7PxxF0SOSHkmS5GFJj5ZKpRWhg+3I7Nmz9y0UCoea2aGSDpN0pKSRoXMhk57YuBLwdOggeUEBALLrOUlLJS2T9LSkZWa2zN2f6u3tfXLmzJlL6hEijuNCoVDYx933T5Jk/yiK3u7u75D0bkm7hP4mIVf+3NvbO7lef7fzjgIA5NejZnarpF9K+s26deuWfOQjH1nZlw90d7v22mt3HjJkyC6SdpY0yt1HSxrn7uMk7SlpvJnt6e77SmoJfbFoGH+MomjK9OnTl4YOknUUAKCxdJnZy+7es/Gfh7q7bfy9EZKatOEQHsv0SLM/bFwJeCZ0kCzjaYBAYxnm7ntJ2k/SwRuflLffxl+7asOSPcMfabd/U1PTwtmzZ+8ZOkiWUQAAAFm0f3Nz8wJKwMBRAAAAmeTub2tqaprf2dm5R+gsWUQBAABk2duTJFkQx/GbQgfJGgoAACDr3m5mlIB+ogAAAPLgADP72bXXXjs2dJCsoAAAAPLinU1NTXdcd911Y0IHyQIKAAAgN8zsXZVKhRLQBxQAAEDeHFKpVO6I43h06CBpRgEAAOTRIWZGCdgOCgAAIK8OlXT7j3/8Yx5KtRUUAABAbpnZu5ubm+ddc8013OJ6CxQAAECumdkRra2tt954440jQmdJEwoAAKARTOzu7qYEbIYCAABoFJPWr19/CyVgAwoAAKBhmNmR3d3d8+I4Hh46S2gUAABAoznKzBq+BFAAAACN6GhJN1999dXDQgcJhQIAAGhIZvb+nXba6fo4jncKnSUECgAAoJEdZ2Y3XHXVVUNCB6k3CgAAoNEdP2zYsIYrARQAAEDDM7MThg8ffn0jlQAKAAAAG3xo+PDh182bN681dJB6oAAAAPAXJ65evbohSgAFAACAzZjZSV1dXbNnzZrVHDpLLVEAAAB4o9NHjx49J88lgAIAAMDWTRs9evS1CxYsaAodpBYoAAAAbFvb8uXLZ+exBFAAAADYvqNfeeWV0aFDVBsFAACAbet19zOmTZv2Qugg1UYBAABg275QKpXuCh2iFnK3pwEAQDWY2dy2trZvhM5RK6wAAADwRo+vW7fu06FD1BIFAACA11tRqVSmfuQjH1kZOkgtUQAAAPiLRNJHZsyY8fvQQWqtEQpA969f2fepxBvhUgEAg/RPxWLxp6FD1EPep2K3uxfvefUdR9zzwoEvhw4DAEi1q4vF4tdDh6iXPL8LoNvdi6VS6SeSFF3SddzIlq77Dtnlidze1xkAMGCLhg0blutDf1vK6wrA64a/JM0/f9iDv3hx/08+sXq30NkAAOnyVE9Pz7STTjppfegg9ZTHAtAtafrmw3+T288fdc1dzx986fL1I0NnBACkw8pCoTD1zDPPfD50kHrLWwHoljR9ewc4bj53lwvueObgzjWVIaGzAgDC6pFUnDZt2q9DBwkhTwWg292LOzy9aeZPjtpj5m3PHHr/+kqej0AAALbDJZ1dLBZvCx0klLwUgDfs+W/PA2dbz/PdQ0+Y//yhT1R4eyAANKKvFIvFq0KHCCkP069fw3+TO744esWTK3c+7q7nD1rpoa8AAFBPP25ra7sodIjQsl4Atnngry/mX7jzn36/ctzRv3xp/3WhLwQAUHvu/rOXX375E2bW8K/9slwAdnjgry/uPH/4bx546S0nPbpi70roCwIA1NT9ktrOPvvsntBB0iCrBaBvB/766M7zRyy458V3FP+4ao+Gb4QAkFOPFAqFk0ul0urQQdIiiwVgQHv+O3L7l0ZeP//Zg//uqS5uFAQAeWJmS9z9pGnTpr0UOkuaZK0A1GT4b3L7+aO+Pf/5d132zNrRoa8TAFAdLyZJclypVHo6dJC0yVIBqOnw32TeuTufd9szh37rhXWjQl8vAGBwVpjZCaVS6Xehg6RRVgrAoE7799fN5+7yudufOeRHr3YPD33dAICBWeXuJ7a1tf0qdJC0ykIBqOqBvz4x80PW7vrJny59T8crlAAAyJo1kk4rlUqLQwdJs7QXgLos+29Ne7slLW/edcbNSw+7gZUAAMiMNVEUnVIsFheGDpJ2aS4AwYb/JuWSVZbuPLZ0y7Pvvn1lz9DQ3w8AwPatdfdTp0+fviB0kCxIawEIPvw3eeBs63l59W6n3bz0PQsoAQCQWuvNrK1UKs0PHSQr0lgA6nrgry8Wttu6wprdP3TLsvfctooSAABps9bMpra1tc0LHSRL0lYA6n/gr4/K7dZtXbuf+tOl75v38nrOBABASnRJOrWtre1noYNkTZoKQGqW/bel3G7dhX3Hnjbvmfd0vrR+ROg4ANDoVkg6vlgs3hk6SBalpQCkfvhvUi5ZpWXfXc/46ZL3zn1+3c6h4wBAo3rFzE4oFouLQgfJqjQUgMwM/03KJavs9JbRH7512aHXPrd259BxAKDRvGBmk9va2u4PHSTLmgJ//W4zaysWizeF/kb0V7lkFbl/JLnisBeP2+NXnxs/lGdMAEAdPG1mJ7S1tT0eOkjWhVwB6Hb3YltbW+aG/2vMfN4Xd/n7W5999/l/WrVH6DQAkGtm9lhvb+9RDP/qCFUAMrfsvz0/++LOl97+/Lv+9tevvtlDZwGAnPpFd3f3+2fOnLkkdJC8CFEAcjX8N7nzSyP+c9HzB3z4/uVvq4TOAgA5c7u7H3PmmWcuDx0kT+pdALollfI2/DeZf8Hw2b969S2nLHjuoPWJW+g4AJAH17z88ssnl0ql1aGD5E09DwF2m1lbpvf8++DOLw2/1S5a/d7epGnBlD0eHtNkvaEjAUBWXdrW1naBmbG9WgP1WgHollTK+/Df5I5/Hv7bP64a966fLHnv71f3DgkdBwCyptfMPlMsFs9n+NdOPQpAt6RSsVi8MfTF1tP8C4Yue3bVsMNvXHL44uXrR4aOAwBZsUrSaW1tbd8NHSTval0AGnL4b7KwfZdX1w/ZdcpNSw+Pn+raLXQcAEi7pYVC4ehisXhL6CCNoJZnABpiz39HbjnH1st9RnL5oQ9N3PWxSw4c9TSnAwHgjX7R09NzWrFYfD50kEZRqwLQUHv+O2Tmt0qX9Vy66g/L14245qjdH2uNlIROBQBpMWfIkCF/XSwW14QO0khqUQAaetl/e+48b0RHcvnqP7zaPezW4/Z46E07NXWHjgQAIVUknV8sFq8IHaQRVfsMAMN/BxZ8cfivl6zc5eDrlh5x/4vrR4WOAwChrDSz0xn+4VSzADD8+2hh+8jlr3btNvmmpw+79k+rdg8dBwDqysx+b2aHs00cVrW2ADjw108L222dpA93X9p19/L1f/j2+8b+sWDi7a4Acu+65ubmj0+dOnVV6CCNrhoFgAN/g3DnecNmJZd1/fLFdaNunvKm3+4+rGl96EgAUAu9ki5oa2v7F27ukw6D3QJg2b8KFnxp2ANPrRhz0HVLj7x72ZoxoeMAQLUti6JocrFYvILhnx6DKQAM/ypa2D5y+cqu0cfcvOywf/v9yj0eldgPAJALC939sOnTp98bOghez8rl8s8kHd/Pj2PPv8Y6Ojqmu/t/Sdo5dBYAGIBE0qXu3l4qlXhMegoNZAWAPf86aGtr6+zt7X2npJ+HzgIA/fS8u59cLBYvZPinV38LAMv+dTRz5swl7j5F0le04YYZAJB2t7n7IaVS6dbQQbB9/XkXAMM/gI3tub1cLi+UdI2kcaEzAcBWrHP3LxaLxSs56JcNfV0B6DazNoZ/OMVicWFPT88hkq4PnQUAtvCIu7+vVCp9k+GfHX0pABz4S4kzzzxzebFYnGZmH5e0InQeAA0vkfQNd39vqVT6begw6J8dFQAO/KVQW1vbj9z9nZLmh84CoGE9FUXRscVi8R9KpdLa0GHQf9srAOz5p1ipVHq6ra3tWHc/W1JX6DwAGoeZ/U9LS8vB06dPXxA6CwZuW4cAWfbPgI17bd/r6Oi4291/KGli6EwAcu0ZM/ubtra2eaGDYPC2tgLA8M+Ytra2xx955JGj3P3vxWoAgOpzST/s7u4+iOGfH1veCZBl/4ybPXv2vk1NTbPU/7s7AsDW/Nnd/0+pVLo9dBBU1+YrAAz/HJg5c+aTxWLxBEklSctD5wGQWb2Srly7du07Gf75tKkA8D7/nCkWi2V3P1jSj8WDhQD0zy/d/b3FYvFzZ511FtuKORWJt/rlVqlUeq5YLH4kiqLJkh4JnQdA6r3q7n/v7keUSqWHQodBbdns2bP3nTlz5pOhg6C24jhukfR5M7tQ0tDQeQCkiku6ulAo/NO0adNeCB0G9WGhA6C+Ojs790mS5JuSpobOAiA8d/91oVD42+nTp98bOgvqiwLQoOI4Ps7M/l3ShNBZAATxqpl9ecyYMf85ZcqU3tBhUH8UgAbW3t4eTZgw4SOSviZpt9B5ANRFr5n9MIqiC1nub2wUAOj666/fube394uS/l5Sa+g8AGrD3e+Q9Hke3AOJAoDNdHR0HJAkyWVm9lehswCoqt9EUfSP06dPvyN0EKQHBQBvEMfxREmXm9n7Q2cBMHBmtiRJkq9I+u9SqVQJnQfpQgHANnV2dh6bJMnXJB0SOguAfnlJ0tfc/Uoe1YttoQBguzY7KPhlSfuFzgNgu1ZK+reWlpZ/mzp16qrQYZBuFAD0yaxZs5p32WWXs8zsfElvDp0HwOusMbPvdnd3X3bmmWfyDBD0CQUA/TJr1qzm0aNHz5R0oaS3hs4DNLguST/o7e29YubMmc+EDoNsoQBgQDbeWvjjURR9yd33DZ0HaDArzexb3d3d3+AVPwaKAoBBWbBgQdNLL700w93/SdLBofMAOfeKpG92d3df+eEPf/iV0GGQbRQAVE0cx0eZ2bmSTgmdBcgTM3vS3b/b1NQ06/TTT381dB7kAwUAVdfZ2XlkpVI518xO1oZHTgMYmAck/evYsWM7uF8/qo0CgJrp6OjY393/TtLHJY0InQfICJc0T9K/FovFhaHDIL8oAKi5G2+8ccT69etnmtk/SDogdB4gpVaa2RxJV7a1tT0SOgzyjwKAumlvb48OOuig09z9s5KOFX//AEn6raRvr1279pqzzjqrK3QYNA5+ACOIOXPmvKVQKHxaG7YHeBQxGk23pBuiKPr29OnT7w4dBo2JAoCg4jhuMbOp7v5pMztG/J1Evv1O0lWFQuGqadOmvRA6DBobP2yRGh0dHftL+pi7f1TS3qHzAFWyysziJEl+UCqVFocOA2xCAUDqtLe3RwceeOBkM/uYpGmShofOBPRT4u53RVF0TZIkcalUWh06ELAlCgBSLY7j4WY2TdJHJH1QUiF0JmBb3P1BM7vW3eeUSqVlofMA20MBQGbEcbxrFEXT3f0MSUeLMoB0+KOk2WZ2bVtb2+OhwwB9RQFAJnV2du5RqVSmm9kZkiaJOw6ivh6RdJ27X1cqlR4KHQYYCAoAMu/aa68d29zcfJI2PIPgRHFmALXxqKRypVKZO2PGjMdChwEGiwKAXLnpppuGrl279oQoik5z91MkjQ2dCZnV5e7zoyialyTJvFKp9HToQEA1UQCQWxvfTXComR3r7sea2fsltYTOhVT7s5ndIemnq1atuv0Tn/jEutCBgFqhAKBhXH/99TtXKpVj3P0EScdL2id0JgS3XNJCd58v6fZSqfTH0IGAeqEAoGHNnj17z6ampiM3rhAcJenA0JlQc13uvtjM7nD3Ox599NFftbe3J6FDASFQAICNOjs790mS5AOSPiDpCG14ciHvLsi2pyXda2b3SVo0ZsyYh6ZMmdIbOhSQBhQAYBviOB4l6X1mdrikTb92DZ0L27RG0q8l3S9pkbsv4mY8wLZRAIB+6Ozs3K9SqbzbzN4l6ZCNv8aHztWAVrr7Q2b2oLs/GEXRg0mSPF4qlSqhgwFZQQEABunaa68d29raekiSJIdIeoe7H2hmb5e0S+hsObBO0mOSHpf0sKTHzey306dP/6OZeehwQJZRAIAaufbaa3dvbW090N3fLukAd3+rpDdL2k/SkND5UqRXG/bq/yTpz+7+J214bO6jkp7gVT1QGxQAIIDOzs49kiR5s/5SCPaWtIekcZLeJGl35ef/z1ckPSNpmaRnJS0xs2Xu/udKpfKnFStWPH322Wf3hA4JNJq8/IABcmXBggVNL7744u7aWAjMbIyk0Zv9GrPx1y6SRkkaKqlVtd12WKUNS/Kr3H2Vma2S9JKkl8zsJXdfbmbLJb3s7i+Z2XNJkiwtlUprQ38/AbwRBQDImauuumpIS0vLTlEUjWppaYncvSVJkmGb/5lCofBaUXD3VUmSbP7WuO5CodAlSWa2ulAorJ06deqq0NcFoLr+P+VWqS2dzDZYAAAAAElFTkSuQmCC;" parent="1" vertex="1">
          <mxGeometry x="165" y="418" width="70" height="70" as="geometry" />
        </mxCell>
        <mxCell id="H-b20srUGd8yj_HJ04RQ-92" value="" style="edgeStyle=orthogonalEdgeStyle;html=1;endArrow=block;elbow=vertical;startArrow=none;endFill=1;strokeColor=#545B64;rounded=0;entryX=0.5;entryY=1;entryDx=0;entryDy=0;" parent="1" target="H-b20srUGd8yj_HJ04RQ-91" edge="1">
          <mxGeometry width="100" relative="1" as="geometry">
            <mxPoint x="200" y="570" as="sourcePoint" />
            <mxPoint x="300" y="522" as="targetPoint" />
          </mxGeometry>
        </mxCell>
        <mxCell id="H-b20srUGd8yj_HJ04RQ-93" value="reCAPTCHA v3" style="text;whiteSpace=wrap;fontSize=10;" parent="1" vertex="1">
          <mxGeometry x="163" y="395" width="80" height="20" as="geometry" />
        </mxCell>
        <mxCell id="H-b20srUGd8yj_HJ04RQ-104" value="javisitei.com" style="text;strokeColor=none;fillColor=none;html=1;fontSize=39;fontStyle=1;verticalAlign=middle;align=center;" parent="1" vertex="1">
          <mxGeometry x="40" y="69" width="292" height="83" as="geometry" />
        </mxCell>
        <mxCell id="H-b20srUGd8yj_HJ04RQ-25" value="" style="shape=image;html=1;verticalAlign=top;verticalLabelPosition=bottom;labelBackgroundColor=#ffffff;imageAspect=0;aspect=fixed;image=https://cdn4.iconfinder.com/data/icons/ionicons/512/icon-social-github-128.png" parent="1" vertex="1">
          <mxGeometry x="1025" y="955.25" width="28" height="28" as="geometry" />
        </mxCell>
        <mxCell id="H-b20srUGd8yj_HJ04RQ-82" value="Github Actions" style="text;strokeColor=none;fillColor=none;html=1;fontSize=12;fontStyle=0;verticalAlign=middle;align=center;" parent="1" vertex="1">
          <mxGeometry x="1073" y="960.25" width="44.3" height="20" as="geometry" />
        </mxCell>
        <mxCell id="H-b20srUGd8yj_HJ04RQ-30" value="" style="shape=image;html=1;verticalAlign=top;verticalLabelPosition=bottom;labelBackgroundColor=#ffffff;imageAspect=0;aspect=fixed;image=https://cdn1.iconfinder.com/data/icons/social-media-2106/24/social_media_social_media_logo_docker-128.png;fontColor=#29c2e0;" parent="1" vertex="1">
          <mxGeometry x="1069.3200000000002" y="849.25" width="83" height="83" as="geometry" />
        </mxCell>
        <mxCell id="H-b20srUGd8yj_HJ04RQ-87" value="Docker Hub" style="text;strokeColor=none;fillColor=none;html=1;fontSize=10;fontStyle=0;verticalAlign=middle;align=center;" parent="1" vertex="1">
          <mxGeometry x="1085.17" y="930.25" width="44.3" height="20" as="geometry" />
        </mxCell>
        <mxCell id="H-b20srUGd8yj_HJ04RQ-33" value="" style="edgeStyle=orthogonalEdgeStyle;html=1;endArrow=open;elbow=vertical;startArrow=none;endFill=0;strokeColor=#545B64;rounded=0;exitX=0;exitY=0.5;exitDx=0;exitDy=0;exitPerimeter=0;entryX=1;entryY=0.5;entryDx=0;entryDy=0;" parent="1" source="H-b20srUGd8yj_HJ04RQ-26" target="H-b20srUGd8yj_HJ04RQ-30" edge="1">
          <mxGeometry width="100" relative="1" as="geometry">
            <mxPoint x="1462.17" y="813.6600000000001" as="sourcePoint" />
            <mxPoint x="1562.17" y="813.6600000000001" as="targetPoint" />
            <Array as="points" />
          </mxGeometry>
        </mxCell>
        <mxCell id="H-b20srUGd8yj_HJ04RQ-62" value="&lt;p style=&quot;line-height: 100%;&quot;&gt;&lt;br&gt;&lt;/p&gt;" style="fillColor=#EFF0F3;strokeColor=none;dashed=0;verticalAlign=top;fontStyle=0;fontColor=#232F3D;whiteSpace=wrap;html=1;" parent="1" vertex="1">
          <mxGeometry x="818" y="527" width="144" height="461" as="geometry" />
        </mxCell>
        <mxCell id="H-b20srUGd8yj_HJ04RQ-14" value="" style="sketch=0;points=[[0,0,0],[0.25,0,0],[0.5,0,0],[0.75,0,0],[1,0,0],[0,1,0],[0.25,1,0],[0.5,1,0],[0.75,1,0],[1,1,0],[0,0.25,0],[0,0.5,0],[0,0.75,0],[1,0.25,0],[1,0.5,0],[1,0.75,0]];outlineConnect=0;fontColor=#232F3E;gradientColor=#945DF2;gradientDirection=north;fillColor=#5A30B5;strokeColor=#ffffff;dashed=0;verticalLabelPosition=bottom;verticalAlign=top;align=center;html=1;fontSize=12;fontStyle=0;aspect=fixed;shape=mxgraph.aws4.resourceIcon;resIcon=mxgraph.aws4.cloudfront;" parent="1" vertex="1">
          <mxGeometry x="693" y="552.1" width="80" height="80" as="geometry" />
        </mxCell>
        <mxCell id="H-b20srUGd8yj_HJ04RQ-19" value="" style="sketch=0;points=[[0,0,0],[0.25,0,0],[0.5,0,0],[0.75,0,0],[1,0,0],[0,1,0],[0.25,1,0],[0.5,1,0],[0.75,1,0],[1,1,0],[0,0.25,0],[0,0.5,0],[0,0.75,0],[1,0.25,0],[1,0.5,0],[1,0.75,0]];outlineConnect=0;fontColor=#232F3E;gradientColor=#F54749;gradientDirection=north;fillColor=#C7131F;strokeColor=#ffffff;dashed=0;verticalLabelPosition=bottom;verticalAlign=top;align=center;html=1;fontSize=12;fontStyle=0;aspect=fixed;shape=mxgraph.aws4.resourceIcon;resIcon=mxgraph.aws4.certificate_manager_3;" parent="1" vertex="1">
          <mxGeometry x="521.15" y="372" width="80" height="80" as="geometry" />
        </mxCell>
        <mxCell id="H-b20srUGd8yj_HJ04RQ-20" value="" style="sketch=0;points=[[0,0,0],[0.25,0,0],[0.5,0,0],[0.75,0,0],[1,0,0],[0,1,0],[0.25,1,0],[0.5,1,0],[0.75,1,0],[1,1,0],[0,0.25,0],[0,0.5,0],[0,0.75,0],[1,0.25,0],[1,0.5,0],[1,0.75,0]];outlineConnect=0;fontColor=#232F3E;gradientColor=#945DF2;gradientDirection=north;fillColor=#5A30B5;strokeColor=#ffffff;dashed=0;verticalLabelPosition=bottom;verticalAlign=top;align=center;html=1;fontSize=12;fontStyle=0;aspect=fixed;shape=mxgraph.aws4.resourceIcon;resIcon=mxgraph.aws4.route_53;" parent="1" vertex="1">
          <mxGeometry x="521.15" y="532" width="80" height="80" as="geometry" />
        </mxCell>
        <mxCell id="H-b20srUGd8yj_HJ04RQ-46" value="" style="edgeStyle=orthogonalEdgeStyle;html=1;endArrow=block;elbow=vertical;startArrow=block;startFill=1;endFill=1;strokeColor=#545B64;rounded=0;exitX=1;exitY=0.75;exitDx=0;exitDy=0;entryX=0;entryY=0.5;entryDx=0;entryDy=0;entryPerimeter=0;exitPerimeter=0;" parent="1" source="H-b20srUGd8yj_HJ04RQ-20" target="H-b20srUGd8yj_HJ04RQ-14" edge="1">
          <mxGeometry width="100" relative="1" as="geometry">
            <mxPoint x="720" y="590" as="sourcePoint" />
            <mxPoint x="820" y="590" as="targetPoint" />
            <Array as="points">
              <mxPoint x="626" y="592" />
              <mxPoint x="626" y="592" />
            </Array>
          </mxGeometry>
        </mxCell>
        <mxCell id="H-b20srUGd8yj_HJ04RQ-66" value="" style="edgeStyle=orthogonalEdgeStyle;html=1;endArrow=block;elbow=vertical;startArrow=none;endFill=1;strokeColor=#545B64;rounded=0;exitX=0.5;exitY=1;exitDx=0;exitDy=0;exitPerimeter=0;entryX=0.5;entryY=0;entryDx=0;entryDy=0;entryPerimeter=0;" parent="1" source="H-b20srUGd8yj_HJ04RQ-19" target="H-b20srUGd8yj_HJ04RQ-20" edge="1">
          <mxGeometry width="100" relative="1" as="geometry">
            <mxPoint x="770" y="712" as="sourcePoint" />
            <mxPoint x="580" y="542" as="targetPoint" />
          </mxGeometry>
        </mxCell>
        <mxCell id="H-b20srUGd8yj_HJ04RQ-70" value="Route 53" style="text;strokeColor=none;fillColor=none;html=1;fontSize=10;fontStyle=0;verticalAlign=middle;align=center;" parent="1" vertex="1">
          <mxGeometry x="537" y="612" width="44.3" height="20" as="geometry" />
        </mxCell>
        <mxCell id="H-b20srUGd8yj_HJ04RQ-43" value="" style="edgeStyle=orthogonalEdgeStyle;html=1;endArrow=block;elbow=vertical;startArrow=block;startFill=1;endFill=1;strokeColor=#545B64;rounded=0;entryX=0;entryY=0.5;entryDx=0;entryDy=0;entryPerimeter=0;exitX=1;exitY=0.25;exitDx=0;exitDy=0;exitPerimeter=0;" parent="1" target="H-b20srUGd8yj_HJ04RQ-23" edge="1" source="H-b20srUGd8yj_HJ04RQ-20">
          <mxGeometry width="100" relative="1" as="geometry">
            <mxPoint x="601" y="540" as="sourcePoint" />
            <mxPoint x="850" y="611" as="targetPoint" />
            <Array as="points">
              <mxPoint x="607" y="552" />
              <mxPoint x="607" y="553" />
              <mxPoint x="641" y="553" />
              <mxPoint x="641" y="478" />
            </Array>
          </mxGeometry>
        </mxCell>
        <mxCell id="H-b20srUGd8yj_HJ04RQ-72" value="Certificate Manager" style="text;strokeColor=none;fillColor=none;html=1;fontSize=10;fontStyle=0;verticalAlign=middle;align=center;" parent="1" vertex="1">
          <mxGeometry x="538" y="352" width="44.3" height="20" as="geometry" />
        </mxCell>
        <mxCell id="H-b20srUGd8yj_HJ04RQ-73" value="CloudFront" style="text;strokeColor=none;fillColor=none;html=1;fontSize=10;fontStyle=0;verticalAlign=middle;align=center;" parent="1" vertex="1">
          <mxGeometry x="710.8500000000001" y="532.1" width="44.3" height="20" as="geometry" />
        </mxCell>
        <mxCell id="H-b20srUGd8yj_HJ04RQ-7" value="Region" style="points=[[0,0],[0.25,0],[0.5,0],[0.75,0],[1,0],[1,0.25],[1,0.5],[1,0.75],[1,1],[0.75,1],[0.5,1],[0.25,1],[0,1],[0,0.75],[0,0.5],[0,0.25]];outlineConnect=0;gradientColor=none;html=1;whiteSpace=wrap;fontSize=12;fontStyle=0;container=1;pointerEvents=0;collapsible=0;recursiveResize=0;shape=mxgraph.aws4.group;grIcon=mxgraph.aws4.group_region;strokeColor=#147EBA;fillColor=none;verticalAlign=top;align=left;spacingLeft=30;fontColor=#147EBA;dashed=1;" parent="1" vertex="1">
          <mxGeometry x="810" y="319" width="690" height="342" as="geometry" />
        </mxCell>
        <mxCell id="H-b20srUGd8yj_HJ04RQ-22" value="" style="sketch=0;points=[[0,0,0],[0.25,0,0],[0.5,0,0],[0.75,0,0],[1,0,0],[0,1,0],[0.25,1,0],[0.5,1,0],[0.75,1,0],[1,1,0],[0,0.25,0],[0,0.5,0],[0,0.75,0],[1,0.25,0],[1,0.5,0],[1,0.75,0]];outlineConnect=0;fontColor=#232F3E;gradientColor=#60A337;gradientDirection=north;fillColor=#277116;strokeColor=#ffffff;dashed=0;verticalLabelPosition=bottom;verticalAlign=top;align=center;html=1;fontSize=12;fontStyle=0;aspect=fixed;shape=mxgraph.aws4.resourceIcon;resIcon=mxgraph.aws4.s3;" parent="H-b20srUGd8yj_HJ04RQ-7" vertex="1">
          <mxGeometry x="40" y="234" width="80" height="80" as="geometry" />
        </mxCell>
        <mxCell id="H-b20srUGd8yj_HJ04RQ-23" value="" style="sketch=0;points=[[0,0,0],[0.25,0,0],[0.5,0,0],[0.75,0,0],[1,0,0],[0,1,0],[0.25,1,0],[0.5,1,0],[0.75,1,0],[1,1,0],[0,0.25,0],[0,0.5,0],[0,0.75,0],[1,0.25,0],[1,0.5,0],[1,0.75,0]];outlineConnect=0;fontColor=#232F3E;gradientColor=#FF4F8B;gradientDirection=north;fillColor=#BC1356;strokeColor=#ffffff;dashed=0;verticalLabelPosition=bottom;verticalAlign=top;align=center;html=1;fontSize=12;fontStyle=0;aspect=fixed;shape=mxgraph.aws4.resourceIcon;resIcon=mxgraph.aws4.api_gateway;" parent="H-b20srUGd8yj_HJ04RQ-7" vertex="1">
          <mxGeometry x="40" y="119" width="80" height="80" as="geometry" />
        </mxCell>
        <mxCell id="H-b20srUGd8yj_HJ04RQ-79" value="S3" style="text;strokeColor=none;fillColor=none;html=1;fontSize=10;fontStyle=0;verticalAlign=middle;align=center;" parent="H-b20srUGd8yj_HJ04RQ-7" vertex="1">
          <mxGeometry x="53.000000000000114" y="214" width="44.3" height="20" as="geometry" />
        </mxCell>
        <mxCell id="H-b20srUGd8yj_HJ04RQ-80" value="API Gateway" style="text;strokeColor=none;fillColor=none;html=1;fontSize=10;fontStyle=0;verticalAlign=middle;align=center;" parent="H-b20srUGd8yj_HJ04RQ-7" vertex="1">
          <mxGeometry x="57.850000000000136" y="99" width="44.3" height="20" as="geometry" />
        </mxCell>
        <mxCell id="H-b20srUGd8yj_HJ04RQ-8" value="VPC" style="points=[[0,0],[0.25,0],[0.5,0],[0.75,0],[1,0],[1,0.25],[1,0.5],[1,0.75],[1,1],[0.75,1],[0.5,1],[0.25,1],[0,1],[0,0.75],[0,0.5],[0,0.25]];outlineConnect=0;gradientColor=none;html=1;whiteSpace=wrap;fontSize=12;fontStyle=0;container=1;pointerEvents=0;collapsible=0;recursiveResize=0;shape=mxgraph.aws4.group;grIcon=mxgraph.aws4.group_vpc;strokeColor=#248814;fillColor=none;verticalAlign=top;align=left;spacingLeft=30;fontColor=#AAB7B8;dashed=0;" parent="H-b20srUGd8yj_HJ04RQ-7" vertex="1">
          <mxGeometry x="210" y="40" width="440" height="270" as="geometry" />
        </mxCell>
        <mxCell id="H-b20srUGd8yj_HJ04RQ-11" value="Private subnet" style="points=[[0,0],[0.25,0],[0.5,0],[0.75,0],[1,0],[1,0.25],[1,0.5],[1,0.75],[1,1],[0.75,1],[0.5,1],[0.25,1],[0,1],[0,0.75],[0,0.5],[0,0.25]];outlineConnect=0;gradientColor=none;html=1;whiteSpace=wrap;fontSize=12;fontStyle=0;container=1;pointerEvents=0;collapsible=0;recursiveResize=0;shape=mxgraph.aws4.group;grIcon=mxgraph.aws4.group_security_group;grStroke=0;strokeColor=#147EBA;fillColor=#E6F2F8;verticalAlign=top;align=left;spacingLeft=30;fontColor=#147EBA;dashed=0;" parent="H-b20srUGd8yj_HJ04RQ-8" vertex="1">
          <mxGeometry x="290" y="40" width="120" height="140" as="geometry" />
        </mxCell>
        <mxCell id="H-b20srUGd8yj_HJ04RQ-2" value="" style="sketch=0;points=[[0,0,0],[0.25,0,0],[0.5,0,0],[0.75,0,0],[1,0,0],[0,1,0],[0.25,1,0],[0.5,1,0],[0.75,1,0],[1,1,0],[0,0.25,0],[0,0.5,0],[0,0.75,0],[1,0.25,0],[1,0.5,0],[1,0.75,0]];outlineConnect=0;fontColor=#232F3E;gradientColor=#4D72F3;gradientDirection=north;fillColor=#3334B9;strokeColor=#ffffff;dashed=0;verticalLabelPosition=bottom;verticalAlign=top;align=center;html=1;fontSize=12;fontStyle=0;aspect=fixed;shape=mxgraph.aws4.resourceIcon;resIcon=mxgraph.aws4.rds;" parent="H-b20srUGd8yj_HJ04RQ-11" vertex="1">
          <mxGeometry x="21" y="40" width="78" height="78" as="geometry" />
        </mxCell>
        <mxCell id="H-b20srUGd8yj_HJ04RQ-90" value="RDS Mysql" style="text;strokeColor=none;fillColor=none;html=1;fontSize=10;fontStyle=0;verticalAlign=middle;align=center;" parent="H-b20srUGd8yj_HJ04RQ-11" vertex="1">
          <mxGeometry x="38.84999999999991" y="22" width="44.3" height="20" as="geometry" />
        </mxCell>
        <mxCell id="H-b20srUGd8yj_HJ04RQ-10" value="Private subnet" style="points=[[0,0],[0.25,0],[0.5,0],[0.75,0],[1,0],[1,0.25],[1,0.5],[1,0.75],[1,1],[0.75,1],[0.5,1],[0.25,1],[0,1],[0,0.75],[0,0.5],[0,0.25]];outlineConnect=0;gradientColor=none;html=1;whiteSpace=wrap;fontSize=12;fontStyle=0;container=1;pointerEvents=0;collapsible=0;recursiveResize=0;shape=mxgraph.aws4.group;grIcon=mxgraph.aws4.group_security_group;grStroke=0;strokeColor=#147EBA;fillColor=#E6F2F8;verticalAlign=top;align=left;spacingLeft=30;fontColor=#147EBA;dashed=0;" parent="H-b20srUGd8yj_HJ04RQ-8" vertex="1">
          <mxGeometry x="30" y="40" width="230" height="200" as="geometry" />
        </mxCell>
        <mxCell id="H-b20srUGd8yj_HJ04RQ-4" value="" style="sketch=0;points=[[0,0,0],[0.25,0,0],[0.5,0,0],[0.75,0,0],[1,0,0],[0,1,0],[0.25,1,0],[0.5,1,0],[0.75,1,0],[1,1,0],[0,0.25,0],[0,0.5,0],[0,0.75,0],[1,0.25,0],[1,0.5,0],[1,0.75,0]];outlineConnect=0;fontColor=#232F3E;gradientColor=#F78E04;gradientDirection=north;fillColor=#D05C17;strokeColor=#ffffff;dashed=0;verticalLabelPosition=bottom;verticalAlign=top;align=center;html=1;fontSize=12;fontStyle=0;aspect=fixed;shape=mxgraph.aws4.resourceIcon;resIcon=mxgraph.aws4.ec2;" parent="H-b20srUGd8yj_HJ04RQ-10" vertex="1">
          <mxGeometry x="21" y="40" width="78" height="78" as="geometry" />
        </mxCell>
        <mxCell id="H-b20srUGd8yj_HJ04RQ-89" value="EC2" style="text;strokeColor=none;fillColor=none;html=1;fontSize=10;fontStyle=0;verticalAlign=middle;align=center;" parent="H-b20srUGd8yj_HJ04RQ-10" vertex="1">
          <mxGeometry x="37.84999999999991" y="23" width="44.3" height="20" as="geometry" />
        </mxCell>
        <mxCell id="H-b20srUGd8yj_HJ04RQ-100" value="" style="image;sketch=0;aspect=fixed;html=1;points=[];align=center;fontSize=12;image=img/lib/mscae/Cache_Redis_Product.svg;" parent="H-b20srUGd8yj_HJ04RQ-10" vertex="1">
          <mxGeometry x="130" y="115" width="80" height="67.2" as="geometry" />
        </mxCell>
        <mxCell id="H-b20srUGd8yj_HJ04RQ-101" value="Redis" style="text;strokeColor=none;fillColor=none;html=1;fontSize=10;fontStyle=0;verticalAlign=middle;align=center;" parent="H-b20srUGd8yj_HJ04RQ-10" vertex="1">
          <mxGeometry x="145.99999999999991" y="90" width="44.3" height="20" as="geometry" />
        </mxCell>
        <mxCell id="H-b20srUGd8yj_HJ04RQ-102" value="" style="edgeStyle=orthogonalEdgeStyle;html=1;endArrow=block;elbow=vertical;startArrow=block;startFill=1;endFill=1;strokeColor=#545B64;rounded=0;entryX=0.03;entryY=0.503;entryDx=0;entryDy=0;entryPerimeter=0;" parent="H-b20srUGd8yj_HJ04RQ-10" source="H-b20srUGd8yj_HJ04RQ-4" target="H-b20srUGd8yj_HJ04RQ-100" edge="1">
          <mxGeometry width="100" relative="1" as="geometry">
            <mxPoint x="109" y="70" as="sourcePoint" />
            <mxPoint x="291" y="70" as="targetPoint" />
          </mxGeometry>
        </mxCell>
        <mxCell id="H-b20srUGd8yj_HJ04RQ-41" value="" style="edgeStyle=orthogonalEdgeStyle;html=1;endArrow=block;elbow=vertical;startArrow=block;startFill=1;endFill=1;strokeColor=#545B64;rounded=0;entryX=0;entryY=0.5;entryDx=0;entryDy=0;entryPerimeter=0;" parent="H-b20srUGd8yj_HJ04RQ-8" target="H-b20srUGd8yj_HJ04RQ-2" edge="1">
          <mxGeometry width="100" relative="1" as="geometry">
            <mxPoint x="129" y="119" as="sourcePoint" />
            <mxPoint x="-80" y="70" as="targetPoint" />
          </mxGeometry>
        </mxCell>
        <mxCell id="H-b20srUGd8yj_HJ04RQ-42" value="" style="edgeStyle=orthogonalEdgeStyle;html=1;endArrow=block;elbow=vertical;startArrow=block;startFill=1;endFill=1;strokeColor=#545B64;rounded=0;exitX=1;exitY=0.5;exitDx=0;exitDy=0;exitPerimeter=0;entryX=0;entryY=0.5;entryDx=0;entryDy=0;entryPerimeter=0;" parent="H-b20srUGd8yj_HJ04RQ-7" source="H-b20srUGd8yj_HJ04RQ-23" target="H-b20srUGd8yj_HJ04RQ-4" edge="1">
          <mxGeometry width="100" relative="1" as="geometry">
            <mxPoint x="80" y="250" as="sourcePoint" />
            <mxPoint x="180" y="250" as="targetPoint" />
            <Array as="points" />
          </mxGeometry>
        </mxCell>
        <mxCell id="H-b20srUGd8yj_HJ04RQ-47" value="" style="edgeStyle=orthogonalEdgeStyle;html=1;endArrow=block;elbow=vertical;startArrow=block;startFill=1;endFill=1;strokeColor=#545B64;rounded=0;entryX=0;entryY=0.5;entryDx=0;entryDy=0;entryPerimeter=0;exitX=1;exitY=0.5;exitDx=0;exitDy=0;exitPerimeter=0;" parent="1" source="H-b20srUGd8yj_HJ04RQ-14" target="H-b20srUGd8yj_HJ04RQ-22" edge="1">
          <mxGeometry width="100" relative="1" as="geometry">
            <mxPoint x="730" y="590" as="sourcePoint" />
            <mxPoint x="830" y="590" as="targetPoint" />
          </mxGeometry>
        </mxCell>
        <mxCell id="H-b20srUGd8yj_HJ04RQ-26" value="" style="outlineConnect=0;dashed=0;verticalLabelPosition=bottom;verticalAlign=top;align=center;html=1;shape=mxgraph.aws3.android;fillColor=#115193;gradientColor=none;" parent="1" vertex="1">
          <mxGeometry x="1186.17" y="849.25" width="73.5" height="84" as="geometry" />
        </mxCell>
        <mxCell id="H-b20srUGd8yj_HJ04RQ-27" value="" style="outlineConnect=0;dashed=0;verticalLabelPosition=bottom;verticalAlign=top;align=center;html=1;shape=mxgraph.aws3.android;fillColor=#115193;gradientColor=none;" parent="1" vertex="1">
          <mxGeometry x="1357.17" y="849.75" width="73.5" height="84" as="geometry" />
        </mxCell>
        <mxCell id="H-b20srUGd8yj_HJ04RQ-84" value="Nuget .Net" style="text;strokeColor=none;fillColor=none;html=1;fontSize=10;fontStyle=0;verticalAlign=middle;align=center;" parent="1" vertex="1">
          <mxGeometry x="1369.17" y="933.75" width="44.3" height="20" as="geometry" />
        </mxCell>
        <mxCell id="H-b20srUGd8yj_HJ04RQ-86" value="API .Net" style="text;strokeColor=none;fillColor=none;html=1;fontSize=10;fontStyle=0;verticalAlign=middle;align=center;" parent="1" vertex="1">
          <mxGeometry x="1198.17" y="933.25" width="44.3" height="20" as="geometry" />
        </mxCell>
        <mxCell id="H-b20srUGd8yj_HJ04RQ-76" value="Vue" style="text;strokeColor=none;fillColor=none;html=1;fontSize=10;fontStyle=0;verticalAlign=middle;align=center;" parent="1" vertex="1">
          <mxGeometry x="866" y="926.25" width="44.3" height="20" as="geometry" />
        </mxCell>
        <mxCell id="H-b20srUGd8yj_HJ04RQ-64" value="" style="shape=image;imageAspect=0;aspect=fixed;verticalLabelPosition=bottom;verticalAlign=top;image=data:image/png,iVBORw0KGgoAAAANSUhEUgAABKAAAAQCCAYAAACbjYBZAAAABGdBTUEAALGPC/xhBQAAACBjSFJNAAB6JgAAgIQAAPoAAACA6AAAdTAAAOpgAAA6mAAAF3CculE8AAAABmJLR0QA/wD/AP+gvaeTAACAAElEQVR42uz9eZwc1WHv/X9PVXVVz2j26RabAbMKsy8S0oykGSkXNCNhHt/neWLdX+4r93Vzf8+Tn++1jTQSICTNQmGDsQ1eYhs73nG8YFvG2CEONkYzEwEGOyFO4thOYgOS2ARoQcvsXXV+f8BNvLBomZrp0/15/5dYSDOf7qo653R1HbP8++/9hKR5AlD+pqw39t2nL7CJfGIA2fEK0V2P3Pbxd1MCwNFoW//Or6X7Sl2UADIUmqnat534z/I8SwzAAUZ/a5Z//5arpPSvqAG4YfLRvZr48R5CAFmKPNtwfv1Zgzd//HFiADgSCzevvTD5+f5/0GRqqAFkJ7+8qNyFTYQA3GCtNR3eUHfv96zsffQA3BAuaJJpCAgBZGkiNaP7pr5JCABHbM/EPSw+AdnyWiLlzm8kBOCOrwyv7HvIkySZYL2kKZoADvA95RcX6ABkrLR97NL23jVvowSAw7Wwf+0fJztHT6cEkK2ooyB5rPMCjhj1/aRPkjxJGu7a/C9W9g66AG4Izq6Xf1INIYAspVbJMxOfJwSAwxLHnp4c/RQhgIzHwWfUKTi1lhCAI4w1tz5wZbxTemUBSpIUpTdJepE8gBvynUXJ8MkPkKXk+bHWRRvefSMlALyRtpHdn0r2TNRRAshwIusZ5ZfwTQDAIU/NKZU+/L//j39fgBpeHr9kZAfoA7jBK0bKnVtPCCBj6Y6x3oVx3EAJAK9l4S1rj0ueHPl/KAFkK7ysWaYpRwjAEdZo/b1Xx6P/Pof9zf+x9cA5n5X0j2QCHLkItxdkIo8QQIbSA1M589LuL1MCwGsxu6a+nY4kPiWADI+z2kC5+c2EANzx0PCKvrt/8//xWzPXLatXJ9aqh06AG7xaX+GCFkIAGSs9eejqhZvXXkgJAL+rvXdtR2n7SDslgGzlF7fKhHzwCjgilbE9Msb+1vz1d//U8Mr+YcneTS/ADblLmuQ1hYQAsjSZGrNv8i5CAPhdyfPjX1PJEgLIkD83L/9cvg0POMPos0NdA4/97v/7VZeQfT9dL2mUaoADx7ZnFC1tJQSQsdL2kXMX9q/9Y0oA+N8Wb167Lnlm7CRKAFkOdo3CjoLYegdwxgFbSuJX+x9edQHqgSvjnUb6CN0ANwSn18lnO1ogeztG71Acc/8/AL09jsOpHaO3UALIeJw7r07BSTWEAFxhFA9fFe96tf/pNQfRc6aS90l6inqAG/IdRcnnsyEgS8mLEw2LRvd8kBIAnj7wwp3p3glmxUCWfE9Re4EOgDPMrwv7kzte6399zQWol7fKs30EBNzgtYQKL2gkBJCx9MlDPcviaxkNA1Ws/eZ3nVraPvZfKAFkK1rQJK8+IATgCmvXblkdT77mnPX1/tuhrv4vy+phKgJuCBe1yOTZBRrIUnoo8cf3jn+dEkAVnweeTe+xYwlfxwUyZOoD5S5jt2fAFVbmh0Mr+//69f7M6184jbHy7FpJKTkBBy7Uka+ojQeSA1krPXnoPy2Or1lECaD6LNy0flVp5+gllACylV9alAl4vATgyvDYKF33Rn/oDT+5eWXrvK/QE3BD7oIG+YWIEECml1ir0nOTXyMEUH3srkN3KrGEADLkn5hXcOYcQgDuXB0/NtQ98PM3+lOHdeuwF3gbJB0gKuAAYxR2FukAZCx5avy0hRvXvpMSQPVYtKEnTneNc5EFshzK6pXNdQx3PwGOeNFG6XsP5w8e1gLU1it6n7dG7PoDOCJ4U42CM+oIAWTJWtmnRm5bFsc8HRWoApfFcW2y8+AmSgAZj2PPb5R3XJ4QgDtD4v7h5fFLh/NnD/vhiTVJ4+2S+TV5ATdES4sS35sHMpXunawdP7jnU5QAKl9u/wtft/unQkoAWR5oHs8zBdzyj8WD8z53uH/4sBeg7lu1ZkLSRvoCbvAaA4UXNxECyFjpyZH/7x/0rjuJEkDlWhhfc27yxOhbKQFkK1rUIlPLjs6AK6xVz5bVq5PDnqMeyV8+1N13t5X5IZkBN4QLWuTVcREHMjVW8kb2T2whBFDBdk3dbSdTbisGMuQ15pS7qIkQgCOM1beGV/YPH9FxfsT/yMtb65XIDThwUgg9RW0FQgAZS54caVs8sPZKSgCVZ3Hv2v+S7Bw7hxJAtqLOoozPOi/giPGSpw1H+h8d8QLUUPfAz63M5+gNuCF4S73843mQI5Cp1Kr07MSdhAAqz9TTo38uawkBZMg/pVbBaXMIATjCGnv7tq7+J4/0v/OO5h+LVOqVtIfsgAOMUdTJVrZA1pJnRk9s27iGHbKACrJ4wzUfSV+YaKIEkCHPKN/BHfuAO/NLPaMw/cBRHe5H8x/9oDvea2RupjzgBv/4vIJ5dYQAMlbaPnrjsvhPuOUQqADL4p6mySdH3k0JIFvhRU3yWiNCAI6wqd04vDw+dDT/rXe0/2galT4h6efkB9yQX1KQyXmEALK8IO+fjMYP1n2REoD7xvZN3W0PlQJKANkxeU/hgmZCAM4ctHp0uLv/q0f7nx/1bHR4eVyyUg+vAODIuWJOoNx8LvBA1kqPH/ovHX1rzqIE4K4l/ddelj556A8oAWQrbCvI1LBjM+AIK9keGXPUD0Y8ptshhrv7H5Ds93gdADdElzbLNPBhLpCpidRM7J36JiEAd009f+hbdooHjwNZ8lpDhec3EAJwhdVfDHUN/PiYjvtj/xnSHkkTvBqAAwKjaAkPeQSyluwYvbitr+c/UwJwz9JNa/80eXr8zZQAshV1FCWPTXIARxwK/GTzsf4lx7wANdwd/1qyd/B6AG7InVUv/001hACylFqlz4x8nhCAY+LYm3h65COy3P0EZCk4s07BKbWEAFxh9b4froifPda/ZlqeSJxP05sk7eJVAdyQ7yhKhk+cgCwluyZaFm665iZKAO5oO7D7M+nuyTmUALJjPKP8Yu7IBxzypM0nH5mOv2haFqDuWxUfkLE38roAbvCKkXLn1xMCyJh9YnTTwjjmAReAAxbesva4ZOfIn1ACyFbusmaZphwhAGcGtLpueHk8Pi3z0On6mTofST8nq7/j1QHcELUVZCKPEECG0gNTOW//7q9SAih/Ztfkd9KRhO24gCyPs9pAIbsyA86wMkNDK/u/PV1/37TNPuM4TuXbHkl8aR5wYQBQ4ytc2EIIIGNTjx+8asHmnospAZSvpe9Z11naPrqIEkC2oiUFmZAPQAFHJL41PdP5F07r0T+0YuBhGX2L1wlwQ3hhk7zmkBBAlqasCfaOf50QQPma3DnyNZX4DBXIkj83UvAWHgEBOOQzW1f2/tN0/oXTvvycyFwraZTXCnBhJGAULeUhkEDWpnaMzmvvXfPfKAGUn/bN11ybPDN+IiWADBmjqLMotsABnLHPTiUD0/2XTvsC1LauvqckfYjXC3BDcNocBW9mG1wga6WdY3cojvneAVBG3h7HYbJ99GZKANnKzauXf2INIQBHWOmm4avj3dP992YyEB4/MOdWSTt52QA3REuLks9nUkCW0t0T9W1jez9MCaB8PH3wxS8n+6bylACyYwKjsL2VEIArx6z0y4OFuZ/M4u/OZAHqkdXrx6wxm3npADd4LaHCixoJAWSs9Pihdy+Lr+V7r0AZuLzv3aeVnhj9Q0oA2QoXtMirDwgBOCKV1j82/x1Tmcw7s/qhh1f0fk3SQ7x8gCODg8tbZWrYfRrIkh0p+eN7x75JCWD2eftK99jxhK/FAhky9YFylzYTAnDlmJX+ari7//uZXXuz+8mNNfLWSkp5GQEHTjaRp7CN26OBrJWeGFne1rumnRLA7Ll8oOeq0o6xiygBZCu/tCgT8JgHwBGT1uq6LP+BTD/1Gezu/Xsj8xe8joAbchc0yp8bEQLIUmJlX5z8KiGAWfTU6J1KLB2ADPkn1ig4cw4hAEdYaz82tLL/X7P8NzK/7dgEZqOkA7ycQPkzkqLOomT4pArIUunpsTe33bDmXZQAZl77Dde8N901zrPYAMaUAP7DC0EQZr4rbOYLUFuv6H3eGHMrryfgBv/EGgVn8GkVkClrlTw9etuyOOaprMAMWha/s25q++gGSgDZCrirHnCKkfoeuHLj/qz/nRl58GLr/tKHjfQrXlbADVEH39cHspbunayZOLjn05QAZs7EPn3dHpgKKQFkOJENPUWLeK4o4JB/aD0w7wsz8Q/NyALUltXxpKy5gdcVcIPHjiXAjJh6cuRPOnp7T6YEkL2F8TXnlraPrKIEkK1wYatMLTsrA85Ibc+W1auTGZlnztTvNLiy7x5Z3c+rCzgyeFjQIq+ebwcBmRoreZMH9n2TEED2zPOle+yk5fZeIMvJZVNOuYsbCQG44xtDqwb+ZsbOETN6QrL+OkklXmPAgYF6YBS2c/s0kLXSEyOLFg+svZISQHbaNl7zR6Udo2dTAshW1FmU8VjnBdyY8GnM2mTjTP6TM7oAtXXV5l/ImM/wSgNuyM2rl39inhBAllKr0rPjXyIEkJ3kufFPyVpCABkKTqlV8GY2sgGcYe1twyvj7TP5T3oz/TuGttQvaQ+vNuAAYxR1zhWfYwEZT46fGTth0Q3XbKYEMP0WXfuuj6UvTPCdICBLvlG0rEgHwJl5np7JmZoPzvQ/O+MLUD/ojvfKmvfwigOOjCfmRgreUk8IIGPJjrGBy+K4lhLA9GmL17WkO8f/FyWAbIUXNslrZoNJwBnWbri/6/qRmf5nvVn5XfOlT0r6Z151wA3RkoJM6BECyPLauH8yCg/svpMSwDQeV3sm704PTbGjBpAhU+MrXNhCCMCVa6P0yFBX/12z8W/PyoxyeHlckk17eOkBRwYWtYHC+c2EADJWevzQH3b0rTmLEsCxa+9/54Jkx6FllACyFbUVZCI+qAQckXoyPTJmVh6MOGtniqGVN2611t7L6w+4IXdps7ymHCGADNnJ1Ezum9pCCWAaRtjPp1vsFA8eBzKdTBYj5c7nUQ2AQ7402N33k1k7Z8zqCcuadZImeA8A5c/4RtHiAiGAjJWeHL1o0aae/4sSwNFbumntn5aeHjuVEkC28h1FybBdDeCIgyV5vbP5A8zqAtTgqv7HZfQx3geAG4Iz6xScwjOSgUxZK/vs6OcIARydZXEcTDw18hFZ7n4CspQ7q17+m2oIAbgyxJRuebC797nZ/Blm/cu6k+PheyU9x9sBcEPUUZQ8PukCspS8MN7cvmHNzZQAjtz4od2fSfdMzqEEkKHAKFrCnfGAM6x5oiZt/Ohs/xizvgD18NtuOGhlB3hHAG7wWkOF5zUQAshYacfIhoVxzMEGHIGlt2w+IXly9L9TAshWdEmzTAMbTAKusJ699r5Va2b98UdlsV3BskfTL1jpb3lbAG4I2wsyNT4hgAylB6ZyZv+Ld1ECOHxTz+27x46W2I4LyJCZEyjH7siAO6wGh7v6v1MOP0pZXKDjOE49Y3ok8WV9wIWBR95TuICBB5C10uOHVi7Y3HMxJYA3tnhg/fJk+8hCSgDZyi8pyISs8wKOSJLU9pTLD1M2Z47Brr4fSfom7w/ADeFFTfJaI0IAWZqyxtsz8Q1CAG+s9MzI12xCByBL/vF5BfPqCAG448+3XTXws3L5Ycpq6dqmyXWSRniPAA7wjPIdPHwSyFqyc+TsxZvW8Ewb4HW0b77m2uTZseMpAWTIGEWdRcmwGQ3giH12KonLagpZTj/M8Kr4aWN1O+8TwA3+KbUKTmOjISBrU8+MfVxxzPcdgFfx9jgOk+2j7BoJZCz3lnr5x+cJATjCGN04fHW8u5x+prIbzI4dnPMBSTt4uwBuiDqKMj6fhAFZSl+cqG87tOfPKAH8vqf3v/jVZN8Us2Igy4ls6Cls4853wJljVvrl/ta5f15uP1fZLUA9snr9mLFmE28ZwA1eU065i5oIAWSstH3kf7XH182lBPAfLu9792lT20f+b0oA2QoXtMirYwdkwBXWpusem/+OqbKbO5ZjrMGVfXdZ6UHeNoAbokUtMrUMSoBMBxIjJT/dO8pmHcBvDmT3Jt/ReMptuECGTGNO4cVNhADc8ZdDK2/8QVlet8u1WJratZJS3juAA3KeorZWOgAZKz0x0tnWu6adEoC0pPeaq0s7Ry+kBJCt/JKCFLDOCzhi0kv868v1hyvbBahtqwZ+Kpk7ef8AbgjOb5R3HI/gADKVWNkXJu8iBCBNPTfxBSWWEECW47s31Sg4s44QgDPsR7detfnfyvWnK+sddXKmtEnSft5EQPkzkvIdbM0LZK309Ogp7ZvXXEMJVLO2De9+X/LcOE9EBjId3BmFnUU6AO54wffD95XzD1jWC1D3d8UvSOZ9vI8AN/gn5hWcOYcQQMZKO0Y/8PY4DimBarQsfmddacfYtZQAspW7oEF+ISIE4ApjNz1w5cayvoHHK/eGhQOlj0r233g3AW7ILy3K8JwAIFPp3smap/a/+BlKoBqNv+R90x6YYgEWyHIeG/k83xNw6ZiVftr5SHpnuf+cZb8AtWV1PCl5G3hLAY6c/OoDhZc2EwLIWLJj9L919PaeTAlUk/Z4zfnJkwe7KQFkK1rUIpNnh2PAnUmY6YnjuOw3cfNcaDnU3fddyfyAdxXghvDyZnn1ASGADNmxxJs88NK3KIFqkjw3+W07abnNFshygtgSKndBIyEAd9w12NW3zYnzizMDDt+ukzTFewtwgO8paufZsEDWSk8curyjb90KSqAatG285o+SnaNnUQLIVr6jKPms8wJOMBozidnkyo/rzALUtiv7f2llPs07DHBDMK9OwUk1hACylFpNPDfyF4RAxYtjL31u4lOEALLlnzZH/qm1hAAcYVJ9cPCqvh2u/LyeS3FLJX9A0m7eZoALZ0OjsKMgPj8DspU8O35c+w1r+yiBStY2sudjyQvjfCcIyHLo5hnll3IHO+CQpwMvf5tLP7BTC1APvXXTPiN7E+8zwA3+3Lz8cxsIAWSstGOk77I45iNrVKS2eF1Lsn30HZQAspW7pEleMxtMAq6w1l5/f9f1Iy79zJ5rkVsPnPMpY/Qz3m6AG/KLW2VCjxBAhtL9k1Hupd1fpgQq8v29d/Ke9NAUO1sAWU4Ka32FC1oIAbjjR8Pd/d9w7lzj2g+8ZfXqRFIP7zfADaY2UG5+MyGAjCVPHvo/l8TvOpsSqCTt/e9ckG4/1EEJIFthe0Em4gNDwBGpZ22PjLGu/eBOnmUGu/oHJftd3neAI4Oay5plmnKEADJkJ1NTeiG9mxKoqBH2ruRbdsoSAshyQliMlDu3nhCAK4y+uHXlwN86eb5xtbkfpOslTfDuAxw4R3pG+SU81BLIWmn76Pntm3r+kBKoBIs3XfOO0jPjp1ACyFa+sygZto0BHHGwZL1+V394ZxegHrgifsJIH+X9B7ghOKNOAdv6AtmyVsmzo58hBFy3LI6DqafGPiTL3U9ApuOzs+vln1RDCMCZsZ7e+2B373Ou/vhOf9F3YiK8RdJzvAsBN0QdBcnjEzYgS8kL483tG9a+nxJw2dih3Z9P90zOoQSQId9TfjF3qAMOeTxvGz/m8i/g9ALUw2+74aCRenkfAo6ccFoi5c5vJASQsantB9cvi3uaKAEXLb1l8wnpk6N/TAkgW+H8ZpkGNpgEnGG1/r5Va5x+DJHzWx10PJp8SdJPeDcCbojaW2RqfEIAWY5PDpZyY/umvk4JuGjq2X3ftaMltuMCMmTmBAovayIE4M5Ru3VoZf9fuv5bOH9xj+P45S0IJR4SALhw6ox8hZe3EALIWPrkyIq2/vWXUAIuWTywfnmyY2QBJYBsRUsLMjnWeQFHlJIkXVcJv0hFnHW2rhx4RNJdvC8BN4QXNsprDQkBZMhOpSZ9ceyblIBTI+ynD91lEzoAWfJPyCt3dh0hAFcY+8ltVw38rBJ+lYpZ9jZTZoOkEd6dgAtnHqN851w6ABlLdo6e2b5pzf+gBFyw+IY11yXPjR9HCSDDOZOkqKMoGTaFARyxz/OD91TMNLBSfpHBq/uesUa38f4E3OCfXKPgdD59AzJlrZKnRz+mOOZ7Fihry+I/yU/tHH0vJYBsBec2yD8+TwjAlaGc1L/1is17KuX3qagB6cT+OR+UzHbepoAboo6CjM8ncECWkt2Tde2H9nyCEijzMdzX0pcmmRUDWcp5itpb6QA4w/5CUfLpSvqNKmoB6pHV68es0UbeqIAjJ6DGnHIXNxECyNjUk4f+f+3xdXzvFWXpD/quOWNq+8h/pgSQrejyFpk5ASEARxjPrBteHpcqav5XaS/ScFffN2T0N7xdAUcGQwsZDAFZs6OJb/eMfosSKEeje0vf0XjK7bBAlpO+xkC5S5oIATjCSN8ZXNF/f8WdiypyoG28HknsoQK4IOcpamuhA5Cxqe0jS5f0rl1CCZSTJb3XXF3aMXo+JYBsRR1FHnsAuGOy5GlDJf5iFbkANbyi9x+MzBd53wJuCM5rlH9cRAggSyWryefHv0YIlJOpZye+qNQSAshynHVyLRu/AA6x1n5424r+X1Xi71axu+IEptQraT9vX6D8GUlRJ1sCA1lLnxk7uX3TNWsogXLQdt27PpjsGueJyECmgyzz8hgLgCuer7HprZX6y1XsAtT9XfELxpibef8CbvBPqFFwFp/OAVkr7Rh7/9vjOKQEZtOy+J11pafGeigBZCu8sEFeK6d8wBXW2o33rYoPVOrv51Xyi9e6v/Qxyf4bb2PADfmlBZmcRwggQ+m+yZpnDuz+PCUwmyZe8u62B0o5SgDZMZGvcBE3GQIO+ftlP07/opJ/wYqe6W1ZHU8a413H+xhwZKBUFyh3WRMhgIxNbR/5r+03v+tUSmA2tMdrzp968tCVlACyFba1yuR9QgBusJ5sTxzHaSX/khV/q8FgV9+9kr7P+xlwQzS/WV49H4oDmY5wxhLP7rLfogRmQ/rc5Hc0mfLQPyDLSV5LqPD8BkIAzgzO9LWt3QMPVvy5qRpey8TXeklTvKsBB/iewsXcLg5kbWr7yPy2vjXdlMBMatu89r+Wdo6eQQkgW1FHUfJZ5wWcYDTmB8nmavhVq2IBatuV/b800id5ZwNuyM2rl39SDSGALCVW9tnxLxECMyaOvfTpsU8RAshWcHqdglNrCQG4wurWB66Md1bDr1o1T/udLAU3SdrNuxtwQ76zKD63A7JVem587uKN7+6nBGZC28HddyQvjvOdICBDxjOKlnInOeCQp+qmkg9Vyy9bNQtQD7110z5ZeyPvb8CRk1MxUnAe8xQga1PbR/sui2M+KkemlsXXFpIdY/8vJYBs5S5pktcUEgJwhr3u3qvj0aqZ41XTS1s4eM6nJf0Tb3LADWF7QSbyCAFkKN1fCsOXdn+VEsjS+J6xe9KRqYASQIYTu1pf4YIWQgCusHp4qKt/S1Wdp6rpl92yenXiKe3hnQ64NJBqJgSQsdKTh97WFl97DiWQhUX9axeWto8soQSQLT64A5ySWt/0yBhbVfO7anuVt3bfOGSNvYf3O+CG3CXN3EoOZMxOpibdNXo3JZDJ+2vX+LdUsoQAspzU8egCwDWfH17R93dVd66qxlc68NPrJI3zngfK38sP0ywQAshYsnP03CW9a99OCUynxb1r/mfyzPibKAFkK2LzFsAlB22SDFTjL16VC1APXBE/IaOP8L4H3BCcPofthIGsWaupp8c+TQhMl2VxHExtH/2QLHc/AVnKzatXcFINIQBXhlzSTcNXxbuq8Xev2i8J2zB5n6RnefsDbog6ipLPZ3tAlpIXxpvbrl9zGyUwHSYP7P5iuneSTw+ALPmewsWtdACcYX5dkzZ+olp/+6pdgBpeHh+yxmzmAAAcOVm1hAovaCQEkLHSjpGeZXFPEyVwLP6gd91JUztG/islgGxF85vl1ecIATjD9Ny3as1E1c7pqvmlH17R+xeSfsJBALghXNQik/cJAWTIHpwKxvdNfZMSOBaj+8e/a0cTtuMCspzG1gXKXdZECMAdDwx1936vmgNU98DAGGtTs1YSDycAXDhkI19RWwshgIyVnjh05aL+tQspgaPRtvld/ynZPnIZJYBs5ZcUZHKs8wKuDK+s8dZVe4SqP2MNr+p71Bh9leMBcEPugkZ5rSEhgGyHSNILE1wbcVSSXVN32YQOQJb8E2oUnF1HCMARVvYTw129/1ztHVgyl6RJs1HSIUIADjBGUWeRDkDGSk+NnbFw49p3UgJHYtENazakz41zkgayHApJL4+FDJuzAI7Y6wfBzWRgAUqSNHh13zPGmg9QAnBDcHKtgjP41A/IlLWyT43ctiyOA2LgcCyL/ySf7Bx5DyWAjMdB5zXIPy4iBOAII9u79YrNeyjBAtS/S/Ol2yWznRKAG6KlRRmfT/6ATK+NeydrJ0Ze/AQlcDgm9s/5un1pilkxkKWcp6itlQ6AO36eRunnyPAyFqBeMbw8HjdWGygBOHLyagyUu6SJEEDGSk+M/ukf9K47iRJ4PX/Qd80ZU0+O/B+UALIVLWyRmcONqYAzcxaTrhteHpco8UoPEvyHwZV9WyQNUwJwZBB2OYMwIGt2NPFGD0x+gxJ4PaN7Sn+piZTbUoEsJ26NOeUubiIE4M4o6u6tXTf+kA6/cR4jwe+9SXoksXcL4IKcp6id29CBrCVPHlzctvld/4kSeDXtvWveVto5ei4lgGxFHQUePwC4Y9Iq3UiG38YC1O8Y6h74R1nzeUoAbgjObZB/fJ4QQIZsIqUvlL5ECbya5JmJzyu1hAAy5J9co+B0NmABHBo93T7cHf+aDr+NBahXUbJen6SXKAGUPyMp6mArYiBryTNjJ7VvvOYGSuA3Ldpwze3J82PcigpkOmMzynfOpQPgjufzafoBMrzK6YwEv+/BVZtflDXvpQTgBv+EvHJn86kgkLWpHaM3LYv/hFsOIUlaGMcN6Y7RNZQAshVe2CivNSQE4Ay74b5V8QE6/D4WoF7DgWLx45L+lRKAG6KlBZkcpzQg0+HUS1PRxIHaL1ACkmT2vnB3emAqRwkgw+Ms7ym8vIUQgDse63w0/QoZXh2ztdd618x/x5Ss1lMCcGSANidQeFkTIYCMTT0x+v/p6FtzFiWq28LNay8s7RjlwfRAxqK2gkyNTwjADdZa0xPHcUqKV8cC1OsYWtn/11b2PkoAbgjnN8s0BIQAsjSRmsm9U98gRJXbM3GPJlMevgdkOVFriZQ7v4EQgDu+Mryy7yEyvM55jQRvJF0jaZIOgAN8T/nFBToAGSvtGL2kvXfN2yhRnRb2r/3jZOfo6ZQAshV1FCSPdV7AEaO+n/SR4fWxAPUGhrvjX8vqDkoAbgjOrpd/Ug0hgCylVsmz4zwLqhrFsacnRz9FCCDj8cwZdQpOrSUE4Ahr9L4Hrox3UuL1sQB1GPI2iSU9TwnAkWO2sygZPjEEspTsGm9ZtKEnpkR1aRvZ/alkzwTbjgIZMp5Rfgl3dAMOeap+MvkIGd4YC1CH4b5V8QEjyyAbcOXEVoyUO49nJgBZS3cc3LwwjjnYqsTCW9Yelzw58v9QAshWeFmzTBMbTAKusEbr7706HqXEYczTSHB4Oh5NPyPpMUoAjgze2lplIk5xQJbSA1M589LuL1OiOphdU99ORxK24wKyPM5qA+XmNxMCcMdDwyv67ibD4WF2dpjiOE6tNT2SLDUAB05utb7CBS2EADJWevLQ1Qs3r72QEpWtvXdtR2n7SDslgGzlF7fKhEzRAEekMrZHxrBGcLhzNBIcvuGVfQ8ZK1Y3AUfkLmmS1xwSAsjSZGrMvsmvE6KyJc+Pf00lxtdAlvy5efnn8q1mwBlGnx3qGuBbUkeABagjVPLMekl8vxNw4ZrgGUVLeYgnkPm1cfvIW9p71/w3SlSmxZvXrkueGTuJEkCWgxajqLMgtlABnHHAlpKYDEeGBagjtK2r7ykj8YR7wBHBaXMUvJltjIGsJU+NfUJxzLiiwrw9jsOpHaO3UALIeLwyr07+iTWEAFxhFA9fFe8ixJFhoHgU5kwl75O0kxKAG6KlRcnnM0UgS8mLEw1tI7tvp0Rleerg7i+leyeYFQNZ8j1F7dyxDbjD/LqwP7mDDkeOBaijcO/V8aiR6aME4MiJriVU7oJGQgAZS7aPrFkWX8ssqkK03/yuU5MnRlZTAshWeHmzvPqAEIAjjEnWbFkdT1LiKOZlJDg6g129X5HVw5QA3BAtapHJs3s4kKX0UOKP7Rv/BiUq5PV8Nr3HjieMFYEsJ7L1gcJLmwkBOHPQ6q8Hu268jxBHh0HFUb/xjJVn10pKiQE4cMhGvsK2VkIAGUseP/QHi+NrFlHCbQs3rV9V2jl6CSWAbEVLCzIBjwkAHDGlVOvJcPRYgDoGr2y5+BVKAG4IL2iQX4gIAWQpsSo9N/k1QrjN7jp0pxJLCCBD/ol55c6sIwTgztXx40Mr+/+VDkePBahjDRh4GyQdoATgAGMUdhbpAGQseWr8tIUb176TEm5atKEnTneNc7IEshySSMp3FCXD3U+AI160UfpeMhwbFqCO0dYrep+XzAcoAbgheFONAj5tBLJlrezTo7cti2OequuYy+K4Ntl5cBMlgIzHIxc0yDsuTwjAFcb2DS+PXyLEsWEBahoUDpRul8yvKQG4Ib+kIPG8BSBT6Z6J2okDu/+cEm7J7X/h63b/VEgJIMN5bOgpWsSGoYBD/rGw/5zPk+HYsQA1DV7ZgnEjJQBHBn6NOYWXsOMMkLWp7aP/4w96151ECTcsjK85N3li9K2UALIVLmqRqWVnXsAV1qpny+rVCSWOHQtQ02Sou+9uK/NDSgCODP7mN8urY/AHZGqs5I3sn9hCCEfsmrrbTqbcHgpkOflqyil3YRMhAFcYbRle2T9MiGk6B5JgOt+b6TpJJUoADhyvoaewjdvfgawlT460LR5YeyUlytvi3rX/Jdk5dg4lgGxFHUUZn3VewBHjNk02kGH6sAA1jYa6B35uZT5HCcANubfUyz+eB4ACmUqtSs+O3UmI8jb19Oify1pCABnyT6lVcNocQgCOsMbePrwy3k6J6cMC1DSLVOqVtIcSgAOMUdTJFshA1pJnxk9s27iGndXK1OIN13wkfWGiiRJAlrMuo3xHkQ6AM/MEPaMwZbf76T4VkmB6/aA73mtkbqYE4Ab/+LyCeXWEADJW2j5647L4T7jlsMy0xetaJp8ceTclgGyFFzXJa2WDScAVNrUbh5fHhygxvViAykAalT4h6Z8pAbghv6QgE3I6BDIdyO2fjCZfqruTEmU2Ztk3ucUeKgWUALJj8p7CBey+C7hz0OrR4e7+rxJi+jHjysDw8rhkpXWUABy5xswJlLuMgSGQtcnth1Z39K05ixLlYUn/tZelTx76A0oA2QrbCzI17LwLOMIaa9bKGB6MmAEWoDIy3N3/gGS/RwnADdGlzTKNOUIAWZpIzeS+yS2EKA9Tzx/6lp1ifA1kOtlqDRWe10AIwBVWfzHY3fcTQmR0TiRBlu/dtEfSBCUABwRG+cUFOgAZK20fu6itr+c/U2J2Ld209k+Tp8ffTAkgW1FHUfLY7ARwxKHATzaTITssQGVouDv+tZE+QQnADcFZdfLfVEMIIEupVfrMyOcJMYvi2Jt4euQjstz9BGQ6rjizTsEptYQAXGH1vh+uiJ8lRHZYgMrYxER4k6RdlADckF82l08qgYwluyZa2m+45r2UmB1tB3Z/Jt09OYcSQHaMbxRxZzXgDmuesPnkI4TIFgtQGXv4bTccNNIAJQBHToqtoXI8qwHIXGn76A0L45iDbYYtvGXtccnOkT+hBJCt3GXN8pp4tiTgCiNdN7w8HqdExnMtEmSv49Hk87L6O0oAbojaCzJ5To9AltIDUzlv/262OJ7pAfauye+kIwnbcQFZHme1gUJ21wWcYWWGBlf23UOJ7DHDmgFxHKfybY8kHrYAuDBwzHsKF7QSAsjY1OMHr1qwuediSsyMpe9Z11naPrqIEkC2oiUFmZBpFuCIxLemhwwzgzPjDBlaMfCwJLaeBhwRXtworzUkBJClKWuCveNfJ8TMmNw5epdKfBYGZMmfGyl4Sz0hAFcY8+mtK3v/iRAzgwWoGZQYc52kUUoALpwdzctbJwPI1NSO0XmLN63575TIVvvma65Nnhk7gRJAphNZRZ1FsZUJ4Ix9drJ0IxlmcIpFgpmzravvKUkfogTghuCUWgVvZqMoIGtTT499XHHMmCQjb4/jMNk+ejMlgGzl5tXLP7GGEIAjrHTT8NXxbkrMHAZ7M2z8wJxbJe2kBOCGqLMo4/NZJpCldPdEfdvY3g9TIhtPH3zxy8m+qTwlgOyYwChs5/mRgDPHrPTLg4W5n6TEzGIBaoY9snr9mDVmMyUAR06STTnlLmokBJCx0uOH3t0eXzeXEtPr8r53n1Z6YvQPKQFkK1zQIq8+IATgiFRa/9j8d0xRYobnViSYecMrer9mpQcpATgyqFzYKlPLruVAluxIyU/3jH2DEtM80NtXuseOJ4z3gCyPs/pAuUubCQE4wkh/Ndzd/31KzML5kgSz8Y431pPXIyklBuDAIRt6ihZxWz2QtdKTh5a19a5pp8T0uHyg56rSjrGLKAFkK+ooygR8XR9wxKS1uo4Ms4MFqFky2N3790bmLygBuCG4oFH+3IgQQJYSK/vi5NcIMU2eGr1TiaUDkCH/xBoFZ7BhCeAKa+3Hhlb2/yslZgcLULPIBGajpAOUABw4XiVFnXMlwyecQJZKT4+d2nbDmndR4ti033DNe9Nd4wVKAFkODozyy4qMDQB3vBAEIbvCziIWoGbR1it6nzfG3EoJwA3+iXkFZ/IpJ5Apa5U8PXrbsjjmab5HaVn8zrqp7aMbKAFkKzy/QV6Ru6MBZ4YYsr0PXLlxPyVmDwtQs6x1f+nDRvoVJQA35JfynAcga+neyZrxQ7s/Q4mjM7FPX7cHpkJKANkxkaewjedDAg75h+KBc75IhtnFAtQs27I6nkyN+JQScGXAWR8ovISdboCsJU+M/PeO3t6TKXFkFsbXnFvaPrKKEkC2woUtMjXskAs4I7U9W1avTggxu1iAKgPDXf3fkdX9lADckLu8RV493w4CsmTHEm9y/94tlDgy5vnSPXbScpsmkOUEqiVUeGETIQB3fGNo1cDfkKEMzp8kKJMXwvrrJJUoATgwwQuMonae7QtkrfTk6MKOvnUrKHF42jZe80el7SNnUwLIVrS0IPms8wJuDNw1Zm2ykRDlgQWoMrF11eZfSPo0JQA3BPPq5J9YQwggS6nVxLOjXyLE4UmeG/8UFYCMr/+nzVHwZjYkAZxh7W3DK+PthCgPLECVkalS0C9pDyUABxijqLMoPv8EspU8N3b8ohuu2UyJ17fo2nd9LH1hopESQIZ88/LdTwAcGa/rmZyp+SAhygcLUGXkobdu2idr3kMJwJFx6NxIwbkNhAAylu4YG7gsjmsp8era4nUt6c7x/0UJIFvhhU3ymtlgEnCGtRvu77p+hBDlgwWocjtG8qVPGqOfUQJwQ7S4VSbkVApkKd0/GYUHdt9JidcYO+yZvDs9NMXOCECGTI2vcGELIQBXro3SI0Nd/XdRorwwayozw8vjkk3TdZQAHBmQ1gYK5zcTAshY6fFDf7gkfhcP2P4d7f3vXJDsOLSMEkC2oraCTMTUCXBE6sn0yBhLivLCWbQMDa28caukv6QE4IbcZc0yTTlCABmyk6kpvZBuocTvjLCfT7fYKcbXQKYTpmKk3Pn1hADc8aXB7r6fkKEMz6ckKE8m1XpJE5QAHDhePaP8Yh5KCmSttH30wkWbev4vSrxs6aa1f1p6euxUSgDZyncWJcO2I4AjDpbk9ZKhPLEAVaYGV/U/LqOPUQJwQ3BmnYJTeUYykClrZZ8d/RwhpGVxHEw8NfIRWe5+ArKUO6te/kk1hABcGSpItzzY3fscJcoTC1BlbHI8fK8kDh7AEVFHQfL4hBTIUvLCeHPbhne/r9o7jB/a/Zl0z+Qc3hFAhgKjaAl3OAPOsOaJmrTxo4QoXyxAlbGH33bDQWvVTwnAkRNqS6Tw/AZCABkrbR+9bmEcV+3BtvSWzSckT47+d94JQLaiS5tlGthgEnCG0fr7Vq3hMTblPF8iQXlb9uPki1b6W0oAbgjbCjI1PiGADNmDpZx5affXq/X3n3pu3z12tMQYDshyHjsnUI5dbgGHBgcaHOru+y4hyhuDlzIXx3HqGdMjiYc8AC4MWPOeostbCAFkrPTEwe4Fm3surrbfe/HA+uXJ9pGFvAOAbOWXFGRyTJUARyRJanvIUP44qzpgsKvvR8bqG5QA3JC7sFFea0QIIEtT1nh7Jqru2lh6ZuRrNuHlB7LkH59XMK+OEIAjrMyntl018DNKlD8WoByR2uR6SSOUAFw4sxrlO3hoKZC1ZOfI2e2b1vyPavl92zdfc23y7NjxvPJAhoxR1FmUDJuKAI7Yp6nSTWRwZJpEAjcMr4qfNla3UwJwg39KrfzT2KAKyFrpmbE/UxxX/Hjm7XEcJttHb+YVB7IVvKVe/vF5QgCOMLIDw1fHuynhBhagHDJ2cM4HJO2gBOCGfGdRxucTVCBL6YsT9W0jez5W6b/n0/tf/Gqyb4pZMZDlRDb0FLVxBzPgzDEr/XJ/4bhPU8IdLEA55JHV68eMNZsoAThygm3MKXdxEyGAjJWeOPQ/2+Pr5lbq73d537tPm9o+8n/zSgPZChe0yKtjJ1vAFdam6x6b/44pSjg0PyKBWwZX9t0laRslADdEC1tkahnMApkOQEcTP907+s2KHaztTb6j8ZTbKYEsj7PGQCEfGgEuXf2/O7Tyxh/QwbFzLQnc88oWkyklAAfkPEVtrXQAMlZ6YqRzSe/aJZX2ey3pvebq0s7RC3mFgWxFS4tSwDov4IhJLwk2kME9LEA5aNuqgZ9K5k5KAG4Izm+UdxyPbgEylViVXhj/aqX9WlPPTXxBieX1BbK8Tp9cq+CMOkIAzrAf3XrV5n+jg3tYgHJUzpQ2SdpPCaD8GUn5zgJbOgMZKz09dkr75jXXVMrv03bDu29NnhvnichAphdpo7CDwwxwyAu+H76PDG5iAcpR93fFL0iGAw9whH9CjYIz5xACyFhpx+gH3h7Hoeu/x7L4nXWl7aPX8ooC2cpd0CC/EBECcIWxmx64ciM3YjiKBSiHFQ6UPipZbj0EHJFfWpTh+RJAptK9kzU7D+3+rOu/x/hL3jftgVKOVxTIcB4b+TynEXDpmJV+2vlIeicl3MUClMO2rI4nZc31lAAcuWjWB8pd1kIIIGPpEyN/3NHbe7KrP397vOb85MmD3bySQLbCRS0yeXaqBZwZS8uujeOYzbgcxgKU44ZW9v+lZNh+EnBEtKBJXj03NQBZsmOJN/nS3rtd/fmT5ya/bSctt0sCWU6CWkKFFzQSAnDHXVu7Bx4kg+PnXhK4L/HtOklTlAAc4HsKF3O7P5C10vbRBR1961a49nO3bbzmj5Kdo2fxCgLZyncUJZ91XsAJRmMmMZsI4T4WoCrAtiv7fymrP6cE4Ibc2XUKTqohBJCl1GriuZG/cOpnjmMvfW7iU7x4QLaC0+vkn1pLCMARVvrA4FV9OyjhPhagKsRUEtwoaTclAAe8suUzn7sC2UqeHT+u/Ya1fa78vG0jez6WvDDOd4KALC/BnlG0lDuRAYc8HSp/OxkqAwtQFeKht27aZ6WYEoAb/Ll5Bec2EALIWGnHSN9lcVz2tzq0xetaku2j7+AVA7KVu6RJXlNICMAR1trr7++6foQSlYEFqApSPDDvz43RzygBuCFa3CoTcRoGspTun4xyL+3+ctn/nHsn70kPTQW8YkCGE59aX+ECdqMFHPKj4e7+b5Chgs7DJKgcW1avTiT1UAJwg6kNFM5nIAxkLXny0P+5JH7X2eX687X3v3NB8uShDl4pIFthe4EPfgB3pJ61PTLGkqJycAauMINd/YNG+g4lADfkLm2SacoRAsiQnUxN6YX07rIdYe9KvqUS42sg00lPMVLu3HpCAK4w+uLWlQN/S4gKOxeToAJf1CC5VtIEJQAHrq2eUX5JgRBAxkrbR89v39Tzh+X2cy3edM07Ss+Mn8IrBGQr31mUDNt/AI44WLJePxkqDwtQFeiBK+InjPRRSgBuCM6oU8B20EC2rFXy7OhnyulHWhbHwdRTYx+S5e4nINPr7Nn18k+qIQTgzDVb732wu/c5QlQeFqAq1MREeIskDlrAEVFHQfL5ZBbIUvLCeHP7hrXvL5efZ+zQ7s+neybn8MoAGfI95RdzpzHgkMfztvFjZKhMLEBVqIffdsNBI/VSAnDkZNwSKXdeIyGAjE1tP7h+WdzTNNs/x9JbNp+QPjn6x7wiQLbCBU0yDWwwCbjCGLPuvlVreJxMpc55SFC5Oh5NviTpJ5QA3BC1t8jU+IQAMmQPlnITL5VmfUvnqWf3fdeOlhiHAVlOZOsChZc2EwJw56jdOtjVdy8dKhcDnwoWx/HLW1dKPFwCcOGSG/kKL28hBJCx0hOHrmzrX3/JbP37iwfWL092jCzglQCyFS0pyOSY7gCuXJ6TJF1HhsrGGbnCbV058IikuygBuCG8qFFea0gIIEN2KjX2hdEtszbCfvrQXTbhdQCy5J+QV+7sOkIArjD2k9uuGvgZISobC1DVcCxPmQ2SRigBuHDAGkWdRToAGSs9NXZG+6Y1/2Om/93FN6y5Lnlu/DheASDDS6mkqKMoGTb3AByx1/OD95Ch8rEAVQUGr+57RjIfpATghuDkWgWnszEWkClrlTw9+jHF8YyNhZbFf5Kf2jn6XuIDGV9Hz2uQf3yeEIA71+T+rVds3kOIyscCVJUYP1B7m2S2UwJwQ9RRlPH55BbIUrJ7sq7t4O47Zurfm9g/52vpS5PMioEs5TxFba10AJxhf2Hz6WfoUB1YgKoSj6xeP2aNNlICcOTk3JhT7uImQgAZK20f+dOFt6zN/Ctxf9B3zRlT20f+M8WBbEULm2XmBIQAHGE8s254eVyiRJXMcUhQPYa7+r4ho7+hBODKILqFQTSQMTua+GbX1Ley/nfG9pS+q/GU2xqBLCc2jYFyFzcTAnDlGmzsPYMr+u+nRBWdp0lQbQe51yOJvXcAF/A1AmBGlLaPLFnSu3ZJVn//kt5rrp7aOXoepYFs8fV1wCmTqTE3kKG6sABVZYZX9P6DpC9QAnBDcF6D/OMiQgBZKllNvTB+V1Z//dSzE19UaukMZHm9PLlWwel1hAAcYa398LYV/b+iRHVhAaoK5UzSJ2k/JYDyZyRFnXPZShrIWPL02JvaNvT0TPff23bduz6Y7BrnVkYg04ulUdRZpAPgjudrbHorGaoPC1BV6P6u+AVjzM2UANzgn5BX7mw+1QWyljwz8r63x3E4XX/fsviddaWnxnooC2QrvLBBXmtICMAR1tqN962KD1Ci+rAAVaVa95c+JulfKQG4IVpSkMlxygaylO6dqHnmwO7PT9ffN/GSd7c9UMpRFsiOiXyFi7jJEHDI3y/7cfoXZKjSczYJqteyH7z3rcbqXkoAbpj48R5NPrqXEECWA6MaP81dWnv6j/ru2HEsf097vOb8yZ8e+CdNsvMdkKVo2VyFFzUSAnCDtdZ0DK/se4gU1YmP06vYcFf/X0n6PiUARwbZ85vl1XMzBZDpyHgs8dJd6d3H+vekz01+h8UnIOOJTEuk8PwGQgDOXGT1NRafqvy8TYLqlvhaL2mKEoADfE/RYr5mAGSttH30sra+Nd1H+98v7F/7x6Wdo2dQEshW1FGQfNZ5AScYjflBspkQ1Y0FqCq37cr+Xxrpk5QA3BDMq5d/Ug0hgCwlVsmz40f3fIo49rRj7A4iAhlfD0+vU3BqLSEAV1jd+sCV8U5CVDcWoKDJUnCTpN2UANyQ7yzyAD8gY+lz48XFG9/df6T/XdvB3XckL47znSAgQ8YzipZyRzDgkKfqppIPkQEsQEEPvXXTPmM0QAnAkRN3MVJwHg9cBbI2tX2077I4PuxbLJbF1xaSHWP/L+WAbOUubZLXFBICcISx5tp7r45HKQEWoCBJat0/7zOS/okSgBvC9laZiFM4kKV0fykM97/4tcP98+N7xu5JR6YCygEZTmRrA4XzWwgBuMLq4cHu3m8RAhILUHjFltWrE09pDyUAR07etb7CBQzAgaxNPTHyf7THa85/oz+3qH/twtL2kSUUA7IVLeYDGMAhqfVNj4yxpIDEAhR+w9buG4ckfZsSgBtyl/AVBCBzk6lJdk19443+mN01/i2VGF8DmU5cipGCc3nEGuAMaz43vKLv7wiBfz+PkwC/KTG6TtI4JYDy9/JDWAuEALK+Nu4YOXdh/9o/fq3/fXHvmv+ZPDP+JkoBWV70jCI24QBcctCmpRvJgN/EAhR+y7au/idl9BFKAG4ITp8jn22ogeztGLtDcfx746ZlcRxMbR/9kCx3PwFZyp1dp+CkGkIAjrDSTcNXxbsogd/EAhR+/2QRJu+T9CwlADfkO4qSz2fCQJaSF8cb2kb2fuB3///jB/bcme6dZBUYyJLvKVzcSgfAGebXNWnjJ+iA38UCFH7P8PL4kDVmMyUAR07kLaHCCxoJAWQseXKkZ1l87b9/7/UPetedlOw49EeUAbIVzW+WV58jBOAM03PfqjUTdMDvzVtIgFczvKL3LyT9mBKAG8JFLTJ5nxBAhtKRqWB879hd//v/Ht0//l07mjCWArKcxtYFyl3WRAjAHQ8Mdfd+jwx4NQya8BpXe2Ntanok8VALwIVDNvIVtbUQAshY6cmRKxbH1yxq2/yu/5RsH7mMIkC28ksLMjmmLIArl0nJ9pABr4WzOV7T8Kq+R43RVykBuCF3QaP8QkQIINOhtVXpuamvJrum7rIJOYAs+SfUKDirjhCAI6zsJ4a6B35OCbwWFqDw+ibNRkkjhAAcYIyijiIdgIwlT42dnj43zsEGZHlJkxQtK0qGTTYAR+wulXLvIQNeDwtQeF2DV/c9Y6x5PyUAN/gn1yg4g0+LgUxZvp0OZC04r0H+XO7qBVxhZPsfeuumfZTA62EBCm8ozZdul/QkJQA3REuLUsAnxgAAR+U8RW2tdADc8fM0Sj9HBrwRFqDwhoaXx+PWaAMlAEdO7I2BokuaCQEAcFK0sEVmTkAIwJWxp0nXDS+PS5TAG75XSIDDMdzV/y1Jw5QA3JCb3yyvzicEAMCtyUljTrmLmwgBOMPevbXrxh/SAYd1jicBjuDk0iOJPX8AB5jQU9RWIAQAwClRR0HG52vkgCMmrNKNZMDhYgEKh22oe+AfZcR3ewFHBG+pl398nhAAACf4J9coOJ2NNAB32A8Nd8e/pgMOFwtQOCKhTTZL2ksJwAHGKOpgC2sAgAuzEqN8Z5EOgDuez6fpB8iAIzrVkwBH4gfd8V4Z3UwJwA3+CXkF8/g0GQBQ3nIXNsprjQgBOMNuuG9VfIAOOBIsQOHITzVh8nFJP6cE4Ib8koJMjtM9AKA8mbyn6PIWQgDueKzz0fQrZMCRYkaCIza8PC55Jl1HCcCRgf2cQLn5zYQAAJSlqK0gU8POrYAjrLWmJ47jlBQ4UixA4ahs7brxhzL6a0oAjgzuL22WaQgIAQAor8lIS6Tc+Q2EANzxleGVfQ+RAUd1zicBjpa1yVpJk5QAHBAY5ZfwcFcAQHmJOgqSx2YZgCNGfT/pIwOOFgtQOGrD3fGvZXUHJQA3BGfVyT+phhAAgPK4Lp1Rp+DUWkIAjrBG73vgyngnJXC0WIDCMcnbJJa0ixKAI8dsZ1EyfNIMAJhdxjPKLykQAnDHzvrJ5CNkwLFgAQrH5L5V8QFrFVMCcOSkX4yUO49nbQAAZlfu0iaZphwhAGeY9fdeHY/SAcc0FyEBjtWyHyeflfQYJQA3hG2tMhGnfwDALE1jawOFC1oIAbjjoaGu3m+TAceKGQiOWRzHqbWmR5KlBuDAib/WV3g5A38AwOyIFrfKhExDAEekMrZHxjDXw7HPQ0iA6TC8su8hY3U3JQA3hBc1yWsOCQEAmFH+3LyCc/kqOOAKK/OZoa4Bvu2CacECFKZNyTPrJfG9YMCJGYBRtJSHvwIAZpAxijoLYisMwBkvJak3QAZMFxagMG22dfU9ZY39MCUANwSnzVHwZra/BgDM0HVnXp38E2sIATjCyNz04KrNL1IC04UFKEyr+sn0Vkk7KQG4IVpalHw+iwYAZDyRDYyidu68Bdxh/2V/oXgHHTCdWIDCtLr36njUyPRRAnDkItASKrywiRAAgEzlFrTIqw8IATjCGLv+sfnvmKIEpnXuQQJMt8Gu3q9IeogSgBvChS0yNT4hAADZTGTrA4WXNhMCcIb93mDXjffRAdONBShkMMowVsb2SEqJAThwyEaewrZWQgAAMhEtLcgEfN0bcMSUrLmWDMgCC1DIxCtbdX6FEoAbwvMb5BUjQgAAppV/Yl65M+sIATjDfnxoZf+/0gFZYAEK2b25Am+DpAOUABxgjKKOIh0AANN3aZEUdc6VDHc/AY540Ubpe8mAzNYISICsbL2i93nJfIASgBuCN9Uo4FNqAMB0XVcuaJA/l7trAWcY2ze8PH6JEMgKC1DIVOFA6XYj/YoSgBvySwoSz+kAABzrPDb0FC0qEAJwxz8U9p/zeTIgSyxAIVNbVseT1mojJQBHJgyNOYWXsFMRAODYhItaZGrZYRVwRmp7tqxenRACWWIBCpkbWtn/bSvzQ0oAjkwa5jfLq2PSAAA4yglGU065C5sIAbjCaMvQqoG/IQQyvz6QADNzTkvXSSpRAnDgeA09he08kBwAcHSizqKMz9e5AUeM2zTZQAbMBBagMCOGugd+LumzlADckDunTv6JeUIAAI6If0qtgjfPIQTgjtuGV8bbyYCZwAIUZkyopE/SHkoADjBGUedc8fk1AODwZxZG+Q7uoAXcGe/pmZzJs2s5Zu4yQQLMlB90x3ut9F5KAG7w50YKzmkgBADgsIQXN8prDQkBOMKmduP9XdePUAIzhQUozKwouUPSPxMCcOSQXVqQCblUAABen8l7Che0EgJw5qDVo8Pd/V8lBGYSswrMqOHlcclK6ygBODI2qfUVXtZMCADA64raCzJ5phaAI6yxZq2MsaTATOIqgRk33N3/gJH+ihKAG3KXNctryhECAPDqE4rWULnz+Mo24Aoj86XB7r6fUAIzfr0gAWZFqh5JE4QAHBik+EbR4gIhAACvKuooSh7bVgCOOOR7pV4yYDawAIVZMbiq/3EjfYISgBuCM+sUnFJLCADAb18fzuL6ADjF6n0/XBE/SwjMBhagMGsmJsKbJO2iBOAGPuEGAPwm4xtF7dwhCzjDmidsPvkIITBbWIDCrHn4bTccNNIAJQBHLhitoUKe8QEAeAXPCATcYqTrhpfH45TArM0nSIDZ1PFo8nlZ/R0lADeE7HIEABC7pAKusTJDgyv77qEEZhOzCMyqOI5T45m1ktgCFHBhwpH3FC5oJQQAVLloaUEmZCoBOCLxrekhA2YbVw3MusGuvh9J2kIJwA3hxY3yWkNCAECV8udGCs7hK9mAM4z59NaVvf9ECMw2FqBQFhJjrpM0SgnAhSuHUb6jSAcAqM6JrKLlc8WWFIAz9tnJ0o1kQFlMI0iAcrCtq+8pyd5OCcAN/im1Ck6bQwgAqDK5c+rkH58nBOAKa+Lhq+PdhEA5YAEKZWP8QN37Je2gBOCGqKMo4/MZOABUCxN6Ctu5AxZw5piVfnmgWPwUJVAuWIBC2Xhk9foxyW6mBODIBaQpp9yFTYQAgCoRzm+WV+cTAnBEKq1/bP47piiBspk/kADlZKir/y4rPUgJwJHJyKIWmVomIwBQ6UxjTuElzYQAHGGtvXe4u//7lEA5YQEKZTa6MdaT1yMpJQbgwCEbeooWFQgBABUuv6QgBXztGnDEpJ8G15EB5YYFKJSdwe7ev5f0JUoAbgguaJA/NyIEAFTqef5NNQrOrCME4Ahr7ce2XrX53yiBcsMCFMrzjRl4myQdoARQ/oykqHOuZPhkHAAq7yRvFHXw4HHAIS8EQXgzGVCW83wSoBxtvaL3eWPMrZQA3OCfmFeOT8cBoOKEFzTIK3KXK+AKK9v7wJUb91MC5YgFKJSt1v2lDxvpV5QA3BAtLcjwfBAAqBgm8hS2tRICcOWYlX5aPHDOFymBcsUCFMrWltXxZGq0gRKAI4Oe+kDhpeyQBACVIlzYIpNnp1PAncGY6dmyenVCCJQrFqBQ1oa7+r8jmR9QAnBksnJ5s7z6gBAA4PokoSVUeGETIQB3fGOwq28bGVDW1xYSoOzfpKm3XlKJEoADfE9Re4EOAOC4aGlB8vlaNeAEozFrk42EQNnP7UmAcrd11eZfSPo0JQA3BPPq5J9YQwgAcPU8ftocBW+eQwjAESbVB4dXxtspgXLHAhScMFUK+iXtoQTgwijIKOosiM/NAcBBvnn57icArng68PK3kQEuYAEKTnjorZv2GaObKAE4Mn+Zm1dwbgMhAMAx4UVN8ppDQgCOMNZsuL/r+hFKwAUsQMEZrfvnfdIY/YwSgBuixa0yIZcZAHBmYlDrK7y8hRCAI6z0yGB379cpAWeuMySAK7asXp3YNF1HCcANpjZQuICJDAC4ImxrlYmYHgCOSD2ZHhljSQFXcIWBU4ZW3rhV0l9SAnBD7tImmaYcIQCg3CcFxUi58/jqNOAOc+dgd99P6ACnrjUkgHOn2lTrJU1QAnDgePWM8kt4mC0AlLt8Z1EybB8BOOJgSaaPDHANC1BwzuCq/scl+2eUANwQnFGn4NRaQgBAuZ6nz6qTf1INIQBHWOmWB7t7n6MEXMMCFJw0ORHdLImTLuCIqKMgeXyyDgBlx/eUX1KkA+AKa56oSRs/Sgi4iAUoOOnht91w0Fr1UwJw5GLTEil3Ps8WAYByE13WJNMQEAJwhdH6+1at4XEkcHNOQAK4atmPky9a6W8pATgyyWkryNT4hACAcpnHzgmUm99MCMAVVoND3X3fJQRcxQIUnBXHcepbu1YSW48CLkx08p7Cy1sIAQBlIr+kIJNjOgA4IklS20MGuIwrDpy2deXAI8bqG5QA3BBe2CivNSIEAMwy/4S8gnl1hAAcYWU+te2qgZ9RAi5jAQrOS21yvaQRSgAuXHXMy1t9AwBmjZEUdRQlw+YQgCP2aap0Exng/FSABHDd8Kr4aWN1OyUAN/gn1yg4nU/dAWDWzsPnNsg/Pk8IwBFGdmD46ng3JeA6FqBQEcYOzvmApB2UANwQdRRkfD55B4AZn8iGnqK2AiEAV45Z6Zf7C8d9mhKoBCxAoSI8snr9mLV2IyUARy4+jTnlLm4iBADMsNz8Znl17EgKuMLadN1j898xRQlUxByABKgUwysHvi5pGyUAN0QLW2TmBIQAgJka+DcGii5pJgTgDPvdoZU3/oAOqJjrEAlQSV7ZmjSlBOCAnKeorZUOADBDoqVFKeDrz4AjJr0k2EAGVBIWoFBRtq0a+KmMvkgJwA3BeQ3yj4sIAQBZn29PrlVwBhtAAK4w0ke2XrX53yiBSsICFCpOTslmSfspATgxuFLUyVbgAJDtydYo7ODB44BDXvD83K1kQKVhAQoV5/6u+AVZ3UIJwA3+CTUKzuJTeQDISu6CRvkF7jYFnGHspgeu3MgH6qg4LEChIhUOJn8mWW5ZBRyRX1qQyXFJAoBpn8dGvqK2FkIArhyz0k87H0nvpAQqEaN9VKQtq+NJWXM9JQBHBlt1gXKXNRECAKZZuKhFJu8TAnCDNbJr4zhmUyVUJBagULGGVvb/paTvUwJwQzS/WV59jhAAMF0D/ZZQ4QWNhADc8fWt3QMPkgEVe10iASpZ4mu9pClKAA7wPYWLW+kAANMk31GUfDZ5AJxgNGYSs4kQqGQsQKGibbuy/5ey+nNKAG7InV2n4KQaQgDAMQpOnyP/1FpCAI6w0gcGr+rbQQlUMhagUPGmkuBGSbspATjAGEWdRfF5PQAcw6nUM4qWFggBuOPpUPnbyYBKxwIUKt5Db920z0oxJQBHLkzFSMF5DYQAgKOUu6RJXlNICMAR1pjr7u+6foQSqPhxPglQDYoH5v25pH+iBOCGsL0gE3GJAoAjHtzX+goXtBACcMePhlf0fpMMqIprFAlQDbasXp0Yo3WUAByaQM1nAgUARypsb2UBH3BH6lnbI2MsKVAVY3wSoFoMdvUPGuk7lADckLuUr5AAwBEN7IuRgvMaCQE4wsh8YevKgb+lBKrmOkUCVNUbPkiulTROCcCBQZlnFC1tJQQAHKY8mzgALjk4JTNABlTVfJwEqCYPXBE/Ya39KCUANwSn1ylgG3EAeOPz5dn18k+qIQTgCGPMex7s7n2OEqgmLECh+uTTWyRxsgccEXUUJZ/P9AHgNfmeoiXcMQo45PEoafg4GVBtWIBC1RleHh8yUi8lAEcuVC2hwvMbCAEAryFc0CSvPkcIwBHGmHX3rVozQQlU3bieBKhGHY8mX5L0E0oAjkyu2lpl8j4hAOB3J7J1gcJLmwkBuHPUbh3s6ruXDqhGLEChKsVx/PKWpxJbngIuDNUiX+Eivl4CAL8rWlKQyTGkBxxRssb0kAHViqsVqtbWlQOPyOprlADcEF7YIK81JAQAvMI/Ia/c2XWEAFxh7CeHu3r/mRCoVixAobqvASVzg6QRSgAuHLBGUWeRDgAgyUiKOudKhk0aAEfs9fzgPWRANWMBClVt8Oq+ZyTzQUoAbghOrlVwOp/2A0BwXqP84yJCAK6wtn/rFZv3EALVjAUoVL3xA7W3SWY7JQA3RB1FGZ9P/AFUsZynqK2FDoAz7C9sPv0MHVDtWIBC1Xtk9foxKb2BEoAjF67GQLlLmggBoGpFC5tl5gSEABxhPLNueHlcogSqfhxPAkAa6h74poz+hhKAI5Ovy1uYfAGozsF7Y065i5sJATjCGnvP4Ir++ykBsAAF/MbFweuRlFACcEDOU9TWSgcAVYevIQNOmUyN4ZsWwCtYgAJeMbyi9x8kfYESgBuC8xrkH58nBIDqOe+dXKvg9DmEAFxh9KFtK/p/RQjgZSxAAb8hZ5I+SS9RAnBhTPfynQBsQQ6gOk56RlFnkQ6AO57PJ8n7yQD8BxaggN9wf1f8gpVupgTgBv+EvHJn1xECQMULL2qU1xoSAnCEtXbjfaviA5QA/gMLUMDvOFiY+zFJ/0oJwA3RkoJMjssZgMplIl/h5S2EANzx98t+nP4FGYDfxogd+B2PzX/HlDW6jhKAIxOzukDhpewIBaByRe0tMjU+IQA3WGvN2jiOU1IAv40FKOBVDHf1/5WVvY8SgBvCBU0yDQEhAFTeYL0lUu68RkIAjjBGXx1e2fcQJYBXuaaRAHitq0ewXtIUIQAH+J7yiwt0AFBxoo6C5LPZAuDG/EFjnpf0EgJ4dSxAAa9huGvzvxjpk5QA3BCcXS//pBpCAKic89oZdQpOrSUE4AqrWx+4Mt5JCODVsQAFvI7JUnCTpN2UANyQ7yxKhjsFALjPeEb5JdzZCTjkqbqp5ENkAF4bC1DA63jorZv2GaMBSgCOXNSKkXLn1hMCgPNylzbJNOUIATjCWHPtvVfHo5QAXmesTgLg9bXun/cZSf9ICcANYXtBJuLyBsDhiWxtoHB+CyEAV1g9PNjd+y1CAK+PETrwBrasXp14StdRAnDkwlbrK1zAxA2Au6LFrSykA+5IrW96ZIwlBfAG43QSAG9sa/eNQ5K+TQnADblLmuQ1hYQA4Bx/bl7BuQ2EAFxhzeeGV/T9HSGAN8YCFHCYEqPrJI1TAih/xjOKlrYSAoBjJy+jsKMgtlIAnHHApqUbyQAcHhaggMO0rav/Scl+mBKAG4LT6+SzfTkAh+TOrlNwUg0hAFdYc9PwVfEuQgCHhwUo4EiuMVF6q6RnKQG4Id9RlHzuJQDgAN9TuJg7NwF3mF/nbcMddAAOHwtQwBEYXh4fkuwmSgCOXORaQoUXNBICQNmLFjTJq88RAnCG6blv1ZoJOgBHMDYnAXBkhrr6vyzpx5QA3BAuapHJ+4QAUL7T2PpAucvYvRNwyAND3b3fIwNwZFiAAo54lGisTU2PJLZaBVw4ZCNfURtfawFQvvJLizIBXxcGHFGSbA8ZgCPHAhRwFIZX9T0q6SuUANyQu6BBfiEiBICy459Qo+DMOYQAHGFlPzHUPfBzSgBHjgUo4CiZKbNJ0iFKAC4csEZhZ5EOAMrr1CQp31mQDHc/AY7Y6wfBzWQAjg4LUMBRGry67xlr9H5KAG4I3lSj4Iw6QgAon/PS+Y3yjssTAnCEke3desXmPZQAjg4LUMAxqEkab5fMrykBuCFaWpR4zgqAcpDzeD4d4Jafp1H6OTIAR48FKOAY3LdqzYQ1dhMlAEcueo2BwoubCAFg1kULW2Rq2aETcGYMYdJ1w8vjEiWAYziOSAAcm+Gu/m9ZmR9SAnBDuKBFXh2TPgCzOABvzCnHYjjgEHv31q4bGe8Dx3r9IwFw7IzSdZL4RARw4XgNPYVtBUIAmDVRZ1HG5+vAgCMmrNKNZACOHQtQwDQY6h74uYw+TwnADbm31Ms/ngf/Aph5/im1Ck6bQwjAEUa6fbg75pmvwDRgAQqYJqFNNkvaSwnAhdGkUdRZZOtzADM88jbKd3AHJuCQXVGafJAMwDRdBkkATI8fdMd7ZXQzJQA3+MfnFcyrIwSAGZO7sFFea0QIwBFGZsN9q+IDlACmBwtQwDSyYfJxST+nBOCG/JKCTMilEMAMTGTznqLLWwgBuOOxjkdLXyUDMH0YdQPTaHh5XLJSDyUARyaEcwLlLmsmBIDMhW0FmRp24AQcYa01PXEcp6QApg8LUMA0G+7uf0BGf00JwA3Rpc0yDQEhAGQ34G6JFJ7fQAjAHV8eXtn3EBmAab4ekgCYftYmayVNUAJwQGAULeGhwACyE3UUJI9NDwBHjCbG9JEBmH4sQAEZeHmrVnsHJQA35M6ql/+mGkIAmHbBmXUKTq0lBOAIa/S+bV19T1ECmH4sQAEZyafpTZJ2UQJw5JjtKEqGOxQATB/jGeUXc4cl4JAnFSYfIgOQDRaggIzctyo+YK1iSgCOXBCLkXLn1xMCwLTJXdYs05QjBOAMc/3w8nicDkBG420SANlZ9uPks5IeowTghqitIBNxaQQwDdPY2kDhfHbZBFxhZYaGuvvupgSQHUbZQIbiOE7l2bWSLDUAByaMNb7ChS2EAHDMosWtMiFDbcARiVG6jgxAtrgqAhkbWjHwsIy+RQnADeGFTfKaQ0IAOGr+3EjBuQ2EABxhZT471D3wj5QAssUCFDADEplrJY1SAnBh5mhe3jIdAI6GMYo6i2JLA8AZLyWpN0AGIHssQAEzYFtX31PW2A9TAnBD8OY5Ct7MtukAjuL8Ma9O/ok1hAAcYWRuenDV5hcpAWSPBShghtRPprdK2kkJwA3R0qLkcw8DgCOYyAZGUTt3UALusP+yv1C8gw7AzGABCpgh914dj1preykBOHKBbAkVXtRICACHLbegRV59QAjAEcbY9Y/Nf8cUJYAZGl+TAJg5w939X5X0ECUAN4QLW2VqmUwCOIyJbH2g8NJmQgDOsN8b7LrxPjoAM4cFKGBGR6fGytgeSSkxAAcO2dBTuKiFEADeUH5pUSbga7uAI6ZkzbVkAGYWC1DADBvqGnhMVl+mBOCG3AWN8udGhADwmvwT8wrOnEMIwBFG+tjQyv5/pQQws1iAAmbjwMt5N0g6QAnAiUGqos6iZLizAcBrnSPmco4A3PFiGiU3kwGYhXkwCYCZt/WK3udl9X5KAG7wT6zh7gYAryrgLknALcb2DS+PXyIEMPNYgAJmSeFg8iEj/YoSgBt4vguA35vHhp6iRa2EANzxD4X953yeDMDsYAEKmCVbVseT1mojJQBHJpr1gXLscAXgN7y8U6ZPCMAVqe3Zsnp1QghgdrAABcyioZX935bV/ZQAHJlsLmiRVx8QAoC8ppxyFzUSAnCF0ZahVQN/QwhgFq+dJABm+SC0/jpJJUoADoxdA6Owna/bAHh5cwLj87VcwBHjNk02kAGY5bkvCYDZtXXV5l9I+iwlADfk5tXLPzFPCKCKBafUKngzGxMADrlteGW8nQzA7GIBCigDoZI+SXsoATjAGEWdc8V9D0C1jp6Noo4iHQBnrtt6JmfyHyAEUAaXUBIAs+8H3fFeK72XEoAb/LmRgrfUEwKoQuHFjfJaQ0IAjrAyN9zfdf0IJYDZxwIUUC6i5A5J/0wIwJFDdklBJuQyClQTk/cULuA5cIA7B60eHV7R+zVCAOWBkTNQJoaXxyXZtIcSgCNj2tpA4fxmQgBVJGovyOQZPgOOsMaatTLGkgIoD1xBgTIytPLGrUb6K0oAbshd1iyvKUcIoBoGza2hcuc1EAJwhJH50mB3308oAZTRtZQEQJlJ1SNpghCAA4NbzyhaXCAEUAXyy+ZKHtsPAI445HulXjIA5YUFKKDMDK7qf9xa+3FKAG4IzqxTcEotIYBKPs7PqpP/phpCAI4wxtzywxXxs5QAygsLUEAZmpqM3iPpOUoAbog6itwZAVSqwCjPnY6AO6x5Ig1LHyUEUH5YgALK0MNvu+GglR2gBODIxbQ1VMizYYCKFF3SLNPIs94AVxjpuuHl8TglgDIcM5MAKE/LHk2/IKu/owTghrC9IFPjEwKopInsnEA5drsE3GE1OLiy7x5CAOWJBSigTMVxnBrPrJXE1rGACxPVvKdwARNVoJLklxRkQobLgCMST946MgDliysqUMYGu/p+JOmblADcEF7UJK81IgRQAfzj8wrm1RECcIUxn966svefCAGULxaggDJn0+Q6SaOUAFy4qhrlO3hYMVABE1lFnUXJsLkA4Ih9drJ0IxmAMh8qkwAob8Or4qclezslADf4p9QqOG0OIQCH5d5SL//4PCEAV1gTD18d7yYEUN5YgAIcMH6g7v2SdlACcEPUUZTxuXMCcJEJPYVt3MkIOHPMSr88UCx+ihJA+WMBCnDAI6vXj0l2MyUARy6uTTnlLmoiBOCgcH6zvDp2tARckUrrH5v/jilKAA6MkUkAuGGoq/8uKz1ICcAN0aIWmVomsYBLTGNO4SXsZgm4wlp773B3//cpAbiBBSjAmVGxsWlq10pKiQE4IOcpamulA+CQ/JKCFPD1WcARk34aXEcGwB0sQAEO2bZq4KeSvkQJwA3B+Y3yjuNBxoATx+ubahScWUcIwBVGf7b1qs3/RgjAHSxAAa4dtIG3SdJ+SgAujI2lfAdbuQPlf7AahZ1FOgDueMH3creQAXBsLksCwC1br+h93kq3UgJwg39iXsGZcwgBlLHwggb5hYgQgCOsbO8DV27kA1nAMSxAAQ4qHkg+YqRfUQJwQ35pUYbnygBlyUS+Qp7XBrhzzEo/LR4454uUANzDAhTgoC2r48nUaAMlAEcGy/WBwkvZWQsoR9GiFpk8O1YC7lxUTc+W1asTQgDuYQEKcNRwV/93JPMDSgBuCC9vllcfEAIop4FwS6jcBY2EABxhrL4+2NW3jRKAo9ddEgAOH8Cpt17SFCUAB/ieovYCHYAyEi0tSD5fjwWcYDSm1GwkBODw/JUEgLu2rtr8CyvzaUoAbgjm1Sk4qYYQQBnwT5uj4M1sEAC4wqT64OBVfTsoAbiLBSjAcaWSPyBpDyUAF0bPRmFHQdxvAczyoegZ5ZdyRyLgkKcDL38bGQC3sQAFOO6ht27aZ4xuogTgBn9uXv65DYQAZlHukiZ5zSEhAEcYazbc33X9CCUAt7EABVSA1v3zPmmMfkYJwA35xa0yIZdgYFYGv7W+wgUthAAcYaVHBrt7v04JoAKuwSQA3PfKVrQ9lADcYGoD5eY3EwKYBWFbq0zEEBhwROrJ9MgYSwrAfVx9gQox2NU/KOkvKQE4Mgm+rFmmKUcIYCYHvsVIufP4CizgDnPnYHffT+gAVMh1mARABV2iU62XNEEJwIHj1TPKL+EhyMBMyncWJcM2AIAjDpZk+sgAVA4WoIAKMriq/3HJ/hklADcEZ9QpOLWWEMBMHG9n1ck/qYYQgDPMzQ929z5HB6BysAAFVJjJiehmSVysAUdEHQXJ444MIFO+p/ySIh0AV1jzRD5t4ENVoMKwAAVUmIffdsNBGcvtyoArF+KWSLnzGwkBZCic3yzTEBACcIXR+vtWreGxEkCljXtJAFSezkfSO630t5QA3BC1t8jU+IQAspjHzgkUXtZECMAVVoND3X3fJQRQeViAAipQHMepb+1aSWxZC7gwQY58hZe3EALIQLS0IJNjyAs4IklS20MGoDJxNQYq1NaVA49I+jolADeEFzbKaw0JAUwj/4S8cmfXEQJwhJX51LarBn5GCaAysQAFVPJFPE02SBqhBODCFdko3zmXDsA0MZKijqJkeMg/4Ih9mirdRAaggoe7JAAq1/Cq+GlrdBslADf4J9coOH0OIYBpEJzbIP/4PCEARxjZgeGr492UACoXC1BAhZvYP+eDknZQAnBD1FGU8bljAzgmOU9ReysdAGfYX+wvHPdpOgCVjQUooMI9snr9mLV2IyUARy7MjTnlLm4iBHAMostbZOYEhABcYe36x+a/Y4oQQIWPc0kAVL7hlQNfl7SNEoAjk+eFTJ6Box7cNgYKWcQFHGK/O7Tyxh/QAaiCazQJgOrwypa2CSUAB+Q8RW0tdACOQrS0KAV8jRVwxKSXBBvIAFQHFqCAKrFt1cBPZXQnJQA3BOc1yj8uIgRwJMfNybUKzqgjBOAII31k61Wb/40SQHVgAQqoIjklmyXtpwTgxKBcUSdbyAOHf9CYl48ZAK543vNzt5IBqB4sQAFV5P6u+AVZ3UIJwA3+CTUKzuJuDuBw5C5olNcaEgJwhJE2PXDlRj4YBaoIC1BAlSkcTP5MstzqDDgiv7Qgk+NyDbzuRDbyeW4a4NIxK/2049HkS5QAqgsjWqDKbFkdTxrjXUcJwJFBel2g3GVNhABeR7ioRSbvEwJwgzWya+M4TkkBVBcWoIAqNNjVd6+k71MCcEM0v1lefY4QwKsNZltChRc0EgJwx11buwceJANQhddsEgDVKfG1XtIUJQAH+J7Cxa10AF5F1FGUfB7WDzjBaMwkZjMhgOrEAhRQpbZd2f9LGfspSgBuyM2rl39SDSGA3xCcPkfBqbWEAFxhzfsHr+rbQQigOrEABVSxqalcLGk3JQA35DuL4j4P4GXGM4qWFggBuOPpnIk+RAagerEABVSxh966aZ+svZESgCMX7WKk4LwGQgCScpc0yWsKCQE4whpz3f1d149QAqjisSwJgOpWOHjOpyX9EyUAN4TtBZmIyzeqfABb6ytc0EIIwB0/Gl7R+00yAFV+/SYBUN22rF6dGKN1lABcmng3EwJVjYVYwCmp9cxaGWNJAVT5OJYEAAa7+getsfdQAnBD7pJmvnqE6h288lVUwClG5gvDK/r+jhIAWIACIEkK/PQ6SeOUABwYzPPwZVQxHsYPOOXglMwAGQBILEABeMUDV8RPWGs/SgnADWw/j2qUm1cv/6QaQgCOMMa858Hu3ucoAUBiAQrAb8qnt0h6lhCAG6KOouRzLwiqhO8pXNxKB8Adj0dJw8fJAOB/YwEKwL8bXh4fstb2UgJw5CLeEiq8oJEQqArhgiZ59TlCAI4wxqy7b9WaCUoA+PexKwkA/Kbh7v4vSfoJJQBHJuWLWmTyPiFQ2RPZukDhpez+CDh01G4d7Oq7lw4AfhMLUAB+Z7xgrGdtjyS2ygVcOGQjX1FbCyFQ0fJLCjI5hq2AI0rWmB4yAPhdXMkB/J6tKwcekdXXKAG4IXdBo7zWkBCoSP4JNQrOriME4Agj3THc1fvPlADwu1iAAvDqg4eSuUHSCCUAFw5Yo6izSAdU4kT25fe24WH7gCP2msB/LxkAvBoWoAC8qsGr+56R9AFKAG4ITq5VcAZ3iaDC3tfnNco/LiIE4Apr+7desXkPIQC8GhagALz2GCJKbpPMdkoAboiWFqWAO0VQIXIezzcD3Bo5/sLm08/QAcBrYQEKwGsaXh6PS+kNlAAcuag3BgovbiIEKkK0sEVmTkAIwBHGM+uGl8clSgB4zbEqCQC8nqHugW/K6G8oATgyab+cSTsqYIDamFOOxVTAGdbYewZX9N9PCQCve30nAYA3HlR4PZISSgAOyHmK2lvpAKdFHUUZn6+TAo6YTI3hjnkAb4gFKABvaHhF7z9I+gIlADcE5zbIPz5PCDjJP7lGwelzCAG4wuhD21b0/4oQAN4IC1AADkvOJH2SXqIE4MJc4OU7SNi6Hu6NTI3ynXPpALjj+XySvJ8MAA7rMk8CAIfj/q74BSvdTAnADf4JeeXOriMEnBJe2CivNSQE4AhrzA33rYoPUALA4WABCsBhO1iY+zFJ/0oJwA3R0oJMjks93GAiX+HlLYQA3PH3yx4pfZkMAA4Xo1IAh+2x+e+YkrxrKQE4MqGfEyi8rIkQcELU3iJT4xMCcIO11qyN4zglBYDDxQIUgCMy1N37PSt7HyUAN4Tzm2UaAkKgvAekLZFy5zcSAnCEMfrq8Mq+hygB4Iiu9yQAcOSjjmC9pClCAA7wPeWXFOmAshZ1FCSPh+YDjhj1vKSXDACOFAtQAI7YcNfmf7Gyd1ACcENwVp38k2oIgfJ8f55Rp+DUWkIAjjDW3PrAlfFOSgA4UixAATg6UXqTpBcJAbgh31mUDHeYoMwmsp5RfkmBEIA7nppTKn2YDACOBgtQAI7K8PL4JSM7QAnAkQt+MVLuvAZCoKyElzXLNOUIATjCWHPtvVfHo5QAcFTjURIAOFqtB875rKR/pATgyGS/rVUm4tKPMpnI1gbKzW8mBOAKq4cHu3u/RQgAR4tRKICjtmX16sRTuo4SgCMX/Vpf4eUthEBZyC9ulQkZigKOSOXZtTLGkgLAUY9FSQDgWGztvnFIsndTAnBD7uImec0hITCr/Ll5+efylVDAGdZ8bqhr4DFCADgWLEABOGaJMddLGqcEUP6MZxQt5aHPmM03oVHYURCPxAecccCmpRvJAOBYsQAF4Jht6+p/UrLsiAI4IjhtjoI3s+09Zun9N69OwUk1hABcYc1Nw1fFuwgB4FixAAVgesYmUXqrpGcpAbghWlqUfO5BwQzzPUXt3IEHuMP8Om8b7qADgOnAAhSAaTG8PD4k2U2UABwZALSEyl3QSAjMqPDyZnn1ASEAV1i79r5VayYIAWBaxp8kADBdhrr6vyyrhykBuCFa1CKT9wmBGWHqA4WXNhMCcMcDQyv7/5oMAKYLC1AApnF2Yaw8u1ZSSgzAgUM28hW2tRICMyK/tCgT8LVPwBElyfaQAcB0YgEKwLR6ZYver1ICcEN4QYO8YkQIZMo/Ma/gzDmEAFxh9fGh7oGfEwLAdGIBCsD0j1mSZIOkA5QAHGCMoo4iHZDdW0xSvqMoGe5+AhyxNzTJzWQAMN1YgAIw7YavindZow9SAnBD8KYaBWfWEQLZvL/Ob5R3XJ4QgCOs1eYfdMd7KQFgurEABSATNUnj7ZL5NSUAN+SXFCSez4PplvMU8ZwxwCU/Vz75PBkAZIEFKACZeGXL3o2UANxgGnMKL2GHMkyvaFGLTC07LQLOTA5Num54eVyiBIBMzjEkAJCVoe6+u63MDykBuCGc3yyvjsUCTNMgsymn3EVNhAAcYay+tbXrRsZtALIbG5AAQKaDGaXrJPFJGuDC8Rp6CtsKhMC0iDqKMj5f6wQcMZGaZBMZAGSJBSgAmRrqHvi5lfkcJQA35N5SL/94HhiNY+OfUqvgtDmEABxhpNuHu2Oe3QkgUyxAAchcpFKvJHZTAZyYhRhFnUXJcOcKjnZ0aZTv4E46wCG7ojRh92IA2Q8RSAAgaz/ojvfK6GZKAG7wj88rN6+eEDgq4UVN8lojQgCOMDIb7lsVH6AEgKyxAAVgRtgw+bikn1MCcEO0pFUmZJiAI5zI5j2FC9hNEXDIYx2Plr5KBgAzgZElgBkxvDwuWamHEoAbzJxAuctYSMCRCdsLMjXspAg4wsrYd8VxnJICwExgAQrAjBnu7n9Ast+jBOCG6NJmmcYcIXB4g8rWUOF5DYQA3PHloa6BH5MBwIyNFUgAYCZZpT2SJigBOCAwyi/mYdI4PFFHUfJ4eD3giEOBl2wiA4CZxAIUgBn18ha/9g5KAG4IzqqTf0otIfD675Mz6xTwPgEcYm794Yr4WToAmEksQAGYcfk0vUnSLkoAjhyz3NmC15vGekYRd8oBLnnSRqUPkwHATGMBCsCMu29VfEDG3kgJwJHBQmuoHM/2wWvIXdYsr4lnhQHuMNcPL4/H6QBgxseUJAAwGzofST8n6TFKAG6I2gsyeYYN+J1pbG2gcD67JQKusDJDQ919d1MCwGxgJAlgVsRxnMqzayVZagDlz+Q9hQtaCYHfEi0pyIQMJwFHJEbpOjIAmC2MGADMmqEVAw/L6FuUANwQXtworzUkBCRJ/txIwVvqCQE4wsp8dqh74B8pAWC2sAAFYFYlMtdKGqUE4MKowSjqKNIBkjGKOovi0fSAM15KUm+ADABmdShJAgCzaVtX31OSPkQJwA3BKbUK3jyHEFUuN69e/ok1hAAcYWRuenDV5hcpAWA2sQAFYNaNH5hzq6SdlADcEHUWZXzufanaiWxgFLbzPDDAHfZf9heKd9ABwGxjAQrArHtk9foxa20vJQBHBg9NOeUuaiRElQoXtMirDwgBOMIYu/6x+e+YogSAWR9DkgBAORju7v+qpIcoAbghXNgqU+sTotomsvWBcpc2EwJwhv3eYNeN99EBQDlgAQpAmcxqjDXy1kpKiQE4cMiGnqJFfA2r2uSXFmUCvn4JOGJK1lxLBgDlggUoAGVjsLv372X1ZUoAbgguaJQ/NyJElfBPrFFwJg+gB1xhpI8Nrez/V0oAKBcsQAEor5NSzrtB0gFKAE5MbhR1zpUMd8RUx2td5LUG3PFCGiU3kwFAWc31SACgnGy9ovd5Wb2fEoAb/BPz3BVTBXLc7QY4xUh9w8vjlygBoJywAAWg7BQOJh8y0q8oAbiB5wJV+EQ29BQuaiEE4I5/aD0w7wtkAFBuWIACUHa2rI4nZc0NlADcYOoDhZewM1qlennHw4AQgCtS27Nl9eqEEADKDQtQAMrS4Mq+e2R1PyUAN+Qub5FXzyJFxQ0Um3LKXdxICMAd3xxaNfA3ZABQluMKEgAo2xOU9ddJKlECKH8mMIraC4SoMFFnUcbj65WAGydijVmbcAc5gPKd35EAQLnaumrzL2TMZygBuCGYVyf/xBpCVMrr+eY5Ct7MA+YBZ1jdPrwy3k4IAOWKBSgAZS20pX5JeygBOMCYl++YoYT7fKOogzvaAHfOv3omZ/IfIASAcsYCFICy9oPueK+seQ8lADf4cyMF5zYQwnHhhU3ymkNCAI6wMjfc33X9CCUAlDMWoACU/6AqX/qkpH+mBOCGaHGrTMgQw1Wmxle4sIUQgCvjJOmR4RW9X6MEgHLH6BBA2RteHpdk0x5KAG4wtYHCBSxguCpqK8hEDBEBR1hPpkfGWFIAKHeMLgA4YWjljVuttfdSAnBD7tImmaYcIVwbGBYj5c6vJwTgCCPzpcHuvp9QAoAT4wwSAHDmhGXNOkkTlAAcmBR5RvnFPMTaNfmOomR4jDzgiEO+V+olAwBn5nMkAOCKwVX9j1trP04JwA3BmXUKTq0lhCNyZ9XLf1MNIQBHGGNu+eGK+FlKAHAFC1AAnDI1Gb1H0nOUANwQdRQkjztqyl5gFC3hjjXAGdY8kYaljxICgEtYgALglIffdsNBKztACcCRgUZLpPD8BkKUueiSZpmGgBCAI6xnrx1eHo9TAoBT40ISAHDNskfTL1jpbykBuCFsK8jU+IQoU2ZOoNz8ZkIArrAaHO7q/w4hALiGBSgAzonjOPWM6ZHElsOAA0zeU3R5CyHKVH5JQSZkSAg4IvHkrSMDABcx2gDgpMGuvh9J+iYlADfkLmyU1xoRosz4x+cVzKsjBOCOP9+6svefyADARSxAAXCWTZPrJI1QAnBhxGGU7yzSoZwYo6izKBkeEg84Yp+dSmIyAHB2OEgCAK4aXhU/baxupwTgBv/kGvmnzSFEmci9pV7+8XlCAK6wJh6+Ot5NCACuYgEKgNPGDs75gKQdlADckO8syvjccTPbTOgpbCsQAnDlmJV+eaBY/BQlALiMBSgATntk9foxyW6mBODIwKMxp9zFTYSYZeGCFnl17EwIuCKV1j82/x1TlADg9DiQBABcN9TVf5eVHqQE4IZoYYtMLYsfszb4awwUsggIuOQvh7v7v08GAM6PQUgAwHnG2DS1ayWlxAAckPMUtbXSYZZES4tSwNcgAUdMeol/PRkAVAIWoABUhG2rBn4qmTspAbghOL9R3nE8AHvGu7+pRsEZdYQAXGH0Z1uv2vxvhABQCViAAlAxcqa0SdJ+SgAuzKmkfGdBMtyJM3PRjcLOIh0Ad7zge7lbyACgUrAABaBi3N8Vv2ClWykBuME/oUbBWdyNM1NyFzTIL0SEABxhrTY/cOVGPlgDUDFYgAJQUYoHko9IllvVAUfklxZkeB5R5kzk89wtwKVjVvrpsh8nX6QEgErCAhSAirJldTwpeRsoATgyyaoLlLushRAZixa1yOTZeRBw5+RoeuI4ZnMVABWFBSgAFWeou++7kvkBJQA3RAua5NXnCJHVYK8lVO6CRkIAjjBWXx/s6ttGCQAVNyYhAYCKPLml3npJU5QAHOB7Chfz9bCs5DuKks/XHAEnGI0pNRsJAaAi52gkAFCJtq7a/Asr82lKAG7InV2n4KQaQkyz4PQ6+afWEgJwhEn1wcGr+nZQAkAlYgEKQMUqlfwBSbspAbgw6zIKOwriPp1pTOoZRUu5swxwyNOBl7+NDAAqFQtQACrWQ2/dtM/I3kQJwA3+3LyCcxsIMU1ylzTJawoJATjCWLPh/q7rRygBoFKxAAWgorUeOOdTxuhnlADcEC1ulYkYnhzzAK/WV7iA3QUBV1jpkcHu3q9TAkBFj09IAKCSbVm9OpHUQwnADaY2UDifhZNjFbYXWMgD3JH61q6VMZYUACoZIxMAFW+wq39Qst+lBOCG3KVNMk05Qhzt4K4YKXduPSEAZ5g7t64c+Fs6AKj4MQoJAFQDP0jXS5qgBODAVMwzyi8pEOIo5TuLkuFx7oAjDpZk+sgAoBqwAAWgKjxwRfyEZP+MEoAbgjPqFJxaS4gj7XZ2vfyTaggBOMPc/GB373N0AFANWIACUDUmJ6KbJTHIAxwRdRQknzt5DpvvKb+YO8cAhzyeTxv4cAxA1WABCkDVePhtNxyUsdzmDrgySGmJlDuvkRCHKVzQJNMQEAJwhdX6+1at4fEAAKpnbEcCANWk85H0Tkk/oQTghqi9RabGJ8QbMHMChZc2EwJwhdXg0Mr+vyQEgGrCAhSAqhLHcepZ2yOJrY4BB5jIV3h5CyHeQLS0IJNjWAc4IklS20MGANWGkQqAqrN15cAjkr5OCcAN4UWN8lpDQrwG/4S8cmfXEQJwhdUnt1018DNCAKg2LEABqM6xX5pskDRCCcABxijqLNLh1dJIijqKkuFh7YAj9nk5/yYyAKhGLEABqErDq+KnrdFtlADcEJxcq+D0OYT43S7nNsg/Pk8IwBFW6t96xeY9lABQjViAAlC1JvbP+aBktlMCcEPUUZTxudPn3+U8Re2tdACcYX9xsDD3M3QAUK1YgAJQtR5ZvX7MGm2kBODIoKUxp9zFTYR4RXR5i8ycgBCAK6xd/9j8d0wRAkDVjuVIAKCaDXf1fUPSNkoAbogWsugiSV5joNwlTbwhAEcY6TtDK2/8ASUAVPX4hQQAqt0rWyEnlAAckPMUtfG1M76OCDhlsuRpAxkAVDsWoABUvW2rBn5qZL5ICcANwXkN8o+Lqvf3P7lWwel1vBEARxjpI9tW9P+KEgCqHQtQACApMKVeSfspATgxmVPUOVcyVXgHkDGKOou8CQB3PO/5uVvJAAAsQAGAJOn+rvgFY8zNlADc4J+QV+7s6rsLKLywQV5ryBsAcISRNj1w5UY+4AIAsQAFAP+udX/pY5L9N0oAboiWFGRy1TOUMZGvcBHPvwIc8vcdjyZfIgMAvIwFKAB4xZbV8aQx3nWUANxg6gKFlzZXze8btrXK5H1eeMAN1pPtieM4JQUAvIwFKAD4DYNdffdK+j4lADeEC5rk1ecqf8DWEio8v4EXHHDHXVu7Bx4kAwD8xniGBADw2xJf6yVNUQJwgO8pWlz5X0uLOoqSb3i9ARcYjZnEbCYEAPw2FqAA4Hdsu7L/lzL2U5QA3BDMq5d/Uk3l/n6n1yk4tZYXGnCFNe8fvKpvByEA4LexAAUAr2JqKhdL2k0JwA35zqJkKu8OIeMZRUt58DjgkKfrpkq3kwEAfh8LUADwKh5666Z9svZGSgCODGiKkXLnVt4zknKXNMlrCnmBAUdYY6679+p4lBIA8CrjNRIAwKsrHDzn05L+iRKAG8L2VpmocoY2Xq2vcEELLyzgjh8Nr+j9JhkA4DXGNiQAgFe3ZfXqxFPaQwnAkUFNhS3YhO2FilpQAypcaj2zVsZYUgDAa4zVSAAAr21r941D1th7KAG4oVK+suYVIwXnNfCCAu74/PCKvr8jAwC8zviGBADw+gI/vU7SOCWA8lcpD+2OOosyvJyAKw7aJBkgAwC8PhagAOANPHBF/ISMPkIJwA3B6XXyT6119ufPzatXcFINLyTgCGPMe4avindRAgBeHwtQAHAYbJi8T9KzlADckO8oSr6D9xD5nsLFrbyAgDsej5KGj5MBAN4YC1AAcBiGl8eHrLW9lAAcGeC0hAovaHTu547mN8urz/ECAo6wRj33rVozQQkAOIzxGQkA4PAMd/d/SdJPKAG4IVzUIpP3nfl5TV2g3GVNvHCAO0ft1uGu/r+iAwAcHhagAOCwx5nG2tSslcQWy4ALh2zkK2pz5+ts+aUFmRxDM8ARJWtMDxkA4PAxygGAIzC8qu9RWX2NEoAbchc0yC9EZf9z+ifUKDirjhcMcISR7hju6v1nSgDA4WMBCgCOdNBZMjdIGqEE4MIBaxR2FMp9IquosygZw+sFuGGvCfz3kgEAjgwLUABwhAav7ntG0gcoAbghOLlWwRnle3dRcF6D/OMiXijAEcaob+sVm/dQAgCODAtQAHAUbJTcJpntlADcEC0tSkEZ3mGU85x6ThUA+4s0TD5LBwA4cixAAcBRGF4ejxurDZQAHBnwNAaKLmkuu58rWtgiMyfgBQIcYTyzbnh5XKIEABzFeIwEAHB0Blf2bZHR31ACcENufrO8Or98BmGNOeUubuKFAdzx7cEV/feTAQCOcuxDAgA4etZ4PZISSgDlz4SeorbyeSB51FGQ8XnwOOCIycTTRjIAwNFjAQoAjsHwit5/kDWfpwTghuAt9fKPz8/6z+GfXKPg9DpeEMAVRh/atqL/V4QAgKPHAhQAHKOS9fokvUQJwIVJpFHUWZTMLN555BnlO4u8FoA7ns8nyfvJAADHOAQiAQAcmwdXbX5R1ryXEoAb/OPzCubN3t1H4YWN8lojXgjAEdaYG+5bFR+gBAAcGxagAGAaHCgWPy7pXykBuCG/pCCTm/lhkMl7Ci9v4QUA3PHYskdKXyYDABw7FqAAYDpGp/PfMSV511ICcIOZEyg3v3nG/92orSBT4/MCAG6w1pqeOI5TUgDAsWMBCgCmyVB37/es7H2UANwQXdos0xDM3KCrJVLu/AbCA44wRl8dXtn3ECUAYJrGQiQAgOkcrQbrJU0RAnBAYJRfMnMPA486CpJn6A64YdTzkl4yAMD0YQEKAKbRcNfmf7Gyd1ACcENwVp38k2qy/3fOqFNwai3BAUcYa2594Mp4JyUAYPqwAAUA0y1Kb5L0IiEAN+Q7i5LJ7s4k4xnllxQIDbjjqTml0ofJAADTiwUoAJhmw8vjl4zsACUARwZDxUi58+sz+/tzlzbJNOUIDTjCGq2/9+p4lBIAMM1jLhIAwPRrPXDOZyX9IyUAN0RtBZlo+odFpjZQuKCFwIArrB4eXtF3NyEAYPqxAAUAGdiyenVirXm3JEsNoPyZGl/h5dO/UJRf3CoTMtwCHJHKs2tlDNduAMgAIyIAyMjLWzfbb1MCcEN4UZO85nDa/j5/bl7+uQ2EBVxh9NmhroHHCAEA2WABCgAy5Pvpekk8RwJw4oA1ipZO08PCjVHUWZChKuCKA7aUxGQAgOywAAUAGXrgyninkT5CCcANwWlzFLy59tj/nnl18k+sISjgCmtuGr4q3kUIAMgOC1AAkLE5U8n7JO2kBOCGaGlR8o/h3iXfU9ReICTgDPPrvG24gw4AkC0WoAAgY/deHY8amT5KAI4MjlpChRc2HfV/H17eLK8+ICTgCmvX3rdqzQQhACDjMRYJACB7g129X5HVw5QA3BAubJGp8Y/4vzP1gcJLmwkIOMLK/HBoZf9fUwIAsscCFADMBGOsPLtWUkoMwIFDNvIUtrUe8X8XLS3IBDx6HHBEyShdRwYAmBksQAHADHlla+evUAJwQ3h+g7xidNh/3j8xr9yZdYQDXGH18aHugZ8TAgBmBgtQADCTJ93A2yDpACUABxijqKN4eH9UUr6jKBnufgIcsTc0yc1kAIAZnAuRAABmztYrep+3Rh+kBOCG4E01Cg7jrqbgggZ5x+UJBjjCWm3+QXe8lxIAMHNYgAKAGVaTNN4umV9TAnBDfklBep3nOpnQU7SoQCjAHT9XPvk8GQBgZrEABQAz7JWtnjdSAnCDacwpvOS1d7YLF7XI1PqEAlyZAJl03fDyuEQJAJjh8y8JAGDmDXX33W1lfkgJwA3h5S0y9cHvD6Sacspd2EQgwBHG6ltbu27k+gsAs4AFKACYrUHwy1s/8wks4MLxGhhFbb//Nbuooyjj8+BxwBETqUk2kQEAZgcLUAAwS4a6B35uZT5HCcANuXPq5J/4Hw8a90+pVXDaHMIAjrDG3jbcHfMMRgCYJSxAAcAsilTqlbSHEoADjFHUOVdGkjyjfEeRJoAzx6+eUZh+gBAAMHtYgAKAWfSD7nivkbmZEoAb/LmRgnMaFF7UJK81JAjgCGPNpuHl8SFKAMDsYQEKAGZZGpU+IennlADcEC4uKFzYTAjAFUaPDnb1foUQADC7WIACgFk2vDwuWamHEoAjg6c6XybyCQG4wUq2R8ZYUgDALI+hSAAAs2+4u/8ByX6PEgAATKsvD3UN/JgMADD7WIACgDJhlfZImqAEAADT4lDgJZvIAADlgQUoACgTw93xr430CUoAADAdzK0/XBE/SwcAKA8sQAFAGZmYCG+StIsSAAAckydtVPowGQCgfLAABQBl5OG33XBQxt5ICQAAjoHVdcPL43FCAED5YAEKAMpM5yPp5/7/7d1pm111nf/776+qCKG1jzcAz0PQB+B1/ne6IXWdJDWENOd//ueqp+Cdc0glQkhStYuVToRmEBUVp1bUttu2002j2B0SU1XbAgwOOKGiDSqDqNAMpgJkqr1+54Y4AUkqSQ1reL3uBULV3u+V1F77w6pakePbSgDAucuRZmdHOncrAVAtBiiAiimKooz+PB4RbhkNAOeml6LcKgNA9RigACpoduPUg5HiX5UAgHPyidnhqe/LAFA9BiiAiupFek9EvKoEACzKS/lUb0oGgGoyQAFU1NzQ5NMR8T4lAODscsTu7ubieSUAqskABVBhx+ffclNEPKUEAJxJ/snRy95+pw4A1WWAAqiww2PbjuWUdikBAKeXUt728LvefUoJgIweJhAAAChNSURBVAp/rZYAoOJyToMH9s5FxF+JAQBveEPzlZnhzmYlAKrNFVAAlT+zTjlF35aIKMUAgD9zKue4VgaA6jNAAdTAzPDEd1KkzykBAH+UIu6YHen8VAmA6jNAAdTlJHsg7YiIeSUAICIinisv7u2VAaAeDFAANTG9fuLZlNJNSgBARIqY7A4Wv1UCoB4MUAA1cumRhdtTxGNKANBy37t0/h2flgGgPgxQADWyb6w4GTldrwQArVbm8X1jYz0hAOrDAAVQMzMjk/8eOQ4qAUBL/cvs6NTXZACoFwMUQB2/eOf+rRGxoAQArZLiWM49VwID1PE9jAQA9TM9uuvHkdInlACgVXK+tTtSPCEEQP0YoABqak1e6ETEC0oA0AopnrkoXXKLEAD1ZIACqKkDw8WLkdPfKgFAG+RI1x8cuu4VJQDqyQAFUOeT8bULd6YUjygBQKNf7yIOdzdO/JMSAPVlgAKose5gsZDLcqsSADRY2RdpPFLKUgDUlwEKoOZmR26YzjnfqwQADfXZmeHJb8oAUG8GKIAmfDHPaWtEnFACgIZ5eSH6JmQAaMB7FgkA6m9mtPOzSHGHEgA0SUrpvfcPT/xaCYD6M0ABNMTJ42v2RISTdACaIaefl2sWPiAEQDMYoAAa4sGrrz+aI08pAUAT5L78nu5gcVwJgGYwQAE0yLqHyk/niG8pAUCt5ZjpDnXuEQKgOQxQAA1SFEXZl9J4RLhVNQB11euLvq0yADSLAQqgYWaGJr+ecnxRCQBq6mPTIxM/kAGgWQxQAA1U5t51EfGKEgDUzEv5VK+QAaB5DFAADdQdLX6ZctymBAB1klLc0N1cPK8EQPMYoAAa6tjRt9wcEU8qAUAdpIhHj1z69o8pAdBMBiiAhjo8tu1YymmnEgDUQRmx7eF3vfuUEgDNlCQAaLZ19+2ZSxF/rQQAFfbl2eHO1TIANJcroAAarizzlogolQCgok729fqvkwGg2QxQAA03Nzr13Yj0GSUAqKQUH5zetOu/hABoNgMUQAtclBZ2RsQRJQComOf6+y56rwwAzWeAAmiBg0PFcxHpRiUAqJKcY9ehDTv8DxKAFjBAAbTEZfMLH4jIvsUBgEpIEd9d943eXUoAtObrPgBtMXjf3qsj8j1KALDqb0RSunJmaHJOCYB2cAUUQIvMDk9+KSIdUAKA1ZRy/LPxCaBdDFAALdPrz1sj4pQSAKyKFMeiTDuEAGgXAxRAy8xt6DyaI31cCQBWQyrjlplNk08qAdAuBiiAFlpY6J+KiOeVAGCF/XKgb+2tMgC0jwEKoIUeuGrnSynybiUAWEk55+sODl33ihIA7WOAAmipS+ff+dGU4hElAFgJOeJwd7jzRSUA2skABdBS+8bGehExrgQAK6Dsz3lLpJSlAGgnAxRAi80MdWYi8peUAGBZpbhremTqW0IAtJcBCqDl+gfKbRFxQgkAlsnRhdzXkQGg3QxQAC13aH3x8xTxASUAWB5p7/3DE7/WAaDdDFAAxIkTa94bEd4cALDUfra2/N8+KAMABigA4sGrrz+aIiaUAGBJ5di2f/Qa3+YNgAEKgN+54qHeZyPim0oAsDTS9OxI58s6ABBhgALgNUVRlH05j0eEW2QDcKF6vV65VQYAfs8ABcAfTI9MHY6ILygBwAXJcefcpqlHhADg9wxQAPyZdCptj4hXlADgPL3Ud1H/bhkA+FMGKAD+zMzmyWci0i1KAHA+ckRnev2uF5QA4E8ZoAB4g+Pzf3FrRHpCCQDOTf5xXNz7uA4AvJ4BCoA3ODy27VhOsUMJAM5Jztu6g8WCEAC8XpIAgNMZPLCnGzmuVAKARbyxuGdmuPM/lQDgzbgCCoDTyqlvPCJ6SgBwFicX+mK7DACcjgEKgNPqbpz4Xop0lxIAnEnO+fa5jZ3HlADgdAxQAJzRQFqYiIgjSgBwGs9eksubZADgTAxQAJzRwaHiuZTSXiUAeDMpYuf+0WJeCQDOxAAFwFldemThjoj4qRIAvM53rnio91kZADgbd8EDYFHWHdhzVcpxrxIAvCb3Rb5yenjqfikAOBtXQAGwKN2hzlci4j4lAHjNF4xPACyWAQqARev1x7aIOKUEQMulOJZ6aZcQACyWAQqARZvb0Hk0RdypBEDL5fR3M5smnxQCgMUyQAFwTk4uDOyOiOeVAGitp996auE2GQA4FwYoAM7JA1ftfClyvkEJgLbK1967uXhVBwDOhQEKgHN22dF3fjwifqAEQOt8fXaos08GAM6VAQqAc7ZvbKzXF+W4EgCtUua+tCVSylIAcK4MUACcl+nhG2Yj4m4lAFrjU92Nk9+WAYDzYYAC4Lz1UlwbEceVAGi8o7nXm5IBgPNlgALgvM0NdX4RKd6vBECz5Yjd3U3Fb5QA4HwZoAC4sDcla3o3RsSvlABorJ9dUr7twzIAcCEMUABckO5g8XJOaZcSAM2UU4zvH73mhBIAXIgkAQAX/u4kp8EDex+KiP9DDIBGOTQ73NkgAwAXyhVQAFy4lHIu05aIcGtugOZYyKlvqwwALAUDFABLojs6+VBK8Y9KADRDivhId2jih0oAsBQMUAAsnZNpR0S8LARA7b2YBvr3yADAUjFAAbBkZjZPPpNyulkJgHpLKSan1+96QQkAlooBCoAlVa5duC0iPaEEQG39qFzT+6QMACwlAxQAS6o7WBxPObYrAVDTNwip3NodLBaUAGApJQkAWA6D9+2ZjYh1SgDUyt2zw53/JQMAS80VUAAskzweET0dAGrjZK8vdsgAwHIwQAGwLGaHp74fOX1KCYC6yLfNbew8pgMAy8EABcCyWch9kxHxWyUAKu/ZtWXpLqYALBsDFADL5v7RXf8dOe1RAqDackrX7x8t5pUAYLkYoABYVvOXX/6hiPipEgCV9fC6wwv/IAMAy8ld8ABYdoP794xGiv9QAqBycs7piu7I5ANSALCcXAEFwLKbHen8Z468XwmAyvm88QmAlWCAAmCFlNdExEkdACrj1f7+3qQMAKwEAxQAK6I7XDweOT6iBEA1pJxuOrSheEoJAFaCAQqAFbM294qI+I0SAKvu6bcsLNwuAwArxQAFwIrZP1rM5xyFEgCrK6fYdu/m4lUlAFgpBigAVtS6b/Q+GREPKwGwSnI82N04+W9CALCSDFAArKiiKMqc03hEZDUAVlwZfXlLpORrMAArygAFwIrrjkw+kHL4v+8AKy3FJ2eHplyFCsCKM0ABsCoW+tK2iPDzRwBWznxe6BUyALAaDFAArIq5ocmnU8T7lQBYISmK7qbCnUgBWBUGKABWzVtO9W6MiKeUAFhu6fHLjvQ+ogMAq8UABcCquXdz8WqKNKkEwDLLecu+seKkEACsliQBAKv8pigNHtg7FxF/JQbAMnyZjfTV7vDkRiUAWE2ugAJgdaWUI+XxiCjFAFhyCynKrTIAsNoMUACsutduCf55JQCWWI4PzQ5P/UgIAFabAQqAarwgDfRtj4h5JQCWzItrUm+vDABU4nxfAgCqYHr9xLMR6WYlAJZGzrHrwHDxohIAVIEBCoDKuGx+4baI9LgSABfs+5cffcffywBAVRigAKiM124RvkMJgAuTc4zvGxvrKQFAVRigAKiU2eHJf8uRvqoEwPlJOf61O9LpKgFAlRigAKjem6ff3TJ8QQmAc3Z8oS+2ywBA1RigAKic124Z/kklAM5NTvm2uaHOL5QAoGoMUABU0proTUbEC0oALFKKZ2JN6W6iAFSSAQqASjowXLyYIu1VAmBxcpl3dAeLl5UAoIoMUABUVnnxwocj4odKAJxFioe6w51/FAKAqjJAAVBZ3cFiIUdsVQLgjHJEHo+UshQAVJUBCoBK6w53DkXk/1AC4DRyfG52aOobQgBQZQYoAGrw3qocj4gTSgC8wcsD/b1dMgBQdQYoACqvO1w8niI+rATA6+S48asbi18JAUDVGaAAqIUTJ9bsjojfKAHwB7/Ia3vvlwGAOjBAAVALD159/dEUMaUEwGtyXNsdLI4LAUAdGKAAqI0rHup9KnJ8Wwmg7XKk2dmRzt1KAFAXBigAaqMoijL683hEuNU40Ga9/pzGZQCgTgxQANTK7MapByNinxJAi31iemTiBzIAUCcGKABqp5fStRHxqhJAC72UT/X8PDwAascABUDtzA1NPh0R71MCaJscsbu7uXheCQDqxgAFQC0dn3/LTRHxlBJAe+SfHL3s7XfqAEAdGaAAqKXDY9uO5ZR2KQG0RUp528PvevcpJQCo5euYBADUVs5p3YG9X0sRfy0G0PCT9q/MDHc2KwFAXbkCCoAavyNLuS/6xiOiFANosJM5x7UyAFBnBigAam1meOI7KdLnlACaKud8x+xI56dKAFBnBigAai8NpB0RMa8E0EDPDQys2SsDAHVngAKg9qbXTzybUrpJCaBpUsTkoQ07jigBQN0ZoABohEuPLNyeIh5TAmiQ7106/45PywBAExigAGiEfWPFyTLFdiWAxijz+L6xsZ4QADSBAQqAxugOde6JHAeVABrgX2ZHp74mAwBNYYACoFkvbLl/a0QsKAHUVopjOfeuFwKARp2nSwBAk0yP7vpxRHxcCaC2cr61O1I8IQQATWKAAqBxTi0MdCLiBSWA2knxzEXpkluEAKBpDFAANM4DV+18KaXYrQRQOzlvPzh03StCANA0BigAGqlc0/toSvGIEkBd5IjDs0OdLygBQBMZoABopO5gsZDLcqsSQE2UfZHGI6UsBQBNZIACoLFmR26YjogvKwHUwGdnhie/KQMATWWAAqDRUhnbIuKEEkCFHV2IvgkZAGgyAxQAjTYz2vlZpLhDCaCqcsR77x+e+LUSADSZAQqAxjt5fM2eiPDmDqienH4eF/c+KAQATWeAAqDxHrz6+qM5R0cJoGpyX35Pd7A4rgQATWeAAqAV1n2jd1eO+JYSQGXkmOkOde4RAoA2MEAB0ApFUZT9OW+JCLc4B6qg1yvzuAwAtIUBCoDWmB6ZOpxyfFEJoAI+Nrdp6hEZAGgLAxQArVLm3nUR8YoSwCp6KZ/qFTIA0CYGKABapTta/DLluE0JYLWkFDd0NxfPKwFAmxigAGidY0ffcnNEPKkEsNJSxKNHLn37x5QAoG0MUAC0zuGxbcdSTjuVAFZazuXWh9/17lNKANA2SQIA2mrwvj1fi4grlABWyJdnhztXywBAG7kCCoDWeu0W6KUSwAo42dfrv04GANrKAAVAa82NTn03In1GCWD55Q9Mb9r1XzoA0FYGKABa7aK0sDMijigBLKPn+vvX3CgDAG1mgAKg1Q4OFc9FJG8MgeWT8s5DG3YYugFoNQMUAK132fzCByKyb40BllyK+O6Vh8vPKAGA10QAIAb37/mbSPElJYAlPdlO6cqZock5JQBoO1dAAUBEzI50vhyRDigBLKEvGJ8A4HcMUADwml5/3hoRp5QALliKY6mXdgoBAL9jgAKA18xt6DwaOT6mBHChUhm3zGyafFIJAPgdAxQA/IlTvYEbIuJ5JYAL8MuBvrW3ygAAf2SAAoA/8cBVO1/KEYUSwPnKOV93cOi6V5QAgD8yQAHA61w+/46PpRSPKAGcqxxxuDvc+aISAPDnDFAA8Dr7xsZ6ETGuBHCOyv6ct0RKWQoA+HMGKAB4EzNDnZkUcY8SwKKluGt6ZOpbQgDAGxmgAOB0L5IDvfdExHElgEU4upD7OjIAwGnOrSUAgDd3aH3x8xTxQSWAs8qx5/7hiV8LAQBvzgAFAGdw4sSa90aEN5XAmfxsbX7bHTIAwOkZoADgDB68+vqjKWJCCeC0cmzbP3rNCSEA4PQMUABwFlc81PtsRHxTCeCN0vTsSOfLOgDAmRmgAOAsiqIo+3Iejwi3Vgf+1EKvV26VAQDOzgAFAIswPTJ1OCK+oATwBzk+Ordp6hEhAODsDFAAsEjpVNoeEa8oAUTES30X9e+WAQAWxwAFAIs0s3nymYh0ixJAjuhMr9/1ghIAsDgGKAA4B8fn/+LWiPSEEtBm+cdxce/jOgDA4hmgAOAcHB7bdiyivF4JaK/Ul7Z2B4sFJQDgHF4/JQCAczd4YE83clypBLTu5PmemeHO/1QCAM6NK6AA4Dzk1DceET0loFVOLvTFdhkA4NwZoADgPHQ3TnwvIj6tBLRHzvn2uY2dx5QAgHNngAKA83RR6k1GxBEloBWevSSXN8kAAOfHAAUA5+ngUPFcSmmvEtB8Oecd+0eLeSUA4PwYoADgAlx6ZOGOiPipEtBo31n3jfJzMgDA+XMXPAC4QOsO7Lkq5bhXCWik3Bf5yunhqfulAIDz5wooALhA3aHOV3Lk/UpAA+X4J+MTAFw4AxQALIU0sC0iTgkBTfp7Hcf6B3q7hACAC2eAAoAl0B3a9ZMUcacS0CA5bjq0oXhKCAC4cAYoAFgiJxcGdkfE80pAIzz91lO998kAAEvDAAUAS+SBq3a+lFJMKQFNkK+9d3Pxqg4AsDQMUACwhC498o5PRMQPlIAay/Hg7FBnnxAAsHQMUACwhPaNjfX6ohxXAmqrzP1pPFLKUgDA0jFAAcASmx6+YTYi7lYCaulT3Y2T35YBAJaWAQoAlkEvxbURcVwJqJWjudfzc9wAYBkYoABgGcwNdX4RkW9XAuojR+zubip+owQALD0DFAAs15vZi8ubIuJXSkAdpMcvKd/2YR0AYHkYoABgmXQHi5dzSruUgDpI4/tHrzmhAwAs0yutBACwjHJOgwf2Ho6I/yEGVNah2eHOBhkAYPm4AgoAllNKOZdpPCLc0h2qaSGnvq0yAMDyMkABwDLrjk4+lFL8oxJQPTnyh7tDEz9UAgCWlwEKAFbCybQjIl4WAirlxf6Bgb0yAMDyM0ABwAqY2Tz5TMrpZiWgOlKKyen1u15QAgCWnwEKAFZIuXbhtoj4hRJQCT8q1/Q+KQMArAwDFACskO5gcTyn2K4EVOAkOJVbu4PFghIAsDKSBACwsgbv2zMbEeuUgFVz9+xw53/JAAArxxVQALDi8v8bEa68gNVxstcXO2QAgJVlgAKAFTY7PPWjSPEpJWA15NvmNnYe0wEAVpYBCgBWwZrc2xURLyoBK+rZtWXpbpQAsAoMUACwCg4MFy9Gir1KwErK2/ePFvM6AMDKM0ABwGq9FV7T+1BE/EgJWBEPX/lQ+XkZAGB1uAseAKyi//PA7g1l7juoBCyrnHO6ojsy+YAUALA6XAEFAKtoeuiGr0aK/1QCltXnjU8AsLoMUACwynLubYmIE0rAsni1v783KQMArC4DFACssu5w8XjkuFMJWHo5xY2HNhRPKQEAq8sABQAVsDb3ioj4jRKwpJ7+y5O998sAAKvPAAUAFbB/tJjPOQolYOnkFNvu3Vy8qgQArD4DFABUxLpv9D4ZEQ8rAUvige7GyX+TAQCqwQAFABVRFEUZfXlLRGQ14IKUkfJ4pOTvEgBUhAEKACpkduPUgymHqzbgQqT45OzQlKsJAaBCDFAAUDELfWlbRPi5NXB+5vNCr5ABAKrFAAUAFTM3NPl0Tvl2JeA8pCi6mwp3lASAijFAAUAF/eXJ8qaIeEoJOBfp8cuO9D6iAwBUjwEKACro3s3FqynSpBKweCn1rtk3VpxUAgAq+DotAQBUVM5p8MDeuYj4KzHgLH9dIn21Ozy5UQkAqCZXQAFAVaWUI+XxiCjFgDM6lXL+/2QAgOoyQAFAhc0OTT0cOf5BCTiT/KHZkc5PdQCA6jJAAUDVX6wv6rs+IuaVgDf13/nico8MAFDxc1oJAKDaptdPPBuRblYC3kTKk93B4rdCAEC1GaAAoAYum1+4LUU8pgT8me9fduSdn5IBAKrPAAUANbBvrDiZc+xQAv4o5xjfNzbWUwIAqs8ABQA1MTvSuTtH+qoSEBEp9nVHOl0hAKAeDFAAUKv33OXWiFhQgpY7nsvedhkAoD4MUABQI7PDUz+KiE8qQZvllG/rjhRPKAEA9WGAAoCaWRO9yYh4QQlaKcUzsaZ0V0gAqBkDFADUzIHh4sUcsUcJ2iiXeUd3sHhZCQCoFwMUANTRxb2PRMQPhaBVUjzUHe78oxAAUD8GKACooe5gsZAjtipBi+SU05ZIKUsBAPVjgAKAmuoOdw6liK8oQSvk+NzM8OQ3hQCAejJAAUCdlTEeESeEoOFeHujv7ZIBAOrLAAUANTYz2vlZiviwEjRajhu/urH4lRAAUF8GKACouRMn1uyOiN8oQUP9Iq/tvV8GAKg3AxQA1NyDV19/NEVMKUEj5bi2O1gcFwIA6s0ABQANcMVDvU9Fjm8rQZPkSLOzI527lQCA+jNAAUADFEVRpr60JSLcop6m6PXnNC4DADSDAQoAGmJmaPLrEbFPCRriE9MjEz+QAQCawQAFAA3SS+naiHhVCWrupXyq5+eaAUCDGKAAoEHmhiafjsi3KUGd5Yjd3c3F80oAQHMYoACgYY7Pv/XvIuJJJaijFPHo0cvefqcSANAsBigAaJjDY9uOReRdSlBHZcS2h9/17lNKAECzJAkAoIFyTusO7P1aivhrMajRielXZoY7m5UAgOZxBRQANPKdfMp90TceEaUY1MTJnONaGQCgmQxQANBQM8MT34mIzypBHeSc75gd6fxUCQBoJgMUADT5hX6gb2dEHFGCintuYGDNXhkAoMHnpRIAQHNNr594NkfcpARVliNPHNqww1AKAA1mgAKAhrt8vvf+FPGYElTU9y6ff+ddMgBAsxmgAKDh9o0VJ8sU25Wgkso8vm9srCcEADSbAQoAWqA71LknIh1Qgor54uzo1NdkAIDmM0ABQFte9Mu+bRGxoASVkOJYzr0dQgBAS85FJQCAdpge3fXjiPi4ElRCzrd2R4onhACAdjBAAUCLnFoY6ETEC0qwqlI8c1G65BYhAKA9DFAA0CIPXLXzpZRitxKsqpy3Hxy67hUhAKA9DFAA0DKXHnnHnSnFI0qwGnLE4dmhzheUAIB2MUABQMu8dsv7cSVYBWVfpPFIKUsBAO1igAKAFpoZ6sxExJeVYIV9dmZ48psyAED7GKAAoKVSGdsi4oQSrJCjC9E3IQMAtJMBCgBaama087OI/EElWAk54r33D0/8WgkAaCcDFAC02MkTF++NCKMAyyunn19Svu0DQgBAexmgAKDFHrz6+qM5R0cJllWKbftHr/HtngDQYgYoAGi5dd/o3ZUjvqUEyyLHzOzw5JeEAIB2M0ABQMsVRVH257wlIrIaLLFer8zjMgAABigAIKZHpg5HxD8rwVLKkT46t2nqESUAAAMUABAREbnsbY+IV5RgibwUpxZ2ywAARBigAIDXdEeLX6YctynBUkgpbuhuLp5XAgCIMEABAH/i2NG33BwRTyrBhUgRjx659O0fUwIA+D0DFADwB4fHth3LOe9QgguRc7n14Xe9+5QSAMDvJQkAgNcbvG/P1yLiCiU4d/lLs8NT/5cOAMCfcgUUAPAGvTKPR0SpBOfoZF9vYLsMAMDrGaAAgDeYG536bqS4SwnOTf7A9KZd/6UDAPB6BigA4E1dFL1dEXFECRbpuf7+NTfKAAC8GQMUAPCmDg4Vz0WO9yrBoqS889CGHQZLAOBNGaAAgNO67GjvgxHZt1RxRiniu1ceLj+jBABwhvMFAIDTG9y/528ixZeU4LQnlCldOTM0OacEAHA6roACAM5odqTz5Yi4TwlO4wvGJwDgbAxQAMBZ9fpjW0ScUoI/k+JY6qWdQgAAZ2OAAgDOam5D59HI8TEl+FM54uaZTZNPKgEAnI0BCgBYlFO9gRsi4nkleM0v18Ta22QAABbDAAUALMoDV+18KUcUShARkXO+7uDQda8oAQAshgEKAFi0y+ff8bGI+IESrff17nDnizIAAItlgAIAFm3f2FgvpdiqRKuVfTmPR0pZCgBgsQxQAMA5mRnqzKSIe5RoqRR3TY9MfUsIAOBcGKAAgHM/gRjovScijivROkcXcl9HBgDgnM8fJQAAztWh9cXPc84fUKJlcuy5f3ji10IAAOfKAAUAnJ+15Xsj4ldCtMbP1ua33SEDAHA+DFAAwHnpDhYv55wnlGiHlNLW/aPXnFACADgfBigA4Lyt+0b5uYj4phJNl6Znhibv1QEAOF8GKADgvBVFUfblPB4RWY3GWuj1yq0yAAAXwgAFAFyQ6ZGpw5Hjn5RoqJTvnNs09YgQAMCFMEABABcsLaTrI+IVJRrnxb7+gb+VAQC4UAYoAOCCzWyefCYi3aJEw+TcmV6/6wUhAIALZYACAJbE8fm/uDUiPaFEU+Qf57XlJ3QAAJaCAQoAWBKHx7YdiyivV6IZUl/a2h0sFpQAAJbk3EICAGApDR7Y040cVypRXznlf+8OTf3fSgAAS8UVUADAksqpbzwiekrU1skyJVeyAQBLygAFACyp7saJ70XEp5Wop5zz7XMbO48pAQAsJQMUALDkLkq9yYj4rRK18+wlubxJBgBgqRmgAIAld3CoeC5H7FWiXnLOO/aPFvNKAABLzQAFACyLo5e9/Y6I+KkStfGddd8oPycDALAc3AUPAFg26w7suSrluFeJyss5pyu6I5MPSAEALAdXQAEAy6Y71PlKjrxfiYrL8U/GJwBgORmgAIDllQa2RcQpIap6fOJY/0BvlxAAwHIyQAEAy6o7tOsnOfJHlKioHDcd2lA8JQQAsJwMUADA8ru43B0RzwtROU+/9VTvfTIAAMvNAAUALLvuYPHblGJKiarJ1967uXhVBwBguRmgAIAVcemRd3wiIr6vREXkeHB2qLNPCABgJRigAIAVsW9srNcX5VYlKqHM/Wk8UspSAAArwQAFAKyY6eEbZiPibiVWWU5/3904+W0hAICVYoACAFZUL8W1EXFciVVzNJcLN8gAAKwkAxQAsKLmhjq/iMi3K7E6csTu7qbiN0oAACvJAAUArLh8cXlTRPxKiZWWHr+kfNuHdQAAVpoBCgBYcd3B4uWIvFOJlZbG949ec0IHAGDFz0IkAABWRc5p8MDewxHxP8RYEYdmhzsbZAAAVoMroACA1ZFSzmUaj4gsxrJbyKlvqwwAwGoxQAEAq6Y7OvlQRHxeieWVI3+4OzTxQyUAgNVigAIAVlXu9bZHxLwSy+bF/oGBvTIAAKvJAAUArKrupuI3OcUtSiyPFHliev2uF5QAAFaTAQoAWHWX9N52W0R6XIkl96Py4vLvZQAAVpsBCgBYdftHrzmRU96pxBKf6KVya3ewWFACAFhtSQIAoCrW3bf3YIq8QYmlkP9tdnjq/9EBAKgCV0ABAJWRotwaEa7YuXAncpQ7ZAAAqsIABQBUxuzw1I8ixaeUuFD5fd3hws/UAgAqwwAFAFTKmtzbFREvKnHenl1bljfLAABUiQEKAKiUA8PFi5FirxLnK2/fP1rM6wAAVIkBCgConLym96GI+JES5+zhKx8qPy8DAFA17oIHAFTSuvv2rE8RX1Vi0XLO6YruyOQDUgAAVeMKKACgkrrDnUOR4j+VWLTPG58AgKoyQAEAlZVzb0tEnFDirF7t7+9NygAAVJUBCgCorO5w8XhE/ogSZ5ZT3HhoQ/GUEgBAVRmgAIBKW1uWuyPiN0qc1lN/ebL3fhkAgCozQAEAlbZ/tJiPlG9Q4nTStns3F6/qAABUmQEKAKi8Kw+Xfx8RDyvxBg/MDk3cLQMAUHUGKACg8oqiKKMvb4mIrMYflJHyeKSkCQBQeQYoAKAWZjdOPRgp/lWJ38mRPjE7NOWqMACgFgxQAEBt9CK9JyL8vKOI+f6BVMgAANSFAQoAqI25ocmnc8q3tz5EimJ6/cSz/kQAAHVhgAIAauUvT5Y3RcRT7S2QfzJ/6ds/7E8CAFAnBigAoFbu3Vy8mnOeaOvzTylve/hd7z7lTwIAUKtzGAkAgNrJOQ0e2DsXEX/Vsif+H7PDU1f5AwAA1I0roACA+kkpp+jbEhFli571qcjpPQ4+AFBHBigAoJZmhie+Ezn+oT3POH9odqTzU0ceAKgjAxQAUN8TmYv6ro+I+RY81f/OF5d7HHEAoLbnbRIAAHU1vX7i2cjxd41/oilPdgeL3zriAEBdGaAAgFq77GjvfSnisQY/xe9fduSdn3KkAYA6M0ABALW2b6w4mXPsaOrzyznG942N9RxpAKDODFAAQO3NjnTujhwHG/fEUuzrjnS6jjAAUHcGKACgGSc1uX9rRCw06Ckdz2VvuyMLADTiXE0CAKAJpkd3/TgiPtmgp3Rrd6R4wpEFAJrAAAUANMaa6E1GxAu1fyIpnrkorb3ZEQUAmsIABQA0xoHh4sUcsafuzyOXecfBoetecUQBgKYwQAEAzXJx7yMR8cPaPv4UD3WHO//oQAIATWKAAgAapTtYLEQux2v68HPKaUuklB1JAKBJDFAAQOPMjtwwnSK+UrsHnuNzM8OT33QEAYCmMUABAM1UxnhEnKjRI355oL+3y4EDAJrIAAUANNLMaOdnOecP1eYB57jxqxuLXzlyAEATGaAAgMY6dfLiv42IX1f+geb087y2935HDABoKgMUANBYD159/dEcearqjzNFXNsdLI47YgBAUxmgAIBGW/dQ+enI8e2qPr4caXZmZPLfHSkAoMkMUABAoxVFUaa+tCUicgUfXq8/p3FHCQBoOgMUANB4M0OTX4+If6ncA0vp49MjEz9whACApjNAAQCtkMvetRHxSoUe0kv55MINjgwA0AYGKACgFbqjxS8j8vsq84ByKrqbi+cdGQCgDQxQAEBrHJ9/699FxJOr/ThSxKPzl1/+UUcEAGgLAxQA0BqHx7Ydi8i7VvtxlBHbHn7Xu085IgBAWyQJAIBWyTmtO7D3aynir1fn0+d7uyNTf+NAAABt4gooAKBdUsplmbdERLkKn/1kfzlwrYMAALSNAQoAaJ250anvRsRnV/rz5pzvmN60678cAQCgbQxQAEA7T4IG+nZGxJEV/JTPDQys2as8ANDKcy8JAIA2ml4/8WyOuGmlPl+OPHFow44jygMAbWSAAgBa6/L53vsj8rJ/S1yK+O7l8++8S3EAoK0MUABAa+0bK05G9G1f9k+U0vi+sbGe4gBAWxmgAIBWmx2e/FJEOrCMn+KLM0OTc0oDAG1mgAIAnBCVfdsi4tSSf+AUx3Lu7VAYAGj9+ZYEAEDbTY/u+nGO9PGl/ripjFu6I8UTCgMAbWeAAgCIiIWF/qmIeGHJPmCKZwb61t6qLACAAQoAICIiHrhq50spxe4l+4A5bz84dN0rygIAGKAAAP7g0iPvuDOleORCP06OODw71PmCogAAv2OAAgB4zb6xsV5EjF/ghyn7Io1HSllRAIDfMUABAPyJmaHOTET+0vl/hPSZmeHJbyoJAPBHBigAgNfpHyi3RcSJ8/hPjy5EmlQQAODPGaAAAF7n0Pri5xH5g+f63+WI994/PPFrBQEA/pwBCgDgTZw8cfHeiFj8mJTTzy8p3/YB5QAA3sgABQDwJh68+vqjkfLiv50uxbb9o9ecUA4A4I0MUAAAp3Hl4fIzOeJbZ/2NOWZmhye/pBgAwJszQAEAnEZRFGV/zlsiIp/ht/V6ZR5XCwDg9AxQAABnMD0ydTgi/vl0/z5H+ujcpqlHlAIAOD0DFADAWeSytz0iXnmTf/VSnFrYrRAAwJkZoAAAzqI7Wvwyp7j19f88RZ7qbi6eVwgA4MwMUAAAi3DiyFtuiYgnf//rFPHokcv+948rAwBwdgYoAIBFODy27VjOecfvf51zufXhd737lDIAAAAALKnB+/Z8bfC+v71HCQCAxRuQAABg8VL0bV3oK48qAQCweP8/rvn7MpAAfygAAAAldEVYdGRhdGU6Y3JlYXRlADIwMjItMTItMTNUMDA6MjI6MjYrMDA6MDDgHbbPAAAAJXRFWHRkYXRlOm1vZGlmeQAyMDIyLTEyLTEzVDAwOjIyOjI2KzAwOjAwkUAOcwAAAABJRU5ErkJggg==;" parent="1" vertex="1">
          <mxGeometry x="851" y="855.75" width="78" height="67.65" as="geometry" />
        </mxCell>
        <mxCell id="H-b20srUGd8yj_HJ04RQ-65" value="" style="edgeStyle=orthogonalEdgeStyle;html=1;endArrow=block;elbow=vertical;startArrow=none;endFill=1;strokeColor=#545B64;rounded=0;entryX=0.5;entryY=1;entryDx=0;entryDy=0;entryPerimeter=0;exitX=0.5;exitY=0;exitDx=0;exitDy=0;" parent="1" source="H-b20srUGd8yj_HJ04RQ-64" target="H-b20srUGd8yj_HJ04RQ-22" edge="1">
          <mxGeometry width="100" relative="1" as="geometry">
            <mxPoint x="780" y="350" as="sourcePoint" />
            <mxPoint x="880" y="350" as="targetPoint" />
            <Array as="points" />
          </mxGeometry>
        </mxCell>
        <mxCell id="H-b20srUGd8yj_HJ04RQ-28" value="" style="sketch=0;points=[[0,0,0],[0.25,0,0],[0.5,0,0],[0.75,0,0],[1,0,0],[0,1,0],[0.25,1,0],[0.5,1,0],[0.75,1,0],[1,1,0],[0,0.25,0],[0,0.5,0],[0,0.75,0],[1,0.25,0],[1,0.5,0],[1,0.75,0]];outlineConnect=0;fontColor=#232F3E;gradientColor=#4D72F3;gradientDirection=north;fillColor=#3334B9;strokeColor=#ffffff;dashed=0;verticalLabelPosition=bottom;verticalAlign=top;align=center;html=1;fontSize=12;fontStyle=0;aspect=fixed;shape=mxgraph.aws4.resourceIcon;resIcon=mxgraph.aws4.codeartifact;" parent="1" vertex="1">
          <mxGeometry x="1270.25" y="727.25" width="78" height="78" as="geometry" />
        </mxCell>
        <mxCell id="H-b20srUGd8yj_HJ04RQ-32" value="" style="edgeStyle=orthogonalEdgeStyle;html=1;endArrow=open;elbow=vertical;startArrow=none;endFill=0;strokeColor=#545B64;rounded=0;exitX=0.25;exitY=1;exitDx=0;exitDy=0;exitPerimeter=0;entryX=1;entryY=0.5;entryDx=0;entryDy=0;entryPerimeter=0;" parent="1" source="H-b20srUGd8yj_HJ04RQ-28" target="H-b20srUGd8yj_HJ04RQ-26" edge="1">
          <mxGeometry width="100" relative="1" as="geometry">
            <mxPoint x="1240.25" y="930.6600000000001" as="sourcePoint" />
            <mxPoint x="1340.25" y="930.6600000000001" as="targetPoint" />
            <Array as="points">
              <mxPoint x="1286" y="891" />
              <mxPoint x="1277" y="891" />
            </Array>
          </mxGeometry>
        </mxCell>
        <mxCell id="H-b20srUGd8yj_HJ04RQ-81" value="" style="edgeStyle=orthogonalEdgeStyle;html=1;endArrow=openThin;elbow=vertical;startArrow=none;endFill=0;strokeColor=#545B64;rounded=0;exitX=0;exitY=0.5;exitDx=0;exitDy=0;exitPerimeter=0;entryX=0.75;entryY=1;entryDx=0;entryDy=0;entryPerimeter=0;" parent="1" source="H-b20srUGd8yj_HJ04RQ-27" target="H-b20srUGd8yj_HJ04RQ-28" edge="1">
          <mxGeometry width="100" relative="1" as="geometry">
            <mxPoint x="1400.25" y="719.25" as="sourcePoint" />
            <mxPoint x="1500.25" y="719.25" as="targetPoint" />
          </mxGeometry>
        </mxCell>
        <mxCell id="H-b20srUGd8yj_HJ04RQ-85" value="CodeArtifact" style="text;strokeColor=none;fillColor=none;html=1;fontSize=10;fontStyle=0;verticalAlign=middle;align=center;" parent="1" vertex="1">
          <mxGeometry x="1286.1" y="705.25" width="44.3" height="20" as="geometry" />
        </mxCell>
        <mxCell id="r-8rqZamunhnQGw3UiM5-16" value="Github Actions" style="text;strokeColor=none;fillColor=none;html=1;fontSize=12;fontStyle=0;verticalAlign=middle;align=center;" vertex="1" parent="1">
          <mxGeometry x="869" y="961.25" width="44.3" height="20" as="geometry" />
        </mxCell>
        <mxCell id="r-8rqZamunhnQGw3UiM5-17" value="" style="shape=image;html=1;verticalAlign=top;verticalLabelPosition=bottom;labelBackgroundColor=#ffffff;imageAspect=0;aspect=fixed;image=https://cdn4.iconfinder.com/data/icons/ionicons/512/icon-social-github-128.png" vertex="1" parent="1">
          <mxGeometry x="821" y="956.25" width="28" height="28" as="geometry" />
        </mxCell>
        <mxCell id="H-b20srUGd8yj_HJ04RQ-5" value="AWS Cloud" style="points=[[0,0],[0.25,0],[0.5,0],[0.75,0],[1,0],[1,0.25],[1,0.5],[1,0.75],[1,1],[0.75,1],[0.5,1],[0.25,1],[0,1],[0,0.75],[0,0.5],[0,0.25]];outlineConnect=0;gradientColor=none;html=1;whiteSpace=wrap;fontSize=10;fontStyle=0;container=0;pointerEvents=0;collapsible=0;recursiveResize=0;shape=mxgraph.aws4.group;grIcon=mxgraph.aws4.group_aws_cloud;strokeColor=#232F3E;fillColor=none;verticalAlign=top;align=left;spacingLeft=30;fontColor=#232F3E;dashed=0;" parent="1" vertex="1">
          <mxGeometry x="460" y="280" width="1080" height="553" as="geometry" />
        </mxCell>
        <mxCell id="H-b20srUGd8yj_HJ04RQ-39" value="" style="edgeStyle=orthogonalEdgeStyle;html=1;endArrow=none;elbow=vertical;startArrow=block;startFill=1;strokeColor=#545B64;rounded=0;exitX=0.5;exitY=1;exitDx=0;exitDy=0;exitPerimeter=0;entryX=0.5;entryY=0;entryDx=0;entryDy=0;" parent="1" source="H-b20srUGd8yj_HJ04RQ-4" target="H-b20srUGd8yj_HJ04RQ-30" edge="1">
          <mxGeometry width="100" relative="1" as="geometry">
            <mxPoint x="1189" y="810" as="sourcePoint" />
            <mxPoint x="1010" y="1127" as="targetPoint" />
            <Array as="points">
              <mxPoint x="1110" y="849" />
            </Array>
          </mxGeometry>
        </mxCell>
        <mxCell id="r-8rqZamunhnQGw3UiM5-21" value="" style="edgeStyle=orthogonalEdgeStyle;html=1;endArrow=block;elbow=vertical;startArrow=none;endFill=1;strokeColor=#545B64;rounded=0;entryX=0.001;entryY=0.509;entryDx=0;entryDy=0;entryPerimeter=0;" edge="1" parent="1" target="H-b20srUGd8yj_HJ04RQ-49">
          <mxGeometry width="100" relative="1" as="geometry">
            <mxPoint x="259" y="570" as="sourcePoint" />
            <mxPoint x="210" y="498" as="targetPoint" />
            <Array as="points">
              <mxPoint x="260" y="570" />
              <mxPoint x="260" y="634" />
            </Array>
          </mxGeometry>
        </mxCell>
      </root>
    </mxGraphModel>
  </diagram>
</mxfile>
